<svg width="92" height="93" viewBox="0 0 92 93" fill="none" xmlns="http://www.w3.org/2000/svg">
<path d="M15.3334 12H11.5C9.38295 12 7.66669 13.7163 7.66669 15.8333V69.5L13.4167 81L19.1667 69.5V15.8333C19.1667 13.7163 17.4504 12 15.3334 12Z" stroke="#1B1B1B" stroke-width="3" stroke-linejoin="round"/>
<path d="M80.5 46.505V31.1694C80.5 22.1329 80.5 17.6146 77.6933 14.8073C74.8861 12 70.3685 12 61.3334 12H49.8334C40.7982 12 36.2805 12 33.4736 14.8073C30.6667 17.6146 30.6667 22.1329 30.6667 31.1694V61.8406C30.6667 70.8769 30.6667 75.3953 33.4736 78.2028C35.8518 80.5814 39.4581 80.9444 46 81" stroke="#1B1B1B" stroke-width="3" stroke-linecap="round" stroke-linejoin="round"/>
<path d="M46 27.3333H65.1667" stroke="#1B1B1B" stroke-width="3" stroke-linecap="round" stroke-linejoin="round"/>
<path d="M46 42.6667H65.1667" stroke="#1B1B1B" stroke-width="3" stroke-linecap="round" stroke-linejoin="round"/>
<path d="M53.6667 73.3333C53.6667 73.3333 59.4167 75.25 63.25 81C63.25 81 69 65.6667 84.3334 58" stroke="#1B1B1B" stroke-width="3" stroke-linecap="round" stroke-linejoin="round"/>
<path d="M7.66669 27.3333H19.1667" stroke="#1B1B1B" stroke-width="3" stroke-linecap="round" stroke-linejoin="round"/>
</svg>
