<svg width="88" height="89" viewBox="0 0 88 89" fill="none" xmlns="http://www.w3.org/2000/svg">
<path d="M34.5625 11.7298C39.1732 9.1321 41.4788 7.83325 44 7.83325C46.5212 7.83325 48.8268 9.1321 53.4377 11.7298L59.8543 15.3448C64.6404 18.0413 67.0337 19.3895 68.35 21.6443C69.6667 23.899 69.6667 26.649 69.6667 32.149V38.5174C69.6667 44.0174 69.6667 46.7674 68.35 49.0224C67.0337 51.277 64.6404 52.6253 59.8543 55.3217L53.4377 58.9367C48.8268 61.5345 46.5212 62.8333 44 62.8333C41.4788 62.8333 39.1732 61.5345 34.5625 58.9367L28.1458 55.3217C23.3597 52.6253 20.9666 51.277 19.65 49.0224C18.3334 46.7674 18.3334 44.0174 18.3334 38.5174V32.149C18.3334 26.649 18.3334 23.899 19.65 21.6443C20.9666 19.3895 23.3597 18.0413 28.1458 15.3448L34.5625 11.7298Z" stroke="#1B1B1B" stroke-width="3" stroke-linejoin="round"/>
<path d="M33 37.7779C33 37.7779 35.75 37.7779 38.5 42.6667C38.5 42.6667 47.2355 30.4445 55 28" stroke="#1B1B1B" stroke-width="3" stroke-linecap="round" stroke-linejoin="round"/>
<path d="M61.9025 55.5L64.3599 67.2696C65.9388 74.8318 66.7282 78.6128 65.1064 80.4051C63.485 82.197 60.6687 80.6555 55.0363 77.5726L46.7001 73.0094C45.3691 72.2809 44.7036 71.9168 44 71.9168C43.2964 71.9168 42.6309 72.2809 41.2999 73.0094L32.9636 77.5726C27.3312 80.6555 24.515 82.197 22.8934 80.4051C21.2718 78.6128 22.0612 74.8318 23.6401 67.2696L26.0976 55.5" stroke="#1B1B1B" stroke-width="3" stroke-linecap="round" stroke-linejoin="round"/>
</svg>
