<svg width="17" height="10" viewBox="0 0 17 10" fill="none" xmlns="http://www.w3.org/2000/svg">
<path d="M0.531257 10C0.380382 10 0.254299 9.95414 0.153007 9.86242C0.0517156 9.77069 0.00071561 9.65778 7.27738e-06 9.52367C-0.000701055 9.38957 0.050299 9.27697 0.153007 9.18588C0.255715 9.09479 0.381799 9.04956 0.531257 9.05019H16.4687C16.6196 9.05019 16.7457 9.09574 16.847 9.18683C16.949 9.27792 17 9.39083 17 9.52557C17 9.66031 16.949 9.77291 16.847 9.86336C16.745 9.95382 16.6189 9.99905 16.4687 9.99905L0.531257 10ZM0.531257 5.47395C0.380382 5.47395 0.254299 5.42841 0.153007 5.33732C0.0517156 5.24623 0.00071561 5.13331 7.27738e-06 4.99858C-0.000701055 4.86384 0.050299 4.75124 0.153007 4.66078C0.255715 4.57033 0.381799 4.5251 0.531257 4.5251H16.4687C16.6196 4.5251 16.7457 4.57064 16.847 4.66173C16.9483 4.75282 16.9993 4.86574 17 5.00047C17.0007 5.13521 16.9497 5.24781 16.847 5.33827C16.7443 5.42873 16.6182 5.47395 16.4687 5.47395H0.531257ZM0.531257 0.947908C0.380382 0.947908 0.254299 0.902679 0.153007 0.812221C0.0510073 0.721131 7.27738e-06 0.608217 7.27738e-06 0.47348C7.27738e-06 0.338742 0.0510073 0.226144 0.153007 0.135687C0.255007 0.045229 0.38109 0 0.531257 0H16.4687C16.6196 0 16.7457 0.0455452 16.847 0.136635C16.9483 0.227726 16.9993 0.340007 17 0.47348C17.0007 0.606952 16.9497 0.71955 16.847 0.811272C16.7443 0.902995 16.6182 0.94854 16.4687 0.947908H0.531257Z" fill="#161616"/>
</svg>
