<svg width="38" height="30" viewBox="0 0 38 30" fill="none" xmlns="http://www.w3.org/2000/svg">
<path d="M36.7755 0.800978C37.0051 1.05424 37.1874 1.3551 37.3117 1.68633C37.436 2.01755 37.5 2.37265 37.5 2.73126C37.5 3.08987 37.436 3.44497 37.3117 3.7762C37.1874 4.10743 37.0051 4.40829 36.7755 4.66154L14.58 29.199C14.3509 29.4529 14.0788 29.6544 13.7791 29.7918C13.4795 29.9293 13.1583 30 12.8339 30C12.5096 30 12.1884 29.9293 11.8887 29.7918C11.5891 29.6544 11.317 29.4529 11.0879 29.199L1.22323 18.2935C0.760155 17.7815 0.5 17.0872 0.5 16.3632C0.5 15.6392 0.760155 14.9449 1.22323 14.4329C1.68631 13.921 2.31439 13.6334 2.96928 13.6334C3.62417 13.6334 4.25225 13.921 4.71533 14.4329L12.8339 23.4136L33.2834 0.800978C33.5125 0.54708 33.7846 0.345639 34.0842 0.208194C34.3838 0.070749 34.705 0 35.0294 0C35.3538 0 35.675 0.070749 35.9746 0.208194C36.2742 0.345639 36.5464 0.54708 36.7755 0.800978Z" fill="url(#paint0_linear_1_997)"/>
<defs>
<linearGradient id="paint0_linear_1_997" x1="19" y1="0" x2="19" y2="30" gradientUnits="userSpaceOnUse">
<stop stop-color="#FF1D00"/>
<stop offset="1" stop-color="#FF6900"/>
</linearGradient>
</defs>
</svg>
