<svg width="121" height="123" viewBox="0 0 121 123" fill="none" xmlns="http://www.w3.org/2000/svg">
<path d="M74.7708 60.2083C74.7708 50.946 67.2623 43.4375 58 43.4375C48.7377 43.4375 41.2292 50.946 41.2292 60.2083C41.2292 69.4706 48.7377 76.9792 58 76.9792C67.2623 76.9792 74.7708 69.4706 74.7708 60.2083Z" stroke="#1B1B1B" stroke-width="3" stroke-linecap="round" stroke-linejoin="round"/>
<path d="M74.688 61.8849C76.2309 62.3526 77.8672 62.6042 79.5625 62.6042C88.8248 62.6042 96.3333 55.0956 96.3333 45.8333C96.3333 36.571 88.8248 29.0625 79.5625 29.0625C70.8661 29.0625 63.7155 35.6817 62.8746 44.1569" stroke="#1B1B1B" stroke-width="3" stroke-linecap="round" stroke-linejoin="round"/>
<path d="M53.1254 44.1569C52.2845 35.6817 45.134 29.0625 36.4375 29.0625C27.1752 29.0625 19.6667 36.571 19.6667 45.8333C19.6667 55.0956 27.1752 62.6042 36.4375 62.6042C38.1328 62.6042 39.7694 62.3526 41.3119 61.8849" stroke="#1B1B1B" stroke-width="3" stroke-linecap="round" stroke-linejoin="round"/>
<path d="M105.917 86.5626C105.917 73.3309 94.1177 62.6042 79.5625 62.6042" stroke="#1B1B1B" stroke-width="3" stroke-linecap="round" stroke-linejoin="round"/>
<path d="M84.3542 100.938C84.3542 87.7059 72.5552 76.9792 58 76.9792C43.445 76.9792 31.6458 87.7059 31.6458 100.938" stroke="#1B1B1B" stroke-width="3" stroke-linecap="round" stroke-linejoin="round"/>
<path d="M36.4375 62.6042C21.8825 62.6042 10.0833 73.3309 10.0833 86.5626" stroke="#1B1B1B" stroke-width="3" stroke-linecap="round" stroke-linejoin="round"/>
<path d="M104.091 7.6488C104.468 6.69422 105.819 6.69422 106.195 7.6488L107.261 10.35C107.95 12.0987 109.334 13.4829 111.083 14.1725L113.784 15.2379C114.739 15.6144 114.739 16.9653 113.784 17.3418L111.083 18.4072C109.334 19.0968 107.95 20.4809 107.261 22.2296L106.195 24.9308C105.819 25.8854 104.468 25.8854 104.091 24.9308L103.026 22.2296C102.336 20.4809 100.952 19.0968 99.2034 18.4072L96.5022 17.3418C95.5476 16.9653 95.5476 15.6144 96.5022 15.2379L99.2034 14.1725C100.952 13.4829 102.336 12.0987 103.026 10.35L104.091 7.6488Z" stroke="#1B1B1B" stroke-width="3"/>
<path d="M114.106 3.69254C114.247 3.33458 114.753 3.33458 114.895 3.69254L115.294 4.7055C115.553 5.36124 116.072 5.88032 116.728 6.13893L117.741 6.53844C118.098 6.67962 118.098 7.18623 117.741 7.32742L116.728 7.72692C116.072 7.98554 115.553 8.50461 115.294 9.16035L114.895 10.1733C114.753 10.5313 114.247 10.5313 114.106 10.1733L113.706 9.16035C113.448 8.50461 112.928 7.98554 112.273 7.72692L111.26 7.32742C110.902 7.18623 110.902 6.67962 111.26 6.53844L112.273 6.13893C112.928 5.88032 113.448 5.36124 113.706 4.7055L114.106 3.69254Z" stroke="#1B1B1B" stroke-width="3"/>
</svg>
