<svg width="201" height="36" viewBox="0 0 201 36" fill="none" xmlns="http://www.w3.org/2000/svg">
<path fill-rule="evenodd" clip-rule="evenodd" d="M86.2791 29.4715L86.2813 29.4726L86.2836 29.4737C87.185 29.9137 88.1802 30.1266 89.257 30.1266C90.1824 30.1266 91.0149 29.9832 91.7356 29.6707C92.3323 29.4118 92.8553 29.0858 93.2913 28.6841V29.7582H97.6572V17.9597C97.6572 16.6689 97.4495 15.5474 96.9822 14.6436C96.5396 13.781 95.9571 13.0921 95.2278 12.6045C94.5479 12.1454 93.8128 11.8299 93.0263 11.66C92.2888 11.4922 91.5804 11.4059 90.9028 11.4059C89.894 11.4059 88.9257 11.5608 88.0011 11.8736C87.0535 12.1869 86.21 12.695 85.4777 13.3956C84.7284 14.1118 84.1746 15.0388 83.803 16.1488L83.5383 16.9393L87.7408 17.9603L87.9649 17.3736C88.1316 16.937 88.4447 16.5061 88.952 16.0908L88.9529 16.09C89.3811 15.7383 90.0183 15.5191 90.9434 15.5191C91.8181 15.5191 92.3489 15.7503 92.6663 16.0843L92.668 16.0861L92.6697 16.0878C93.0015 16.4322 93.2101 16.9512 93.2101 17.7538V17.8296C93.2101 17.9361 93.1921 17.9848 93.1847 18.0005C93.1799 18.0109 93.1733 18.0227 93.1465 18.0403C93.013 18.1279 92.7126 18.2384 92.1587 18.3143C91.5769 18.3864 90.8199 18.4802 89.8875 18.5955L89.8863 18.5956L89.8852 18.5958C89.1207 18.693 88.3696 18.8353 87.6319 19.0226C86.8615 19.2183 86.1539 19.5106 85.5141 19.904C84.835 20.3216 84.2911 20.8931 83.891 21.61C83.4702 22.3641 83.2848 23.2796 83.2848 24.3098C83.2848 25.5139 83.54 26.5842 84.0895 27.4806L84.0907 27.4827L84.092 27.4848C84.6336 28.3555 85.3684 29.0187 86.2791 29.4715ZM88.7855 22.8537C88.3981 23.0052 88.117 23.211 87.9147 23.4565C87.7679 23.6355 87.6609 23.908 87.6609 24.3532C87.6609 24.9418 87.8491 25.3052 88.1916 25.5602C88.6018 25.8581 89.1606 26.0352 89.9174 26.0352C90.6651 26.0352 91.2599 25.8779 91.7303 25.5985L91.7317 25.5977L91.7332 25.5968C92.2375 25.3006 92.5966 24.9292 92.8376 24.4878L92.8383 24.4866L92.8389 24.4853C93.0955 24.0194 93.2202 23.5316 93.2202 23.0094V21.9812C92.9558 22.0526 92.6697 22.1162 92.3628 22.1727L92.357 22.1737L92.3512 22.1747C91.9563 22.24 91.5715 22.3018 91.1967 22.36L91.1905 22.3609L91.1843 22.3618C90.8128 22.4122 90.5032 22.4553 90.255 22.4911L90.252 22.4915L90.2491 22.4919C89.7045 22.5653 89.2178 22.6873 88.7855 22.8537Z" fill="url(#paint0_linear_1_776)"/>
<path fill-rule="evenodd" clip-rule="evenodd" d="M105.786 12.0174C105.253 12.3251 104.794 12.6872 104.424 13.1105V11.6227H100.058V36H104.495V28.4419C104.863 28.8442 105.313 29.1902 105.832 29.4859L105.834 29.4867L105.835 29.4875C106.57 29.9017 107.468 30.0833 108.489 30.0833C109.874 30.0833 111.131 29.7035 112.235 28.9317L112.236 28.9307L112.238 28.9297C113.34 28.1514 114.191 27.053 114.801 25.6662L114.802 25.6648C115.417 24.2576 115.71 22.6023 115.71 20.7229C115.71 18.8434 115.413 17.1904 114.79 15.7891C114.18 14.4007 113.322 13.3075 112.21 12.5435C111.1 11.7812 109.842 11.4059 108.458 11.4059C107.421 11.4059 106.514 11.5899 105.786 12.0174ZM109.648 25.222C110.145 24.7973 110.536 24.211 110.81 23.4314L110.81 23.4289L110.811 23.4264C111.095 22.6357 111.243 21.7273 111.243 20.6904C111.243 19.6673 111.098 18.7729 110.821 17.9966L110.82 17.9941L110.819 17.9916C110.554 17.2316 110.166 16.6629 109.667 16.2528L109.665 16.2516L109.664 16.2504C109.199 15.8645 108.596 15.6491 107.808 15.6491C107.054 15.6491 106.463 15.8536 105.993 16.2263C105.511 16.6137 105.127 17.1667 104.855 17.9227C104.581 18.6865 104.434 19.6041 104.434 20.6904C104.434 21.7904 104.584 22.7221 104.865 23.5004C105.144 24.2747 105.535 24.845 106.02 25.2474C106.483 25.6235 107.065 25.8293 107.808 25.8293C108.585 25.8293 109.182 25.613 109.648 25.222Z" fill="url(#paint1_linear_1_776)"/>
<path d="M72.421 24.5658L72.3793 23.8679H67.7657L67.7927 24.641C67.8317 25.7559 68.1595 26.7496 68.7874 27.5911L68.7887 27.5929L68.7901 27.5947C69.4105 28.4156 70.3574 29.035 71.3592 29.4656L71.3622 29.4669L71.3651 29.4681C72.3737 29.8905 73.4954 30.0941 74.7196 30.0941C75.9778 30.0941 77.1227 29.8832 78.1416 29.4436L78.1428 29.4431L78.1441 29.4426C79.1707 28.9949 80.0042 28.3445 80.6124 27.4775C81.2402 26.5923 81.5451 25.55 81.5451 24.3857C81.5451 23.5645 81.3944 22.8027 81.0768 22.1164C80.763 21.4384 80.3211 20.8805 79.752 20.4581C79.6631 20.3921 79.5722 20.3307 79.4795 20.2738C79.7601 20.0709 80.017 19.8382 80.2487 19.5746C80.9025 18.8313 81.2099 17.8884 81.2099 16.811C81.2099 15.7566 80.9366 14.799 80.3811 13.965C79.8367 13.1375 79.0754 12.5086 78.1306 12.0652C77.1758 11.6171 76.073 11.4059 74.8415 11.4059C73.6526 11.4059 72.565 11.6187 71.5914 12.0613C70.6279 12.4951 69.7137 13.1176 69.1172 13.9381L69.1166 13.9389C68.5124 14.7724 68.2021 15.7443 68.1785 16.8262L68.1619 17.5889H72.7361L72.7671 16.8781C72.7824 16.5265 72.9289 16.2245 73.3201 15.9463L73.3226 15.9446L73.3251 15.9428C73.7319 15.6481 74.2733 15.4758 74.9939 15.4758C75.6981 15.4758 76.1476 15.6565 76.4352 15.9221L76.4394 15.926L76.4437 15.9298C76.7352 16.1905 76.8846 16.5212 76.8846 16.9952C76.8846 17.4195 76.7503 17.7433 76.4701 18.0185C76.2229 18.2612 75.7817 18.4496 75.0142 18.4496H71.7747V22.487H75.0142C75.5114 22.487 75.9033 22.5775 76.2107 22.7308L76.2126 22.7318L76.2146 22.7327C76.5325 22.8889 76.7527 23.0954 76.9037 23.3465L76.9079 23.3534L76.9122 23.3602C77.0627 23.5988 77.1488 23.8909 77.1488 24.2665C77.1488 24.8816 76.9446 25.2512 76.5592 25.5051C76.0738 25.8173 75.4609 25.9918 74.6891 25.9918C73.9196 25.9918 73.3617 25.8269 72.9645 25.5575C72.6173 25.3178 72.4476 25.0093 72.421 24.5658Z" fill="url(#paint2_linear_1_776)"/>
<path fill-rule="evenodd" clip-rule="evenodd" d="M54.2124 28.9362L54.2146 28.9376L54.2168 28.939C55.4544 29.7198 56.9067 30.0941 58.5455 30.0941C59.7537 30.0941 60.8548 29.8985 61.8371 29.4906L61.8385 29.49L61.8398 29.4895C62.8194 29.0778 63.6513 28.4952 64.3191 27.7336C64.9934 26.9653 65.4625 26.0664 65.7224 25.047L65.9225 24.2625L61.7217 23.455L61.5169 24.0376C61.3674 24.4627 61.1583 24.8029 60.8946 25.0731C60.6251 25.3493 60.303 25.5618 59.9192 25.7086C59.5292 25.8507 59.0838 25.9268 58.576 25.9268C57.792 25.9268 57.141 25.7493 56.5994 25.4198C56.062 25.0857 55.6355 24.6015 55.3202 23.9419C55.1182 23.5103 54.976 23.0027 54.903 22.4111H65.9399V20.5171C65.9399 18.9452 65.7431 17.5672 65.325 16.4042C64.915 15.2566 64.344 14.2936 63.5989 13.5397C62.8731 12.8054 62.0473 12.2611 61.1251 11.9144C60.2236 11.5755 59.2915 11.4059 58.3321 11.4059C56.7682 11.4059 55.3684 11.8012 54.1588 12.6157L54.158 12.6163L54.1571 12.6169C52.965 13.4247 52.0414 14.5467 51.3859 15.9608L51.3852 15.9623L51.3845 15.9638C50.7342 17.3827 50.4196 19.0006 50.4196 20.7988C50.4196 22.6168 50.7336 24.2402 51.3859 25.6476L51.3869 25.6498L51.388 25.6521C52.0475 27.0511 52.9902 28.1523 54.2124 28.9362ZM54.9591 18.493H61.5124C61.4492 18.0577 61.3289 17.6688 61.1569 17.3209L61.1562 17.3194L61.1554 17.3179C60.888 16.7712 60.5184 16.3494 60.0401 16.0386L60.0386 16.0376L60.0371 16.0366C59.5806 15.7365 59.0279 15.5733 58.3525 15.5733C57.6194 15.5733 57.0121 15.7637 56.5032 16.1217L56.5024 16.1223L56.5017 16.1228C55.9733 16.4925 55.5678 16.9727 55.2775 17.5732C55.1374 17.8663 55.0311 18.1725 54.9591 18.493Z" fill="url(#paint3_linear_1_776)"/>
<path fill-rule="evenodd" clip-rule="evenodd" d="M121.311 28.9362L121.313 28.9376L121.316 28.939C122.553 29.7198 124.006 30.0941 125.644 30.0941C126.853 30.0941 127.954 29.8985 128.936 29.4906L128.937 29.49L128.939 29.4895C129.918 29.0778 130.75 28.4952 131.418 27.7336C132.092 26.9653 132.561 26.0664 132.821 25.047L133.021 24.2625L128.821 23.455L128.616 24.0376C128.466 24.4627 128.257 24.8029 127.994 25.0731C127.724 25.3493 127.402 25.5618 127.018 25.7086C126.628 25.8506 126.183 25.9268 125.675 25.9268C124.891 25.9268 124.24 25.7492 123.698 25.4198C123.161 25.0857 122.734 24.6015 122.419 23.9419C122.217 23.5103 122.075 23.0027 122.002 22.4111H133.039V20.5171C133.039 18.9453 132.842 17.5673 132.424 16.4043L132.424 16.4035C132.014 15.2562 131.443 14.2934 130.698 13.5397C129.972 12.8054 129.146 12.2611 128.224 11.9144C127.323 11.5755 126.39 11.4059 125.431 11.4059C123.867 11.4059 122.467 11.8012 121.258 12.6157L121.257 12.6163L121.256 12.6169C120.064 13.4247 119.14 14.5467 118.485 15.9608L118.483 15.9638C117.833 17.3827 117.519 19.0006 117.519 20.7988C117.519 22.6168 117.833 24.2402 118.485 25.6476L118.486 25.6498L118.487 25.6521C119.146 27.0511 120.089 28.1523 121.311 28.9362ZM122.058 18.493H128.611C128.548 18.0577 128.428 17.6688 128.256 17.3209L128.255 17.3194L128.254 17.3179C127.987 16.7712 127.617 16.3494 127.139 16.0386L127.138 16.0376L127.136 16.0366C126.68 15.7365 126.127 15.5733 125.451 15.5733C124.718 15.5733 124.111 15.7637 123.602 16.1217L123.601 16.1223L123.601 16.1228C123.072 16.4924 122.667 16.9727 122.377 17.5731C122.236 17.8662 122.13 18.1724 122.058 18.493Z" fill="url(#paint4_linear_1_776)"/>
<path d="M138.493 28.8825L138.495 28.884L138.497 28.8854C139.717 29.7018 141.152 30.0941 142.77 30.0941C144.089 30.0941 145.272 29.8352 146.301 29.2908C147.321 28.7545 148.15 28.0088 148.771 27.0527C149.389 26.0996 149.756 25.019 149.876 23.8258L149.96 23.0009H145.667L145.542 23.5802C145.435 24.082 145.25 24.4876 145.001 24.8151L144.999 24.8181L144.996 24.8211C144.748 25.1532 144.441 25.4092 144.066 25.5925C143.7 25.7675 143.279 25.8618 142.791 25.8618C142.062 25.8618 141.459 25.6595 140.953 25.2751C140.444 24.8834 140.032 24.3192 139.729 23.5459C139.427 22.7765 139.264 21.8312 139.264 20.6904C139.264 19.5824 139.429 18.6618 139.735 17.9089L139.736 17.9068C140.045 17.1392 140.46 16.5859 140.967 16.208L140.968 16.2075L140.968 16.207C141.477 15.8263 142.075 15.6275 142.791 15.6275C143.628 15.6275 144.216 15.8674 144.634 16.2762L144.635 16.2776L144.637 16.2791C145.117 16.7444 145.412 17.2821 145.541 17.9044L145.663 18.4883H149.956L149.877 17.6665C149.757 16.4273 149.375 15.321 148.721 14.3677C148.079 13.4227 147.236 12.6939 146.208 12.1813C145.173 11.6582 144.012 11.4059 142.74 11.4059C141.158 11.4059 139.747 11.8002 138.536 12.6157C137.336 13.4237 136.411 14.5469 135.762 15.9636C135.112 17.375 134.797 18.9821 134.797 20.7663C134.797 22.5285 135.105 24.1227 135.74 25.5317C136.376 26.9438 137.294 28.0673 138.493 28.8825Z" fill="url(#paint5_linear_1_776)"/>
<path d="M156.36 29.229L156.072 30.075L156.071 30.0782C155.831 30.7626 155.583 31.1648 155.365 31.3742L155.363 31.3767L155.36 31.3792C155.144 31.5909 154.916 31.6903 154.653 31.7034C154.311 31.7205 153.891 31.6673 153.384 31.5223L152.724 31.3332L151.627 35.3128L152.187 35.578C152.446 35.7009 152.787 35.7926 153.173 35.8676C153.597 35.9575 154.055 36 154.544 36C155.462 36 156.301 35.834 157.044 35.4799C157.786 35.1263 158.421 34.5966 158.947 33.9037C159.465 33.229 159.879 32.4201 160.199 31.4906L160.199 31.4896L160.199 31.4887L166.971 11.6227H162.203L158.678 23.1451L155.153 11.6227H150.398L156.36 29.229Z" fill="url(#paint6_linear_1_776)"/>
<path fill-rule="evenodd" clip-rule="evenodd" d="M174.171 12.0176C173.638 12.3252 173.179 12.6872 172.81 13.1105V11.6227H168.444V36H172.881V28.4419C173.249 28.8442 173.699 29.1902 174.218 29.4859L174.219 29.4867L174.221 29.4875C174.956 29.9017 175.854 30.0833 176.874 30.0833C178.26 30.0833 179.516 29.7035 180.621 28.9317L180.622 28.9307L180.624 28.9297C181.726 28.1514 182.577 27.053 183.187 25.6662L183.188 25.6648C183.803 24.2576 184.096 22.6023 184.096 20.7229C184.096 18.8434 183.799 17.1904 183.176 15.7891C182.565 14.4007 181.708 13.3075 180.596 12.5435C179.486 11.7812 178.228 11.4059 176.844 11.4059C175.807 11.4059 174.899 11.5899 174.171 12.0176ZM178.034 25.2217C178.531 24.797 178.922 24.2108 179.195 23.4314L179.197 23.4264C179.48 22.6358 179.629 21.7273 179.629 20.6904C179.629 19.6673 179.484 18.7729 179.207 17.9966L179.206 17.9941L179.205 17.9916C178.94 17.2316 178.552 16.6629 178.052 16.2528L178.051 16.2516L178.049 16.2504C177.584 15.8645 176.982 15.6491 176.194 15.6491C175.44 15.6491 174.848 15.8536 174.378 16.2263C173.897 16.6137 173.513 17.1667 173.241 17.9227C172.966 18.6865 172.82 19.6041 172.82 20.6904C172.82 21.7904 172.969 22.7221 173.251 23.5004C173.53 24.2749 173.921 24.8452 174.407 25.2477C174.869 25.6236 175.451 25.8293 176.194 25.8293C176.971 25.8293 177.568 25.6129 178.034 25.2217Z" fill="url(#paint7_linear_1_776)"/>
<path d="M189.533 28.8825L189.536 28.884L189.538 28.8854C190.758 29.7018 192.192 30.0941 193.811 30.0941C195.129 30.0941 196.313 29.8352 197.342 29.2908C198.362 28.7545 199.191 28.0088 199.811 27.0527C200.43 26.0996 200.797 25.019 200.917 23.8258L201 23.0009H196.707L196.583 23.5802C196.475 24.082 196.291 24.4876 196.041 24.8151L196.039 24.8181L196.037 24.8211C195.789 25.1532 195.482 25.4092 195.106 25.5925C194.74 25.7675 194.319 25.8618 193.831 25.8618C193.102 25.8618 192.5 25.6595 191.994 25.2751C191.485 24.8834 191.072 24.3192 190.769 23.5459C190.468 22.7765 190.305 21.8312 190.305 20.6904C190.305 19.5824 190.47 18.6618 190.776 17.9089L190.776 17.9068C191.086 17.1392 191.501 16.5859 192.008 16.208L192.008 16.2075L192.009 16.207C192.517 15.8263 193.115 15.6275 193.831 15.6275C194.668 15.6275 195.257 15.8675 195.674 16.2762L195.676 16.2776L195.677 16.2791C196.158 16.7444 196.452 17.2821 196.582 17.9044L196.704 18.4883H200.997L200.917 17.6665C200.797 16.4273 200.415 15.321 199.761 14.3677C199.119 13.4227 198.276 12.6939 197.248 12.1813C196.214 11.6582 195.053 11.4059 193.78 11.4059C192.198 11.4059 190.788 11.8002 189.577 12.6157C188.377 13.4235 187.452 14.5462 186.803 15.9624C186.152 17.374 185.837 18.9816 185.837 20.7663C185.837 22.5285 186.145 24.1227 186.78 25.5317C187.416 26.9438 188.335 28.0673 189.533 28.8825Z" fill="url(#paint8_linear_1_776)"/>
<path fill-rule="evenodd" clip-rule="evenodd" d="M29.0742 0.000143441L19.7114 0L0 29.7582H9.31253L29.0742 0.000143441Z" fill="url(#paint9_linear_1_776)"/>
<path fill-rule="evenodd" clip-rule="evenodd" d="M48.3137 17.4637C45.2873 21.9529 40.0106 24.4225 34.8224 24.4225H24.6702L21.1268 29.7582H11.8143L31.5256 0C31.5256 0 35.8183 0.000124029 38.5977 0.000136631C39.3387 0.00013999 41.6655 0.000150558 43.7406 0.32053C46.8535 0.801158 48.9654 2.1496 50.2757 4.31734C51.6535 6.5967 51.7514 9.45978 50.7538 12.6088C50.6729 12.8641 50.5834 13.1017 50.492 13.3442L50.4918 13.3448C50.4521 13.45 50.4121 13.5561 50.3723 13.665C49.8127 15.0162 49.1224 16.2642 48.3137 17.4637ZM36.2922 6.87307L29.2697 17.4079H34.1595C38.0112 17.4079 40.1542 16.02 41.5752 14.3619C42.1624 13.6768 42.878 12.6798 43.2636 11.8388C43.7264 10.8295 44.0524 9.41175 43.4441 8.40249C42.9309 7.551 41.9755 7.02932 40.8308 6.9212C39.5575 6.80094 38.7774 6.82201 37.8233 6.84779C37.3745 6.85992 36.8873 6.87308 36.2922 6.87307Z" fill="url(#paint10_linear_1_776)"/>
<defs>
<linearGradient id="paint0_linear_1_776" x1="0" y1="18" x2="201" y2="18" gradientUnits="userSpaceOnUse">
<stop stop-color="#FF1D00"/>
<stop offset="1" stop-color="#FF6900"/>
</linearGradient>
<linearGradient id="paint1_linear_1_776" x1="0" y1="18" x2="201" y2="18" gradientUnits="userSpaceOnUse">
<stop stop-color="#FF1D00"/>
<stop offset="1" stop-color="#FF6900"/>
</linearGradient>
<linearGradient id="paint2_linear_1_776" x1="0" y1="18" x2="201" y2="18" gradientUnits="userSpaceOnUse">
<stop stop-color="#FF1D00"/>
<stop offset="1" stop-color="#FF6900"/>
</linearGradient>
<linearGradient id="paint3_linear_1_776" x1="0" y1="18" x2="201" y2="18" gradientUnits="userSpaceOnUse">
<stop stop-color="#FF1D00"/>
<stop offset="1" stop-color="#FF6900"/>
</linearGradient>
<linearGradient id="paint4_linear_1_776" x1="0" y1="18" x2="201" y2="18" gradientUnits="userSpaceOnUse">
<stop stop-color="#FF1D00"/>
<stop offset="1" stop-color="#FF6900"/>
</linearGradient>
<linearGradient id="paint5_linear_1_776" x1="0" y1="18" x2="201" y2="18" gradientUnits="userSpaceOnUse">
<stop stop-color="#FF1D00"/>
<stop offset="1" stop-color="#FF6900"/>
</linearGradient>
<linearGradient id="paint6_linear_1_776" x1="0" y1="18" x2="201" y2="18" gradientUnits="userSpaceOnUse">
<stop stop-color="#FF1D00"/>
<stop offset="1" stop-color="#FF6900"/>
</linearGradient>
<linearGradient id="paint7_linear_1_776" x1="0" y1="18" x2="201" y2="18" gradientUnits="userSpaceOnUse">
<stop stop-color="#FF1D00"/>
<stop offset="1" stop-color="#FF6900"/>
</linearGradient>
<linearGradient id="paint8_linear_1_776" x1="0" y1="18" x2="201" y2="18" gradientUnits="userSpaceOnUse">
<stop stop-color="#FF1D00"/>
<stop offset="1" stop-color="#FF6900"/>
</linearGradient>
<linearGradient id="paint9_linear_1_776" x1="0" y1="18" x2="201" y2="18" gradientUnits="userSpaceOnUse">
<stop stop-color="#FF1D00"/>
<stop offset="1" stop-color="#FF6900"/>
</linearGradient>
<linearGradient id="paint10_linear_1_776" x1="0" y1="18" x2="201" y2="18" gradientUnits="userSpaceOnUse">
<stop stop-color="#FF1D00"/>
<stop offset="1" stop-color="#FF6900"/>
</linearGradient>
</defs>
</svg>
