<svg width="144" height="66" viewBox="0 0 144 66" fill="none" xmlns="http://www.w3.org/2000/svg">
<path d="M51.6348 3.81148C48.4429 5.50627 45.2793 7.20105 44.5732 7.56825L43.3021 8.24617L54.5441 8.27441H65.758V6.74911V5.19555L62.4531 3.38778C60.6171 2.39916 58.7529 1.38229 58.2727 1.12807C57.4253 0.704374 57.3688 0.732621 51.6348 3.81148Z" fill="#161616"/>
<path d="M88.016 3.10542C88.7787 4.32001 90.3887 6.89044 91.6033 8.83944C92.8179 10.7884 94.2867 13.1046 94.9081 13.9803L95.9815 15.5903L98.3825 14.1215L100.755 12.6527L100.783 10.506V8.331L93.8913 4.63072C90.1063 2.59698 86.9144 0.930441 86.8297 0.930441C86.7449 0.930441 87.2816 1.91907 88.016 3.10542Z" fill="#161616"/>
<path d="M75.2483 6.69022L71.9152 8.44149L67.0851 16.2375C64.4017 20.5027 61.9443 24.5137 61.6053 25.1351L60.9556 26.265L62.3962 27.1689L63.8368 28.0728L67.7065 26.0673C69.825 24.9374 71.7458 23.8358 72 23.5816C72.4802 23.0731 80.8694 9.62784 81.6885 8.04604L82.1404 7.1704L80.6716 6.21003C79.8525 5.70159 79.0333 5.19316 78.8639 5.10842C78.7226 4.99543 77.0843 5.70159 75.2483 6.69022Z" fill="#161616"/>
<path d="M45.0532 16.5493L43.1606 17.7357L43.2171 20.8145L43.3019 23.9216L47.8213 26.3508C50.307 27.6784 53.4706 29.3732 54.8264 30.1076C56.6907 31.1245 57.2556 31.3222 57.0296 30.8985C56.7189 30.3336 49.1206 18.1876 47.9343 16.4081C47.5671 15.8149 47.1999 15.3347 47.1151 15.3347C47.0304 15.363 46.1265 15.8997 45.0532 16.5493Z" fill="#161616"/>
<path d="M81.5203 24.0054L80.1644 24.1184V26.0674V28.0164L83.3563 29.7677L86.5199 31.4907L87.5085 30.954C88.0452 30.6433 91.2088 28.9485 94.5136 27.2255C97.7902 25.4742 100.502 24.0054 100.502 23.9207C100.502 23.7795 83.441 23.8642 81.5203 24.0054Z" fill="#161616"/>
<path d="M78.6954 40.8691C74.176 42.1684 71.2666 45.0778 70.1367 49.3713C68.9504 53.9189 70.2497 58.8338 73.3568 61.7432C78.0457 66.1496 86.9434 66.1779 91.943 61.8279C93.553 60.4156 95.0501 57.3367 95.4173 54.6533C96.2647 48.4956 93.2988 43.2135 87.8755 41.2645C85.8135 40.5019 80.7009 40.3042 78.6954 40.8691ZM85.0509 45.8687C86.3784 46.2359 87.932 47.5635 88.7229 49.0605C89.5985 50.7271 89.6268 54.7946 88.7229 56.4329C86.0395 61.4325 78.6107 61.037 76.2945 55.7549C75.7295 54.4274 75.7013 51.0943 76.2662 49.7667C76.8876 48.3261 78.4412 46.6878 79.7405 46.0947C81.0116 45.5015 83.4126 45.4168 85.0509 45.8687Z" fill="#BDBDBD"/>
<path d="M9.71654 42.5092C9.51881 43.0176 7.2591 48.0737 4.74517 53.7512C2.23124 59.4288 0.112754 64.2872 0.028015 64.5414C-0.113217 65.0216 0.169247 65.0498 3.36109 65.0498L6.86365 65.0216L11.5243 62.3664L16.185 59.683H12.2587C9.26459 59.683 8.38896 59.5982 8.50194 59.3158C8.58668 59.1463 9.6318 56.4911 10.8181 53.4688C12.0045 50.4464 13.0779 47.8477 13.1908 47.7348C13.3038 47.6218 14.9421 51.435 16.8064 56.2087L20.2242 64.9086L23.529 64.9933C25.3933 65.0216 26.7774 64.9651 26.7209 64.8238C26.6926 64.6826 24.3482 59.4005 21.5518 53.0733L16.4957 41.6053H13.3038H10.112L9.71654 42.5092Z" fill="#BDBDBD"/>
<path d="M28.7552 53.3275V65.0498H35.6191H42.4829L44.0647 62.4229L45.6748 59.8242L40.1667 59.7395L34.6869 59.683V50.6441V41.6053H31.7211H28.7552V53.3275Z" fill="#BDBDBD"/>
<path d="M47.3976 53.3275V65.0498H50.3635H53.3293V55.8415V46.6331L56.4364 46.7461C59.4871 46.8309 59.5435 46.8591 60.4192 47.7065C61.0688 48.3562 61.3231 48.9211 61.4361 49.825C61.662 52.1694 59.939 53.7512 57.1144 53.7512C56.4082 53.7512 55.8715 53.8642 55.928 54.0055C55.9845 54.1467 57.3968 56.6889 59.1198 59.6547L62.1987 65.0498H65.3906C67.1418 65.0498 68.5824 64.9651 68.5824 64.8803C68.5824 64.7956 67.4808 62.8748 66.1532 60.6151L63.724 56.5194L64.7974 55.5025C66.3509 54.0055 66.9724 52.3389 67.0006 49.7402C67.0006 47.876 66.8594 47.3393 66.1532 45.927C65.6448 44.9384 64.8539 43.9497 64.1195 43.3848C62.0575 41.8312 60.7864 41.6053 53.6965 41.6053H47.3976V53.3275Z" fill="#BDBDBD"/>
<path d="M104.569 41.9997C101.264 42.7623 98.3262 44.8808 97.7613 46.8863C97.3376 48.3551 97.5353 50.7278 98.1567 51.9142C99.2583 54.0327 100.868 54.7953 106.405 55.8687C108.325 56.2359 110.19 56.7443 110.585 56.9985C111.489 57.5917 111.348 58.7216 110.303 59.5125C109.597 60.0209 109.116 60.1056 106.772 60.0774C104.512 60.0774 103.665 59.9362 101.913 59.3147C100.755 58.891 99.5973 58.4673 99.3431 58.3826C99.0041 58.2696 98.6651 58.7781 97.9025 60.4446L96.8856 62.6478L97.7613 63.0998C101.885 65.2465 109.258 65.7267 112.873 64.0601C115.867 62.7043 117.167 60.84 117.167 57.9872C117.167 55.8404 116.715 54.7106 115.331 53.5242C113.975 52.3096 113.579 52.1684 108.834 51.1515C104.173 50.1629 103.552 49.8522 103.665 48.5811C103.806 47.1405 105.162 46.5474 108.128 46.5756C110.331 46.6039 111.828 46.9428 114.116 47.9314C114.511 48.1009 114.794 47.762 115.585 46.1519C116.15 45.0503 116.602 43.9769 116.602 43.7792C116.602 43.3838 115.274 42.7906 113.071 42.1692C111.178 41.6607 106.489 41.576 104.569 41.9997Z" fill="#BDBDBD"/>
<path d="M122.392 53.0733C119.595 59.4005 117.251 64.6826 117.223 64.8238C117.166 64.9651 118.55 65.0216 120.414 64.9933L123.719 64.9086L127.137 56.2087C129.001 51.435 130.611 47.6218 130.724 47.7348C130.837 47.8477 131.911 50.4464 133.125 53.4688C134.312 56.4911 135.357 59.1463 135.442 59.3158C135.555 59.5982 134.679 59.683 131.685 59.683H127.759L132.419 62.3664L137.08 65.0216L140.554 65.0498C142.447 65.0498 144 64.9651 144 64.8238C144 64.7108 141.712 59.4853 138.944 53.1863L133.86 41.7465L130.668 41.6618L127.476 41.577L122.392 53.0733Z" fill="#BDBDBD"/>
</svg>
