<svg width="80" height="34" viewBox="0 0 80 34" fill="none" xmlns="http://www.w3.org/2000/svg">
<path d="M14.8506 0.150743C13.8992 0.286819 12.6188 0.595747 11.6895 0.912031C11.4361 0.996618 11.3739 1.0334 11.365 1.10695C11.3561 1.18051 11.405 1.22832 11.6317 1.36807C13.3568 2.4199 14.6195 4.29921 15.4019 6.96923C16.1844 9.63558 16.5623 12.9345 16.8691 19.7677C16.8958 20.3524 16.9269 20.9372 16.9403 21.0622L16.9669 21.2939H17.1626H17.3582V20.7864C17.3582 20.0693 17.2337 13.4457 17.2026 12.541C17.1892 12.1254 17.167 11.456 17.1581 11.0515C17.0025 6.09026 16.6201 3.02304 15.8866 0.790667C15.7843 0.485416 15.6909 0.202232 15.682 0.154421C15.6509 0.051445 15.5264 0.051445 14.8506 0.150743Z" fill="#BDBDBD"/>
<path d="M19.4802 0.154427C19.4669 0.202238 19.3558 0.562654 19.2357 0.956169C18.8845 2.06684 18.6711 3.05982 18.4755 4.50517C18.1109 7.14944 17.9731 10.3417 17.8219 19.4808L17.7908 21.2939H17.9953H18.1998L18.222 21.099C18.2354 20.9961 18.2665 20.426 18.2932 19.8412C18.351 18.5835 18.4621 16.443 18.4932 15.998C18.5021 15.8252 18.5244 15.5199 18.5377 15.3177C18.7244 12.4123 19.0401 9.94819 19.4536 8.14611C20.2138 4.81777 21.5699 2.56333 23.5305 1.36807C23.7573 1.22832 23.8062 1.18051 23.7973 1.10696C23.7884 1.0334 23.7262 0.996624 23.4727 0.912037C22.5569 0.59943 21.2453 0.283148 20.2761 0.147072C19.5914 0.0514507 19.5114 0.0514507 19.4802 0.154427Z" fill="#BDBDBD"/>
<path d="M7.94551 2.63885C7.15412 3.13535 6.51835 3.60242 5.73585 4.26808C4.69549 5.15441 4.67326 5.19855 5.25124 5.239C7.52314 5.40082 9.23484 6.02236 10.702 7.22129C13.0539 9.14474 14.5389 12.2855 15.5526 17.4674C15.7393 18.4163 15.9527 19.8285 16.0416 20.6781C16.0772 21.0201 16.1128 21.3033 16.1217 21.3106C16.1306 21.318 16.2239 21.3143 16.3306 21.3033L16.5218 21.2812L16.4951 20.8362C16.135 15.349 15.5437 11.3881 14.6901 8.788C13.6764 5.69136 12.0758 3.77895 9.66166 2.77493C9.25263 2.60208 8.52349 2.35199 8.44791 2.35199C8.42123 2.35567 8.19448 2.48439 7.94551 2.63885Z" fill="#BDBDBD"/>
<path d="M26.1831 2.51522C23.3465 3.50084 21.6482 5.3397 20.5144 8.65333C19.7986 10.7533 19.234 13.9971 18.8694 18.1308C18.7672 19.3334 18.6338 21.2569 18.656 21.2716C18.6605 21.2789 18.7538 21.2936 18.8561 21.3084C19.0784 21.3341 19.0428 21.4481 19.1806 20.2455C19.4341 17.9543 20.0209 15.2328 20.6923 13.2137C21.9683 9.38887 24.0001 6.93951 26.7699 5.88033C27.5925 5.56404 28.6595 5.33603 29.691 5.25879C29.9799 5.23673 30.2378 5.21098 30.2556 5.19995C30.3534 5.15214 30.2689 5.01974 29.9221 4.69978C29.4242 4.24007 28.5039 3.50084 27.9837 3.14411C27.3968 2.74323 26.7566 2.3534 26.6855 2.35707C26.6543 2.35707 26.4276 2.42695 26.1831 2.51522Z" fill="#BDBDBD"/>
<path d="M4.15363 7.13776C3.76683 7.17454 3.17996 7.26281 2.94433 7.31797C2.79761 7.35475 2.7576 7.3952 2.51751 7.75194C1.65054 9.04282 0.988093 10.4036 0.48125 11.9409C0.441236 12.0659 0.419006 12.1946 0.432344 12.2277C0.472358 12.3086 0.65909 12.2939 0.756901 12.2057C0.801361 12.1615 1.00143 12.0218 1.2015 11.8931C3.66902 10.2969 6.98573 10.422 9.80893 12.2167C10.3024 12.533 11.1738 13.2465 11.5962 13.6804C12.6855 14.8058 13.757 16.4792 14.3794 18.0128C14.6817 18.7741 15.0107 19.984 15.1886 21.0064L15.2419 21.3301H15.4553C15.6065 21.3301 15.6687 21.3154 15.6687 21.2786C15.6687 21.2492 15.6376 20.9917 15.602 20.7012C15.0018 15.9643 13.3924 12.11 11.0227 9.72688C9.61775 8.31463 7.96829 7.45405 6.15433 7.18557C5.6875 7.1157 4.60268 7.08995 4.15363 7.13776Z" fill="#BDBDBD"/>
<path d="M29.3838 7.13777C27.6632 7.31062 26.1515 7.97261 24.7377 9.1789C23.7996 9.98064 23.0927 10.8339 22.3369 12.0806C21.0787 14.1475 20.2339 16.5601 19.7404 19.4875C19.6426 20.0649 19.4915 21.1462 19.4915 21.2786C19.4915 21.3154 19.5537 21.3301 19.7049 21.3301H19.9138L20.0428 20.6571C20.3584 19.0168 20.7675 17.8583 21.4966 16.538C23.0705 13.6878 25.2223 11.8379 27.8366 11.0913C29.6861 10.5654 31.709 10.7162 33.274 11.4995C33.6252 11.6761 34.261 12.0696 34.4033 12.2057C34.5011 12.2976 34.6878 12.3086 34.7278 12.224C34.7634 12.1431 34.4255 11.1649 34.0921 10.4073C33.6653 9.42531 33.2207 8.61253 32.6427 7.75195C32.3937 7.37682 32.367 7.35475 32.1936 7.3143C31.4378 7.14512 30.1263 7.06421 29.3838 7.13777Z" fill="#BDBDBD"/>
<path d="M65.8654 9.06266C65.1674 9.22448 64.6517 9.65845 64.4649 10.2432C64.3805 10.5227 64.376 11.1369 64.4649 11.4127C64.7228 12.2329 65.5275 12.6962 66.599 12.6411C67.0658 12.619 67.4082 12.5234 67.7016 12.3395C67.995 12.1556 68.0884 12.0085 68.0884 11.7364V11.512H67.7194H67.3459L67.2392 11.6481C67.0392 11.9055 66.5723 12.0195 66.1277 11.9166C65.9143 11.8688 65.6253 11.6555 65.5142 11.4642C65.2163 10.953 65.3586 10.1513 65.7943 9.88279C66.0299 9.73568 66.1944 9.70259 66.5501 9.7173C66.9191 9.73201 67.0614 9.79085 67.2214 9.9968C67.3104 10.1108 67.3148 10.1108 67.7016 10.1145H68.0884V9.9306C68.0884 9.52238 67.666 9.17299 67.0214 9.05163C66.7502 9.00014 66.11 9.0075 65.8654 9.06266Z" fill="#BDBDBD"/>
<path d="M44.8772 10.8307V12.5776H45.3618H45.8464L46.66 11.4927C47.1091 10.8969 47.4914 10.4078 47.5137 10.4078C47.5315 10.4078 47.5448 10.8969 47.5448 11.4927V12.5776H48.0116H48.4784V10.8307V9.0838H48.0027L47.5226 9.08748L46.7001 10.1871L45.8775 11.2868L45.8642 10.1834L45.8553 9.0838H45.3663H44.8772V10.8307Z" fill="#BDBDBD"/>
<path d="M49.4131 10.827V12.5776H49.9021H50.3912V12.0076V11.4375H50.7602C51.356 11.4375 51.7695 11.3051 52.0762 11.0109C52.3208 10.7829 52.4097 10.577 52.4097 10.2423C52.4141 9.74947 52.1563 9.41112 51.6183 9.20517C51.3515 9.10219 51.3338 9.10219 50.3823 9.09116L49.4131 9.07645V10.827ZM51.1292 9.81935C51.3649 9.91497 51.4805 10.0952 51.4449 10.3085C51.396 10.6137 51.1248 10.7756 50.6713 10.7756H50.3912V10.2607V9.74579H50.6669C50.8536 9.74579 51.0003 9.77154 51.1292 9.81935Z" fill="#BDBDBD"/>
<path d="M53.0613 10.8307V12.5776H53.5503H54.035L54.0261 11.8605C54.0216 11.467 54.0261 11.1433 54.0394 11.1433C54.0527 11.1433 54.3995 11.467 54.813 11.8605L55.5644 12.5776H56.0001H56.4402V12.3938V12.2062L55.6844 11.4964C55.2709 11.1029 54.9286 10.7719 54.9286 10.7572C54.9286 10.7461 55.2309 10.4482 55.5955 10.0952L56.2624 9.45525V9.27137V9.0838H55.8711H55.4843L54.7774 9.78257C54.3862 10.1651 54.0572 10.4813 54.0438 10.4813C54.0305 10.4813 54.0216 10.1687 54.0261 9.78257L54.035 9.0838H53.5503H53.0613V10.8307Z" fill="#BDBDBD"/>
<path d="M56.7048 9.26401C56.7048 9.42583 56.7715 9.5472 57.3762 10.474L58.0431 11.5074L57.7985 11.8605C57.5896 12.1584 57.5496 12.243 57.5496 12.3974V12.5776H57.9408H58.3321L59.3191 11.0256C60.2438 9.56926 60.3061 9.45893 60.3061 9.27872V9.0838H59.9282H59.5503L59.0834 9.85613C58.8256 10.2791 58.6033 10.6284 58.581 10.6284C58.5633 10.6284 58.3321 10.2791 58.0653 9.85613L57.5762 9.0838H57.1405H56.7048V9.26401Z" fill="#BDBDBD"/>
<path d="M60.686 9.4148V9.74579H61.2774H61.8642V11.1617V12.5776H62.3533H62.8423L62.8512 11.1691L62.8646 9.76418L63.4559 9.75315L64.0428 9.74212V9.4148V9.0838H62.3666H60.686V9.4148Z" fill="#BDBDBD"/>
<path d="M68.7546 10.8307V12.5776H69.2437H69.7328V11.8605C69.7328 11.467 69.7461 11.1433 69.7683 11.147C69.7861 11.147 70.1373 11.4706 70.5508 11.8642L71.2977 12.5776H71.729H72.1558L72.1336 12.3643L72.1114 12.151L71.4 11.478C71.0088 11.1102 70.6842 10.7903 70.6753 10.7719C70.6664 10.7535 70.9598 10.4482 71.3289 10.0915C71.9958 9.4479 72.0002 9.44422 72.0002 9.26401V9.0838H71.609H71.2133L70.5064 9.78257C70.1196 10.1651 69.7861 10.4813 69.7683 10.4813C69.7461 10.4813 69.7328 10.1651 69.7328 9.78257V9.0838H69.2437H68.7546V10.8307Z" fill="#BDBDBD"/>
<path d="M73.9055 9.1831C73.8789 9.23827 73.5588 9.94439 73.1942 10.7498C72.6651 11.9156 72.5317 12.2466 72.5317 12.3938V12.5776H72.923H73.3098L73.4654 12.2172L73.621 11.8605L74.4035 11.8494L75.186 11.8421L75.2571 11.9966C75.2971 12.0848 75.3727 12.2503 75.4216 12.3643L75.515 12.5776H75.9374H76.3553L76.3508 12.3643C76.3508 12.1841 76.2486 11.934 75.6484 10.6284L74.9504 9.10219L74.4524 9.09116L73.9545 9.08013L73.9055 9.1831ZM74.7147 10.6726L74.9281 11.1801H74.4213C74.1412 11.1801 73.91 11.1727 73.91 11.1654C73.91 11.147 74.2968 10.2349 74.3635 10.0989L74.4168 9.9922L74.4569 10.0805C74.4791 10.1283 74.5947 10.3968 74.7147 10.6726Z" fill="#BDBDBD"/>
<path d="M77.9721 9.12498C77.1585 9.27576 76.7228 10.0113 77.0607 10.6476C77.1362 10.7836 77.4297 11.0374 77.6164 11.1257C77.6875 11.1588 77.6431 11.2213 77.2474 11.6736C76.8117 12.1701 76.7983 12.1885 76.7983 12.3834V12.582L77.2074 12.571L77.6164 12.56L78.1277 11.9458L78.6434 11.3316L78.8346 11.3279H79.0213V11.9531V12.5784H79.5104H79.9995V10.8314V9.08452L79.0791 9.0882C78.5678 9.09188 78.0743 9.10659 77.9721 9.12498ZM79.0658 10.2062V10.6659H78.7012C78.2789 10.6659 78.1544 10.6255 78.0121 10.449C77.8876 10.2945 77.8832 10.1327 77.9988 9.97453C78.1232 9.80903 78.31 9.75019 78.7235 9.74651H79.0658V10.2062Z" fill="#BDBDBD"/>
<path d="M4.73315 12.8492C3.51939 13.0294 2.39456 13.4303 1.39866 14.0444C1.21637 14.1548 0.842909 14.4306 0.567258 14.6549L0.0737536 15.0595L0.0337397 15.464C-0.0196121 16.0782 -0.00627415 18.0826 0.0559697 18.6453C0.140443 19.3698 0.269377 20.0943 0.424987 20.76C0.602826 21.5029 0.611718 21.5212 0.762881 21.5065C0.869585 21.4955 0.882923 21.4771 0.958505 21.1572C1.49647 18.9579 3.88841 17.1632 6.75607 16.8101C8.1699 16.6372 9.77045 16.8138 10.8464 17.2588C11.62 17.5787 12.4958 18.215 13.0605 18.8659C13.4651 19.3367 13.9186 20.098 14.172 20.7269C14.2876 21.0137 14.3809 21.2748 14.3809 21.3079C14.3809 21.3558 14.4254 21.3668 14.6032 21.3668C14.7811 21.3668 14.8255 21.3558 14.8255 21.3043C14.8255 21.2712 14.7633 20.999 14.6922 20.7011C14.0919 18.2812 12.687 16.0378 10.8419 14.563C10.1795 14.0371 9.63262 13.7135 8.89014 13.4045C8.27215 13.1508 7.84089 13.022 7.22735 12.9007C6.7294 12.8051 5.23999 12.7756 4.73315 12.8492Z" fill="#BDBDBD"/>
<path d="M28.361 12.8383C26.2225 13.1104 24.3374 14.2027 22.8125 16.0526C21.7276 17.3692 20.954 18.8881 20.4961 20.6019C20.4383 20.8299 20.3716 21.0947 20.3538 21.1904L20.3271 21.3669H20.5406H20.7584L20.9051 20.9513C21.6031 18.9874 23.1993 17.5237 25.2311 16.9757C25.9824 16.7734 26.4715 16.7146 27.3607 16.7146C28.5211 16.7183 29.3792 16.8764 30.4284 17.2883C32.4113 18.068 33.9052 19.6016 34.2164 21.183C34.2787 21.4919 34.2787 21.4956 34.412 21.4956C34.5365 21.4956 34.5454 21.4846 34.6165 21.2382C34.8522 20.4438 35.0656 19.1823 35.1456 18.1121C35.1945 17.4391 35.1767 15.9128 35.1101 15.3207L35.0834 15.067L34.7455 14.7727C33.6518 13.8276 32.2824 13.184 30.7752 12.9045C30.3039 12.8162 28.8368 12.7757 28.361 12.8383Z" fill="#BDBDBD"/>
<path d="M54.3054 15.0547V15.2129L54.0075 15.2533C53.5984 15.3085 53.1094 15.5144 52.8915 15.7241C52.1535 16.4118 52.3669 17.4489 53.3317 17.905C53.554 18.0079 53.7452 18.0594 54.1409 18.1109C54.3054 18.133 54.3054 18.133 54.3054 18.3132V18.4971H54.7944H55.2835V18.3132V18.133L55.4524 18.1109C56.4394 17.9859 57.0574 17.482 57.0974 16.7649C57.1463 15.9852 56.555 15.3968 55.5858 15.2607L55.2835 15.2165V15.0547V14.8929H54.7944H54.3054V15.0547ZM54.3054 16.6803V17.4747L54.1631 17.4489C53.9319 17.4085 53.6562 17.2577 53.5451 17.1142C53.3939 16.912 53.3761 16.5295 53.5051 16.3125C53.6429 16.0735 53.9363 15.9006 54.2298 15.8896C54.3009 15.8859 54.3054 15.9484 54.3054 16.6803ZM55.6881 15.9815C55.8926 16.0661 56.0749 16.2721 56.1282 16.4854C56.2527 16.9414 55.9504 17.3533 55.4302 17.4489L55.2835 17.4747V16.6766V15.8785L55.4302 15.9043C55.5058 15.919 55.6258 15.9521 55.6881 15.9815Z" fill="#BDBDBD"/>
<path d="M44.8772 16.6779V18.4248H45.3663H45.8553V17.7076V16.9905H46.6556H47.4559V17.7076V18.4248H47.9449H48.434V16.6779V14.931H47.9449H47.4559V15.6114V16.2917H46.6556H45.8553V15.6114V14.931H45.3663H44.8772V16.6779Z" fill="#BDBDBD"/>
<path d="M49.3247 16.6779V18.4248H50.6807H52.0368V18.0938V17.7628L51.1831 17.7555L50.3251 17.7444L50.3117 17.3472L50.2984 16.9537H51.0586H51.8145V16.6411V16.3285L51.072 16.3211L50.3251 16.3101L50.3117 15.9681L50.2984 15.6297H51.1698H52.0368V15.2804V14.931H50.6807H49.3247V16.6779Z" fill="#BDBDBD"/>
<path d="M57.298 15.2693L57.3068 15.6114L57.8982 15.6224L58.485 15.6334V17.0273V18.4248H58.9741H59.4631V17.0273V15.6297H60.0634H60.6636V15.2804V14.931H58.9785H57.2891L57.298 15.2693Z" fill="#BDBDBD"/>
<path d="M62.217 14.9825C61.8836 15.056 61.6924 15.1516 61.4879 15.3392C61.2656 15.5452 61.1722 15.7695 61.1811 16.0931C61.1855 16.4499 61.4256 16.7882 61.7813 16.939C61.848 16.9684 61.9058 17.0052 61.9058 17.0199C61.9014 17.0346 61.7013 17.27 61.4612 17.5422C61.0344 18.0203 61.0166 18.046 61.0166 18.2299V18.4248H61.4301L61.8391 18.4211L62.3548 17.8069L62.8661 17.1928H63.0662H63.2618L63.2752 17.8069L63.2841 18.4248H63.7509H64.2177V16.6779V14.931L63.3196 14.9347C62.7461 14.9347 62.3415 14.953 62.217 14.9825ZM63.2752 16.06L63.2618 16.5308L63.0618 16.5418C62.7061 16.5639 62.4793 16.5161 62.3237 16.3873C62.137 16.2329 62.0925 16.0527 62.1992 15.8688C62.3059 15.6775 62.5416 15.5966 62.9639 15.593H63.2885L63.2752 16.06Z" fill="#BDBDBD"/>
<path d="M65.1516 16.6779V18.4248H65.6407H66.1297V17.7076V16.9905H66.93H67.7303V17.7076V18.4248H68.2193H68.7084V16.6779V14.931H68.2193H67.7303V15.6114V16.2917H66.93H66.1297V15.6114V14.931H65.6407H65.1516V16.6779Z" fill="#BDBDBD"/>
<path d="M69.9844 16.491C69.4464 17.6826 69.2775 18.0982 69.2731 18.2416L69.2642 18.4292L69.6643 18.4182L70.06 18.4071L70.2112 18.0467L70.3668 17.69L71.1493 17.6973L71.9318 17.7084L72.0874 18.0651L72.243 18.4255H72.6787H73.1099V18.2453C73.1099 18.1019 72.9677 17.7488 72.3986 16.5094C72.0073 15.6562 71.6872 14.9501 71.6872 14.9427C71.6872 14.939 71.4605 14.9317 71.1893 14.9317H70.6869L69.9844 16.491ZM71.4116 16.4285C71.5405 16.7301 71.6428 16.9839 71.6428 16.9986C71.6428 17.017 71.4249 17.028 71.1537 17.028C70.8869 17.028 70.6646 17.017 70.6646 16.9986C70.6646 16.9508 71.1315 15.8879 71.1537 15.8879C71.167 15.8879 71.2826 16.1306 71.4116 16.4285Z" fill="#BDBDBD"/>
<path d="M74.7108 14.9905C74.1106 15.1229 73.7638 15.4429 73.706 15.921C73.6527 16.3403 73.8483 16.708 74.244 16.914L74.4396 17.017L73.9861 17.5282C73.5593 18.0099 73.5371 18.0504 73.5282 18.2343L73.5193 18.4292L73.9417 18.4182L74.3685 18.4071L74.8753 17.8003L75.3822 17.1935L75.5822 17.1825L75.7778 17.1714V17.7966V18.4255H76.2669H76.756V16.6786V14.9317L75.8579 14.9354C75.2132 14.9354 74.8842 14.9501 74.7108 14.9905ZM75.7778 16.0718V16.5499H75.48C74.9153 16.5462 74.6308 16.355 74.6797 16.0093C74.7197 15.715 74.9331 15.6047 75.48 15.5974L75.7778 15.5937V16.0718Z" fill="#BDBDBD"/>
<path d="M50.0419 20.7646C48.8326 20.9779 48.1835 21.9746 48.5258 23.0779C48.7792 23.8943 49.4995 24.3467 50.5532 24.3467C51.3179 24.3467 51.8781 24.115 52.2649 23.6369C52.5272 23.3059 52.625 23.0117 52.625 22.5262C52.625 21.9047 52.4472 21.5185 51.9981 21.1728C51.718 20.9558 51.3135 20.794 50.9267 20.7462C50.5576 20.6947 50.3931 20.6984 50.0419 20.7646ZM51.0467 21.5075C51.4468 21.6767 51.6602 22.0334 51.6558 22.5262C51.6558 22.8793 51.5936 23.0705 51.4024 23.3022C51.0111 23.7877 50.1308 23.7987 49.6951 23.3243C49.4195 23.0264 49.3394 22.5372 49.4862 22.0959C49.5795 21.8238 49.8685 21.5443 50.1397 21.4633C50.3887 21.3861 50.8066 21.4082 51.0467 21.5075Z" fill="#BDBDBD"/>
<path d="M44.8772 22.5448V24.3101H45.3663H45.8553L45.8642 23.5819L45.8775 22.85L46.6467 23.5819L47.4159 24.3101H47.8382H48.2561V24.1078V23.9092L47.6026 23.2913C47.2469 22.953 46.9046 22.6293 46.8423 22.5742L46.7312 22.4749L47.407 21.8276L48.0783 21.1803V20.978V20.7794H47.7048H47.3314L46.6022 21.4966L45.8775 22.2138L45.8642 21.4966L45.8553 20.7794H45.3663H44.8772V22.5448Z" fill="#BDBDBD"/>
<path d="M53.3351 22.5325L53.3484 24.2904L53.8063 24.3015L54.2598 24.3125V23.1798C54.2598 22.5141 54.2776 22.0654 54.2998 22.0838C54.3221 22.1059 54.5266 22.4479 54.7533 22.8451L55.1668 23.5733H55.4825H55.8026L56.2472 22.8083L56.6962 22.047L56.7007 23.1761L56.7051 24.3088H57.1942H57.6832V22.5435V20.7782H57.0964L56.5051 20.7819L56.016 21.6498L55.5314 22.5178L55.3046 22.1353C55.1801 21.9257 54.9534 21.5321 54.8022 21.2637L54.5221 20.7782H53.9264H53.3262L53.3351 22.5325Z" fill="#BDBDBD"/>
<path d="M58.6162 22.5435V24.3125L59.0964 24.3015L59.5721 24.2904L59.5854 22.8819L59.5943 21.477H60.3501H61.106L61.1149 22.8819L61.1282 24.2904L61.6084 24.3015L62.0841 24.3125V22.5435V20.7782H60.3501H58.6162V22.5435Z" fill="#BDBDBD"/>
<path d="M64.0055 20.9695C62.7029 23.8344 62.6628 23.93 62.6628 24.1213V24.3125L63.0496 24.3015L63.4409 24.2904L63.5965 23.93L63.7521 23.5733L64.5479 23.5806L65.3438 23.5917L65.4994 23.9484L65.655 24.3088H66.0685H66.4864V24.0955C66.4864 23.9043 66.3975 23.6873 65.7795 22.3376L65.0726 20.7966L64.5835 20.7856L64.0944 20.7745L64.0055 20.9695ZM64.8103 22.3045C64.9258 22.5656 65.0192 22.8046 65.0281 22.8304C65.037 22.8672 64.9303 22.8782 64.5657 22.8782C64.299 22.8782 64.0767 22.8782 64.0633 22.8745C64.05 22.8745 64.299 22.2567 64.5124 21.7712C64.5479 21.694 64.5702 21.7381 64.8103 22.3045Z" fill="#BDBDBD"/>
<path d="M67.063 22.5448V24.3101H67.552H68.0411V23.5745V22.839H68.8414H69.6417V23.5745V24.3101H70.1307H70.6198V22.5448V20.7794H70.1307H69.6417V21.4598V22.1402H68.8414H68.0411V21.4598V20.7794H67.552H67.063V22.5448Z" fill="#BDBDBD"/>
<path d="M71.5172 22.5337L71.5305 24.2917H72.0151H72.4953L73.3267 23.1994L74.1537 22.1034L74.167 23.2067L74.1759 24.3101H74.665H75.154V22.5448V20.7794H74.6738H74.1981L73.3756 21.8828C72.9221 22.4859 72.5398 22.9824 72.522 22.9861C72.4998 22.9861 72.4864 22.4896 72.4864 21.8828V20.7794H71.9974H71.5083L71.5172 22.5337Z" fill="#BDBDBD"/>
<path d="M77.1249 20.8187C76.8404 20.8628 76.5647 20.9731 76.3647 21.1239C75.7823 21.5616 75.889 22.4884 76.5514 22.7826C76.6403 22.823 76.7115 22.8635 76.7115 22.8745C76.7115 22.8855 76.5114 23.1172 76.2669 23.3894C75.8312 23.8785 75.8267 23.8896 75.8223 24.0955V24.3088H76.218H76.6137L77.1383 23.6836L77.6629 23.0584H77.8541H78.0453L78.0542 23.6726L78.0675 24.2904L78.5477 24.3015L79.0234 24.3125V22.5435V20.7782L78.1697 20.7819C77.6985 20.7856 77.2272 20.8003 77.1249 20.8187ZM78.0897 21.9367V22.3964H77.7785C77.2139 22.3964 76.9604 22.2456 76.9604 21.9036C76.9604 21.7455 76.9782 21.7124 77.1249 21.602C77.285 21.4807 77.2939 21.477 77.6896 21.477H78.0897V21.9367Z" fill="#BDBDBD"/>
<path d="M15.0268 22.6943C13.9954 22.7494 12.9906 22.8377 12.9283 22.8782C12.8438 22.937 12.8394 33.3265 12.9283 33.3854C13.0528 33.47 14.4889 33.7458 15.2491 33.8304C16.0716 33.9223 16.4851 33.9444 16.5429 33.9039C16.5963 33.8709 16.6051 33.4847 16.6051 31.7341V29.6047H17.6055H18.6058V31.7378C18.6058 33.7385 18.6103 33.8709 18.6859 33.9039C18.9304 34.0106 22.0026 33.5399 22.2782 33.3523C22.3671 33.2934 22.3716 22.9407 22.2827 22.8818C22.1893 22.8156 19.824 22.6538 18.9793 22.6538C18.7303 22.6538 18.6547 22.6648 18.6325 22.7127C18.6192 22.7458 18.6058 23.6063 18.6058 24.6251V26.4786H17.6055H16.6051L16.5963 24.5736L16.5829 22.6722L16.0939 22.6685C15.8271 22.6648 15.3469 22.6759 15.0268 22.6943Z" fill="#161616"/>
<path d="M11.1748 23.0401C10.001 23.1983 7.76024 23.5992 7.66687 23.669C7.65354 23.6801 7.28452 24.3126 6.84437 25.0739C6.04854 26.4494 6.03964 26.4604 5.89737 26.4715L5.7551 26.4825V25.3865C5.7551 24.2648 5.74621 24.1986 5.58615 24.1986C5.55058 24.1986 5.14155 24.3237 4.67473 24.4781C3.62103 24.8238 2.38504 25.3093 2.34503 25.3976C2.27389 25.5483 3.48765 27.207 4.41686 28.2257C5.27493 29.1746 6.70654 30.4507 6.90216 30.4507C6.98664 30.4507 7.07111 30.3331 7.49793 29.6233C7.99588 28.7994 8.00032 28.7958 8.14259 28.7958H8.28931V30.1271V31.4621L8.68056 31.6865C9.48528 32.1572 10.7391 32.7236 11.5616 32.9994C12.0284 33.1539 11.9795 33.7166 11.9795 28.0308C11.9795 23.0916 11.975 22.9335 11.8505 22.9519C11.8328 22.9519 11.5304 22.9923 11.1748 23.0401Z" fill="#161616"/>
<path d="M23.309 23.0073C23.2868 23.022 23.2734 25.2727 23.2734 28.0126C23.2734 32.4811 23.2823 32.9923 23.3446 33.0143C23.5491 33.0768 25.5142 32.2236 26.5412 31.6205L26.9414 31.3851L26.9547 30.4988C26.9681 29.4764 26.9236 29.5536 27.4438 29.6051C27.9284 29.6566 28.3685 29.8 28.6531 29.9986L28.7998 30.1016L29.2889 29.6786C30.1469 28.9321 31.1873 27.8692 31.1873 27.7368C31.1873 27.6559 30.7427 27.3617 30.307 27.1557C30.2981 27.152 30.556 26.6997 30.8761 26.148C31.1917 25.5964 31.4541 25.1146 31.4541 25.0778C31.4541 24.9344 29.0132 23.9009 28.822 23.9598C28.7687 23.9782 27.3637 26.2988 27.3282 26.4275C27.3193 26.4606 27.2526 26.479 27.1637 26.479H27.017L26.9992 25.0447C26.9903 23.8311 26.9769 23.6067 26.9191 23.5626C26.8436 23.5037 25.7721 23.3015 24.6428 23.136C23.7847 23.0073 23.3535 22.9668 23.309 23.0073Z" fill="#161616"/>
</svg>
