<svg width="180" height="38" viewBox="0 0 180 38" fill="none" xmlns="http://www.w3.org/2000/svg">
<path d="M54.7927 9.12368V28.7682H59.198V13.0667H69.7134V28.7682H74.154V9.12368H54.7927ZM81.8622 18.9639C81.8622 14.9141 84.7396 12.4625 88.434 12.4625C92.1292 12.4625 95.0058 14.9141 95.0058 18.9639C95.0058 23.0135 92.1291 25.4648 88.434 25.4648C84.7396 25.4648 81.8622 23.0136 81.8622 18.9639ZM99.4459 18.9639C99.4459 12.7823 94.4015 8.66162 88.434 8.66162C82.4665 8.66162 77.4221 12.7823 77.4221 18.9639C77.4221 25.1454 82.4665 29.2661 88.434 29.2661C94.4015 29.2661 99.4459 25.1454 99.4459 18.9639ZM107.51 9.12368L104.881 23.1909C104.668 24.2564 103.993 24.7183 102.963 24.7183H100.832V28.7682H103.176C106.409 28.7682 108.576 27.2405 109.215 23.7592L111.205 13.1012H118.735V28.7677H123.176V9.12321L107.51 9.12368ZM127.439 9.12368V28.7682H131.809V20.4559H134.793C135.467 26.104 139.978 29.2661 145.45 29.2661C151.382 29.2661 156.178 25.5359 156.178 18.9639C156.178 12.3921 151.382 8.66162 145.45 8.66162C140.3 8.66162 136.001 11.4684 134.97 16.4769H131.809V9.12415L127.439 9.12368ZM139.127 18.9639C139.127 14.9141 141.295 12.4625 145.45 12.4625C149.607 12.4625 151.774 14.9141 151.774 18.9639C151.774 23.0135 149.607 25.4648 145.45 25.4648C141.295 25.4648 139.127 23.0136 139.127 18.9639ZM179.766 13.9195C177.741 10.4732 174.403 8.66162 169.82 8.66162C163.638 8.66162 158.842 12.6054 158.842 18.9639C158.842 25.3226 163.532 29.2661 169.82 29.2661C174.403 29.2661 177.742 27.4545 179.766 24.0087L176.32 22.0191C174.828 24.1507 172.875 25.3228 169.748 25.3228C165.912 25.3228 163.248 22.7651 163.248 18.9641C163.248 15.0919 165.805 12.6059 169.748 12.6059C172.875 12.6059 174.828 13.778 176.32 15.9091L179.766 13.9201" fill="#BDBDBD"/>
<path d="M23.0902 0.575765L20.7683 14.5267C20.7135 14.8587 20.356 15.0081 20.0439 14.8868L13.0654 12.1905C12.2015 11.8567 11.9126 11.2078 12.0314 10.4908L13.5176 1.56296C13.6374 0.84748 14.1201 0.326793 15.0466 0.290792L22.5217 -6.22194e-05C22.8566 -0.0123932 23.1459 0.244341 23.0902 0.575765ZM3.05605 10.6201L15.6209 17.1121C15.9192 17.2664 15.9522 17.6525 15.7412 17.9124L11.0322 23.7263C10.4494 24.4458 9.74377 24.5218 9.0983 24.1884L1.0572 20.0341C0.412262 19.7003 0.0660978 19.081 0.315599 18.1885L2.33381 10.9846C2.42405 10.6611 2.75774 10.4659 3.05605 10.6201ZM6.41762 32.7218L16.4884 22.7924C16.7281 22.5562 17.1047 22.645 17.2872 22.9266L21.3522 29.2059C21.8557 29.984 21.7088 30.6788 21.1919 31.1892L14.7468 37.5431C14.2295 38.0531 13.5332 38.1902 12.7621 37.6754L6.54037 33.5215C6.26134 33.3356 6.17894 32.958 6.41762 32.7218ZM28.5949 36.3238L22.1894 23.7141C22.0371 23.4143 22.2362 23.083 22.5593 22.9946L29.7765 21.0268C30.6704 20.7832 31.2877 21.1337 31.6166 21.7817L35.7153 29.8507C36.0441 30.4987 35.9637 31.2037 35.2399 31.7826L29.3933 36.4502C29.1309 36.6593 28.7462 36.6231 28.5949 36.3238ZM38.7938 16.5237L24.8074 18.6238C24.475 18.673 24.2231 18.3797 24.2413 18.0453L24.651 10.5749C24.7019 9.65041 25.2294 9.17517 25.9479 9.06717L34.8975 7.7239C35.6159 7.61545 36.2599 7.91474 36.5804 8.78403L39.1656 15.8046C39.2811 16.1193 39.1263 16.4739 38.7938 16.5237Z" fill="#161616"/>
</svg>
