<svg width="226" height="54" viewBox="0 0 226 54" fill="none" xmlns="http://www.w3.org/2000/svg">
<path d="M51.5752 0.755859H0.736938V53.234H51.5752V0.755859Z" stroke="#1D1D1B" stroke-width="0.157544" stroke-miterlimit="22.9256"/>
<path fill-rule="evenodd" clip-rule="evenodd" d="M-0.00341797 53.9991H52.3236V0.000488281H-0.00341797V53.9991ZM2.22041 51.7035V2.28792H50.0918V51.7035H2.22041Z" fill="#BDBDBD"/>
<path fill-rule="evenodd" clip-rule="evenodd" d="M26.3196 12.9855C25.6291 12.7931 25.2405 11.9827 25.4479 11.1778C25.6238 10.4921 26.1778 10.0286 26.7659 10.0259V8.41062L31.2845 3.74902H21.0239L25.545 8.41062V9.22368C24.4528 9.50555 23.6441 10.5246 23.6441 11.7415C23.6441 12.6088 24.0537 13.3758 24.6839 13.8473L10.8945 22.1162H14.46L25.545 14.262C25.7393 14.3135 25.9441 14.3379 26.1542 14.3379C26.3668 14.3379 26.5716 14.3135 26.7659 14.262L37.8509 22.1162H41.4164L27.6271 13.8473C28.2546 13.3758 28.6668 12.6088 28.6668 11.7415C28.6668 11.4515 28.6195 11.1723 28.5355 10.9094H27.9973C28.0183 11.1073 27.9973 11.6656 27.9422 11.8743C27.7374 12.6792 27.0101 13.1779 26.3196 12.9855Z" fill="#BDBDBD"/>
<path fill-rule="evenodd" clip-rule="evenodd" d="M4.13306 32.9975V23.3789H11.3402V32.9975L8.88791 32.9948V25.8777H6.59319V32.9948L4.13306 32.9975Z" fill="#BDBDBD"/>
<path fill-rule="evenodd" clip-rule="evenodd" d="M15.1583 25.828H14.5807V27.4541H15.182C15.5574 27.3864 15.7701 27.1289 15.8226 26.679C15.8173 26.1884 15.5942 25.9066 15.1583 25.828ZM15.7622 29.7117C18.9155 29.3486 19.5299 23.9064 15.8278 23.3806L12.1626 23.3779L12.1705 32.9884H14.6149L14.6227 29.7253L15.7622 29.7117Z" fill="#BDBDBD"/>
<path fill-rule="evenodd" clip-rule="evenodd" d="M24.0737 25.6166C25.4049 25.6166 26.484 26.763 26.484 28.1805C26.484 29.5979 25.4049 30.747 24.0737 30.747C22.7399 30.747 21.6609 29.5979 21.6609 28.1805C21.6609 26.763 22.7399 25.6166 24.0737 25.6166ZM24.0737 23.3779C26.8174 23.3779 29.0386 25.5298 29.0386 28.1805C29.0386 30.8338 26.8148 32.983 24.0737 32.983C21.33 32.983 19.1062 30.8338 19.1062 28.1805C19.1062 25.5298 21.33 23.3779 24.0737 23.3779Z" fill="#BDBDBD"/>
<path fill-rule="evenodd" clip-rule="evenodd" d="M33.2647 26.847H33.4327V29.5329L33.262 29.5247C32.7579 29.2916 32.477 28.839 32.4166 28.1642C32.4718 27.5029 32.7553 27.0638 33.2647 26.847ZM36.0399 26.8416L35.8745 26.8443V29.5301L36.0451 29.5193C36.5492 29.2862 36.8302 28.8336 36.8905 28.1588C36.8354 27.4975 36.5518 27.0584 36.0399 26.8416ZM35.8797 24.2831C37.9854 24.733 39.5397 26.3077 39.5397 28.1832C39.5397 30.0586 37.9854 31.6333 35.8797 32.0805V32.9992H33.4248V32.0805C31.3192 31.6333 29.7622 30.0586 29.7622 28.1832C29.7622 26.3077 31.3192 24.733 33.4248 24.2831V23.3779H35.8797V24.2831Z" fill="#BDBDBD"/>
<path fill-rule="evenodd" clip-rule="evenodd" d="M40.3606 23.3789V32.9894H42.763L45.8112 27.699V32.9894H48.1926V23.3789H45.8086L42.7525 28.6855V23.3789H40.3606Z" fill="#BDBDBD"/>
<path fill-rule="evenodd" clip-rule="evenodd" d="M62.5814 37.584C63.2798 37.584 63.868 37.8252 64.3406 38.3103C64.8105 38.7927 65.0468 39.3863 65.0468 40.0909C65.0468 40.7956 64.8132 41.3837 64.3432 41.8689C63.8706 42.3567 63.2982 42.6006 62.6182 42.6006C61.9408 42.6006 61.3553 42.3567 60.8827 41.8743C60.4101 41.3891 60.1738 40.801 60.1738 40.1126C60.1738 39.6546 60.2815 39.2291 60.4968 38.8388C60.7121 38.4458 61.0061 38.1396 61.3763 37.9173C61.7465 37.6978 62.1482 37.5867 62.5814 37.5867V37.584ZM62.6025 38.0501C62.2585 38.0501 61.9356 38.1423 61.6284 38.3266C61.3212 38.5109 61.0823 38.7575 60.909 39.0692C60.7383 39.3836 60.6517 39.7305 60.6517 40.1126C60.6517 40.6818 60.8433 41.1588 61.2214 41.549C61.6047 41.942 62.0642 42.1372 62.6025 42.1372C62.9595 42.1372 63.293 42.045 63.5975 41.8661C63.9047 41.6873 64.1436 41.4433 64.3143 41.129C64.485 40.8173 64.5716 40.4731 64.5716 40.0909C64.5716 39.7088 64.485 39.3673 64.3143 39.0611C64.1436 38.7548 63.9021 38.5109 63.5923 38.3266C63.2798 38.1423 62.9516 38.0501 62.6025 38.0501Z" fill="#BDBDBD"/>
<path fill-rule="evenodd" clip-rule="evenodd" d="M65.9714 42.4773V37.7046H68.2898V38.1707H66.4283V39.6993H66.6436C67.2212 39.6993 67.6413 39.7535 67.9012 39.8565C68.1611 39.9622 68.3686 40.1275 68.5182 40.3525C68.6679 40.5774 68.7414 40.8295 68.7414 41.1086C68.7414 41.4718 68.6101 41.7916 68.3476 42.0653C68.0824 42.3391 67.7148 42.4773 67.2422 42.4773H65.9714ZM66.4283 40.179V42.0111H66.998C67.3341 42.0111 67.5835 41.9786 67.7384 41.9082C67.896 41.8404 68.022 41.7374 68.1139 41.5938C68.2084 41.4528 68.2557 41.2956 68.2557 41.1195C68.2557 40.8972 68.1874 40.7102 68.0561 40.5557C67.9248 40.404 67.7594 40.301 67.5651 40.2522C67.3682 40.2061 67.0742 40.179 66.6856 40.179H66.4283Z" fill="#BDBDBD"/>
<path fill-rule="evenodd" clip-rule="evenodd" d="M75.0347 42.0277H75.8276V43.1931H75.3918V42.4776H69.6576V37.7021H70.1197V42.0277H72.0967V37.7021H72.5588V42.0277H74.5726V37.7021H75.0347V42.0277Z" fill="#BDBDBD"/>
<path fill-rule="evenodd" clip-rule="evenodd" d="M76.531 37.7049H79.1828V38.171H76.9957V39.6671H79.1644V40.1332H76.9957V42.0114H79.1644V42.4776H76.5336V37.7021L76.531 37.7049Z" fill="#BDBDBD"/>
<path fill-rule="evenodd" clip-rule="evenodd" d="M84.29 38.5919L83.925 38.8792C83.7255 38.6109 83.4813 38.4049 83.2004 38.264C82.9194 38.1258 82.6096 38.0553 82.2709 38.0553C81.9034 38.0553 81.5594 38.1474 81.247 38.329C80.9319 38.5133 80.6877 38.76 80.5145 39.0662C80.3438 39.3752 80.2571 39.7221 80.2571 40.1069C80.2571 40.6896 80.4488 41.1748 80.8374 41.565C81.2233 41.9526 81.7117 42.1504 82.2998 42.1504C82.9483 42.1504 83.4918 41.8876 83.9277 41.3645L84.29 41.6491C84.0615 41.9526 83.7727 42.1857 83.4288 42.351C83.0822 42.519 82.6963 42.6003 82.2736 42.6003C81.4649 42.6003 80.8243 42.3239 80.3569 41.7656C79.9657 41.2967 79.7688 40.7303 79.7688 40.0663C79.7688 39.367 80.0051 38.7789 80.4803 38.3019C80.9555 37.8222 81.5489 37.5864 82.2657 37.5864C82.6963 37.5864 83.0875 37.6759 83.434 37.8493C83.7832 38.0255 84.0668 38.2748 84.29 38.5919Z" fill="#BDBDBD"/>
<path fill-rule="evenodd" clip-rule="evenodd" d="M84.7596 38.1707V37.7046H87.2933V38.1707H86.2615V42.4773H85.7889V38.1707H84.7596Z" fill="#BDBDBD"/>
<path fill-rule="evenodd" clip-rule="evenodd" d="M87.9712 37.7049H88.8849C89.2498 37.7049 89.5334 37.7482 89.7303 37.8377C89.9272 37.9271 90.0821 38.0653 90.1976 38.2523C90.3105 38.4393 90.3683 38.6453 90.3683 38.873C90.3683 39.0844 90.3184 39.2795 90.2187 39.453C90.1163 39.6264 89.9692 39.7673 89.7776 39.8758C90.0165 39.9598 90.2029 40.0601 90.3315 40.1739C90.4602 40.2877 90.5626 40.4232 90.6335 40.5858C90.707 40.7457 90.7411 40.9219 90.7411 41.1089C90.7411 41.4911 90.6072 41.8163 90.3342 42.0792C90.0637 42.3448 89.6988 42.4776 89.242 42.4776H87.9712V37.7021V37.7049ZM88.4254 38.171V39.6996H88.6906C89.0109 39.6996 89.2472 39.6671 89.3995 39.6074C89.5491 39.5451 89.6699 39.4475 89.7592 39.3147C89.8458 39.1819 89.8905 39.0329 89.8905 38.873C89.8905 38.6534 89.8169 38.4827 89.6673 38.358C89.5203 38.2334 89.284 38.171 88.961 38.171H88.4254ZM88.4254 40.1793V42.0114H88.9978C89.3365 42.0114 89.5859 41.9789 89.7408 41.9084C89.8983 41.8407 90.0244 41.735 90.1215 41.5913C90.216 41.445 90.2633 41.2878 90.2633 41.1197C90.2633 40.9056 90.1976 40.7213 90.0637 40.5641C89.9298 40.407 89.7434 40.2985 89.5098 40.2389C89.3496 40.201 89.0765 40.182 88.6853 40.182H88.4254V40.1793Z" fill="#BDBDBD"/>
<path fill-rule="evenodd" clip-rule="evenodd" d="M93.8598 37.584C94.5608 37.584 95.1463 37.8252 95.6189 38.3103C96.0915 38.7927 96.3278 39.3863 96.3278 40.0909C96.3278 40.7956 96.0942 41.3837 95.6216 41.8689C95.1516 42.3567 94.5766 42.6006 93.8992 42.6006C93.2218 42.6006 92.6337 42.3567 92.1611 41.8743C91.6911 41.3891 91.4548 40.801 91.4548 40.1126C91.4548 39.6546 91.5625 39.2291 91.7778 38.8388C91.9931 38.4458 92.2871 38.1396 92.6573 37.9173C93.0275 37.6978 93.4292 37.5867 93.8625 37.5867L93.8598 37.584ZM93.8808 38.0501C93.5395 38.0501 93.2139 38.1423 92.9068 38.3266C92.5996 38.5109 92.3633 38.7575 92.19 39.0692C92.0167 39.3836 91.9327 39.7305 91.9327 40.1126C91.9327 40.6818 92.1217 41.1588 92.5024 41.549C92.8858 41.942 93.3452 42.1372 93.8808 42.1372C94.2405 42.1372 94.574 42.045 94.8785 41.8661C95.1857 41.6873 95.422 41.4433 95.5953 41.129C95.766 40.8173 95.8526 40.4731 95.8526 40.0909C95.8526 39.7088 95.766 39.3673 95.5953 39.0611C95.422 38.7548 95.1831 38.5109 94.8707 38.3266C94.5608 38.1423 94.23 38.0501 93.8835 38.0501H93.8808Z" fill="#BDBDBD"/>
<path fill-rule="evenodd" clip-rule="evenodd" d="M103.346 38.5919L102.981 38.8792C102.782 38.6109 102.54 38.4049 102.257 38.264C101.976 38.1258 101.666 38.0553 101.327 38.0553C100.96 38.0553 100.618 38.1474 100.303 38.329C99.9881 38.5133 99.7439 38.76 99.5732 39.0662C99.3999 39.3752 99.3133 39.7221 99.3133 40.1069C99.3133 40.6896 99.505 41.1748 99.8935 41.565C100.282 41.9526 100.768 42.1504 101.356 42.1504C102.004 42.1504 102.548 41.8876 102.984 41.3645L103.346 41.6491C103.118 41.9526 102.829 42.1857 102.485 42.351C102.138 42.519 101.752 42.6003 101.33 42.6003C100.521 42.6003 99.8804 42.3239 99.4131 41.7656C99.0219 41.2967 98.825 40.7303 98.825 40.0663C98.825 39.367 99.0612 38.7789 99.5365 38.3019C100.012 37.8222 100.608 37.5864 101.322 37.5864C101.752 37.5864 102.144 37.6759 102.49 37.8493C102.839 38.0255 103.123 38.2748 103.346 38.5919Z" fill="#BDBDBD"/>
<path fill-rule="evenodd" clip-rule="evenodd" d="M108.261 37.584C108.959 37.584 109.548 37.8252 110.02 38.3103C110.493 38.7927 110.729 39.3863 110.729 40.0909C110.729 40.7956 110.493 41.3837 110.023 41.8689C109.55 42.3567 108.978 42.6006 108.298 42.6006C107.62 42.6006 107.035 42.3567 106.562 41.8743C106.09 41.3891 105.853 40.801 105.853 40.1126C105.853 39.6546 105.961 39.2291 106.176 38.8388C106.392 38.4458 106.686 38.1396 107.056 37.9173C107.429 37.6978 107.828 37.5867 108.261 37.5867V37.584ZM108.282 38.0501C107.938 38.0501 107.615 38.1423 107.308 38.3266C107.001 38.5109 106.762 38.7575 106.589 39.0692C106.418 39.3836 106.331 39.7305 106.331 40.1126C106.331 40.6818 106.523 41.1588 106.904 41.549C107.284 41.942 107.744 42.1372 108.282 42.1372C108.639 42.1372 108.973 42.045 109.277 41.8661C109.584 41.6873 109.823 41.4433 109.994 41.129C110.165 40.8173 110.251 40.4731 110.251 40.0909C110.251 39.7088 110.165 39.3673 109.994 39.0611C109.823 38.7548 109.582 38.5109 109.272 38.3266C108.959 38.1423 108.631 38.0501 108.282 38.0501Z" fill="#BDBDBD"/>
<path fill-rule="evenodd" clip-rule="evenodd" d="M112.109 42.4773H111.647V37.7046H113.965V38.1707H112.109V42.4773Z" fill="#BDBDBD"/>
<path fill-rule="evenodd" clip-rule="evenodd" d="M114.625 37.7046H115.547C116.075 37.7046 116.432 37.729 116.615 37.7751C116.881 37.8428 117.096 37.981 117.264 38.1897C117.432 38.3984 117.516 38.6613 117.516 38.9784C117.516 39.2955 117.435 39.5584 117.272 39.7644C117.109 39.9703 116.883 40.1113 116.594 40.1817C116.384 40.2332 115.993 40.2603 115.418 40.2603H115.087V42.48H114.625V37.7046ZM115.087 38.1707V39.7915L115.87 39.7996C116.187 39.7996 116.418 39.7698 116.566 39.7129C116.713 39.6532 116.828 39.5557 116.912 39.4229C116.996 39.2901 117.038 39.141 117.038 38.9784C117.038 38.8131 116.996 38.6721 116.912 38.5393C116.828 38.4065 116.718 38.3117 116.581 38.2548C116.445 38.1979 116.219 38.1707 115.907 38.1707H115.087Z" fill="#BDBDBD"/>
<path fill-rule="evenodd" clip-rule="evenodd" d="M120.331 37.7046L122.487 42.4773H121.988L121.261 40.9081H119.268L118.549 42.4773H118.034L120.219 37.7046H120.331ZM120.274 38.7182L119.481 40.4473H121.061L120.274 38.7182Z" fill="#BDBDBD"/>
<path fill-rule="evenodd" clip-rule="evenodd" d="M123.198 37.7046H123.66V39.7074H126.015V37.7046H126.48V42.4773H126.015V40.1736H123.66V42.4773H123.198V37.7046Z" fill="#BDBDBD"/>
<path fill-rule="evenodd" clip-rule="evenodd" d="M131.242 42.4773H130.762V38.8158L127.711 42.4773H127.609V37.7046H128.068V41.4284L131.137 37.7046H131.242V42.4773Z" fill="#BDBDBD"/>
<path fill-rule="evenodd" clip-rule="evenodd" d="M134.259 39.7617V37.7046H134.722V42.4773H134.259V40.2278H133.926C133.464 40.2278 133.128 40.2088 132.915 40.1709C132.702 40.133 132.513 40.0462 132.345 39.9161C132.18 39.786 132.064 39.6261 132.001 39.4364C131.941 39.2467 131.91 38.9838 131.91 38.6505V37.7046H132.361V38.6776C132.361 39.0787 132.44 39.3578 132.595 39.5204C132.75 39.6803 133.01 39.7617 133.375 39.7617L133.703 39.7589L133.845 39.7617H134.257H134.259Z" fill="#BDBDBD"/>
<path fill-rule="evenodd" clip-rule="evenodd" d="M135.843 37.7049H138.494V38.171H136.307V39.6671H138.476V40.1332H136.307V42.0114H138.476V42.4776H135.845V37.7021L135.843 37.7049Z" fill="#BDBDBD"/>
<path fill-rule="evenodd" clip-rule="evenodd" d="M139.287 37.7046H139.749V39.7074H142.104V37.7046H142.566V42.4773H142.104V40.1736H139.749V42.4773H139.287V37.7046Z" fill="#BDBDBD"/>
<path fill-rule="evenodd" clip-rule="evenodd" d="M143.684 37.7046H144.149V39.7074H146.504V37.7046H146.966V42.4773H146.504V40.1736H144.149V42.4773H143.684V37.7046Z" fill="#BDBDBD"/>
<path fill-rule="evenodd" clip-rule="evenodd" d="M150.293 37.584C150.994 37.584 151.579 37.8252 152.052 38.3103C152.524 38.7927 152.761 39.3863 152.761 40.0909C152.761 40.7956 152.524 41.3837 152.054 41.8689C151.582 42.3567 151.009 42.6006 150.332 42.6006C149.655 42.6006 149.066 42.3567 148.594 41.8743C148.121 41.3891 147.885 40.801 147.885 40.1126C147.885 39.6546 147.993 39.2291 148.208 38.8388C148.423 38.4458 148.717 38.1396 149.087 37.9173C149.458 37.6978 149.859 37.5867 150.293 37.5867V37.584ZM150.314 38.0501C149.972 38.0501 149.647 38.1423 149.339 38.3266C149.035 38.5109 148.793 38.7575 148.623 39.0692C148.449 39.3836 148.363 39.7305 148.363 40.1126C148.363 40.6818 148.554 41.1588 148.935 41.549C149.316 41.942 149.775 42.1372 150.314 42.1372C150.673 42.1372 151.004 42.045 151.309 41.8661C151.616 41.6873 151.852 41.4433 152.023 41.129C152.193 40.8173 152.28 40.4731 152.28 40.0909C152.28 39.7088 152.193 39.3673 152.023 39.0611C151.852 38.7548 151.613 38.5109 151.301 38.3266C150.991 38.1423 150.663 38.0501 150.314 38.0501Z" fill="#BDBDBD"/>
<path fill-rule="evenodd" clip-rule="evenodd" d="M157.328 42.4782H156.847V38.8167L153.797 42.4782H153.694V37.7055H154.156V41.4294L157.226 37.7055H157.328V42.4782ZM154.398 36.5618H154.813C154.884 36.6729 154.981 36.7569 155.099 36.8138C155.22 36.8708 155.361 36.8979 155.527 36.8979C155.695 36.8979 155.829 36.8735 155.931 36.8247C156.034 36.7759 156.133 36.6865 156.225 36.5618H156.627C156.582 36.7569 156.464 36.9195 156.275 37.0496C156.083 37.1797 155.834 37.2448 155.524 37.2448C155.212 37.2448 154.965 37.1797 154.771 37.0523C154.574 36.925 154.45 36.7596 154.398 36.5591V36.5618Z" fill="#BDBDBD"/>
<path fill-rule="evenodd" clip-rule="evenodd" d="M162.44 37.584C163.141 37.584 163.727 37.8252 164.2 38.3103C164.672 38.7927 164.908 39.3863 164.908 40.0909C164.908 40.7956 164.672 41.3837 164.202 41.8689C163.73 42.3567 163.157 42.6006 162.48 42.6006C161.802 42.6006 161.214 42.3567 160.742 41.8743C160.269 41.3891 160.033 40.801 160.033 40.1126C160.033 39.6546 160.14 39.2291 160.356 38.8388C160.571 38.4458 160.865 38.1396 161.235 37.9173C161.606 37.6978 162.007 37.5867 162.44 37.5867V37.584ZM162.461 38.0501C162.12 38.0501 161.795 38.1423 161.487 38.3266C161.183 38.5109 160.941 38.7575 160.771 39.0692C160.597 39.3836 160.511 39.7305 160.511 40.1126C160.511 40.6818 160.702 41.1588 161.083 41.549C161.464 41.942 161.923 42.1372 162.461 42.1372C162.821 42.1372 163.152 42.045 163.457 41.8661C163.764 41.6873 164 41.4433 164.171 41.129C164.344 40.8173 164.428 40.4731 164.428 40.0909C164.428 39.7088 164.344 39.3673 164.171 39.0611C164 38.7548 163.761 38.5109 163.449 38.3266C163.139 38.1423 162.811 38.0501 162.461 38.0501Z" fill="#BDBDBD"/>
<path fill-rule="evenodd" clip-rule="evenodd" d="M165.375 38.1707V37.7046H167.911V38.1707H166.879V42.4773H166.407V38.1707H165.378H165.375Z" fill="#BDBDBD"/>
<path fill-rule="evenodd" clip-rule="evenodd" d="M168.589 37.7049H169.502C169.867 37.7049 170.151 37.7482 170.348 37.8377C170.545 37.9271 170.699 38.0653 170.815 38.2523C170.928 38.4393 170.986 38.6453 170.986 38.873C170.986 39.0844 170.936 39.2795 170.836 39.453C170.734 39.6264 170.587 39.7673 170.395 39.8758C170.634 39.9598 170.82 40.0601 170.949 40.1739C171.08 40.2877 171.18 40.4232 171.251 40.5858C171.324 40.7457 171.358 40.9219 171.358 41.1089C171.358 41.4911 171.222 41.8163 170.951 42.0792C170.681 42.3448 170.316 42.4776 169.859 42.4776H168.589V37.7021V37.7049ZM169.043 38.171V39.6996H169.308C169.631 39.6996 169.865 39.6671 170.017 39.6074C170.166 39.5451 170.287 39.4475 170.376 39.3147C170.463 39.1819 170.508 39.0329 170.508 38.873C170.508 38.6534 170.434 38.4827 170.285 38.358C170.138 38.2334 169.901 38.171 169.578 38.171H169.043ZM169.043 40.1793V42.0114H169.615C169.954 42.0114 170.201 41.9789 170.358 41.9084C170.516 41.8407 170.642 41.735 170.739 41.5913C170.833 41.445 170.881 41.2878 170.881 41.1197C170.881 40.9056 170.815 40.7213 170.681 40.5641C170.545 40.407 170.361 40.2985 170.127 40.2389C169.967 40.201 169.694 40.182 169.303 40.182H169.043V40.1793Z" fill="#BDBDBD"/>
<path fill-rule="evenodd" clip-rule="evenodd" d="M172.277 37.7049H174.929V38.171H172.739V39.6671H174.91V40.1332H172.739V42.0114H174.91V42.4776H172.277V37.7021V37.7049Z" fill="#BDBDBD"/>
<path fill-rule="evenodd" clip-rule="evenodd" d="M175.266 38.1707V37.7046H177.802V38.1707H176.77V42.4773H176.298V38.1707H175.268H175.266Z" fill="#BDBDBD"/>
<path fill-rule="evenodd" clip-rule="evenodd" d="M182.776 38.5919L182.412 38.8792C182.212 38.6109 181.968 38.4049 181.687 38.264C181.406 38.1258 181.096 38.0553 180.757 38.0553C180.39 38.0553 180.046 38.1474 179.733 38.329C179.418 38.5133 179.174 38.76 179.004 39.0662C178.83 39.3752 178.744 39.7221 178.744 40.1069C178.744 40.6896 178.935 41.1748 179.324 41.565C179.71 41.9526 180.198 42.1504 180.786 42.1504C181.435 42.1504 181.978 41.8876 182.414 41.3645L182.776 41.6491C182.548 41.9526 182.259 42.1857 181.915 42.351C181.571 42.519 181.185 42.6003 180.76 42.6003C179.949 42.6003 179.311 42.3239 178.843 41.7656C178.452 41.2967 178.258 40.7303 178.258 40.0663C178.258 39.367 178.494 38.7789 178.969 38.3019C179.445 37.8222 180.038 37.5864 180.752 37.5864C181.185 37.5864 181.574 37.6759 181.923 37.8493C182.27 38.0255 182.556 38.2748 182.776 38.5919Z" fill="#BDBDBD"/>
<path fill-rule="evenodd" clip-rule="evenodd" d="M183.247 38.1707V37.7046H185.78V38.1707H184.748V42.4773H184.278V38.1707H183.247Z" fill="#BDBDBD"/>
<path fill-rule="evenodd" clip-rule="evenodd" d="M186.458 37.7049H187.372C187.737 37.7049 188.02 37.7482 188.217 37.8377C188.414 37.9271 188.569 38.0653 188.685 38.2523C188.797 38.4393 188.855 38.6453 188.855 38.873C188.855 39.0844 188.805 39.2795 188.706 39.453C188.603 39.6264 188.456 39.7673 188.265 39.8758C188.503 39.9598 188.69 40.0601 188.818 40.1739C188.95 40.2877 189.05 40.4232 189.12 40.5858C189.194 40.7457 189.228 40.9219 189.228 41.1089C189.228 41.4911 189.094 41.8163 188.821 42.0792C188.551 42.3448 188.186 42.4776 187.729 42.4776H186.458V37.7021V37.7049ZM186.912 38.171V39.6996H187.178C187.5 39.6996 187.737 39.6671 187.886 39.6074C188.036 39.5451 188.157 39.4475 188.246 39.3147C188.333 39.1819 188.377 39.0329 188.377 38.873C188.377 38.6534 188.304 38.4827 188.154 38.358C188.007 38.2334 187.771 38.171 187.448 38.171H186.912ZM186.912 40.1793V42.0114H187.485C187.823 42.0114 188.073 41.9789 188.228 41.9084C188.385 41.8407 188.514 41.735 188.608 41.5913C188.703 41.445 188.75 41.2878 188.75 41.1197C188.75 40.9056 188.685 40.7213 188.551 40.5641C188.414 40.407 188.23 40.2985 187.997 40.2389C187.837 40.201 187.563 40.182 187.172 40.182H186.912V40.1793Z" fill="#BDBDBD"/>
<path fill-rule="evenodd" clip-rule="evenodd" d="M190.148 37.7049H192.798V38.171H190.611V39.6671H192.779V40.1332H190.611V42.0114H192.779V42.4776H190.148V37.7021V37.7049Z" fill="#BDBDBD"/>
<path fill-rule="evenodd" clip-rule="evenodd" d="M193.591 37.7046H194.053V39.7074H196.408V37.7046H196.87V42.4773H196.408V40.1736H194.053V42.4773H193.591V37.7046Z" fill="#BDBDBD"/>
<path fill-rule="evenodd" clip-rule="evenodd" d="M197.992 37.7046H198.454V39.7074H200.809V37.7046H201.271V42.4773H200.809V40.1736H198.454V42.4773H197.992V37.7046Z" fill="#BDBDBD"/>
<path fill-rule="evenodd" clip-rule="evenodd" d="M204.6 37.584C205.298 37.584 205.886 37.8252 206.359 38.3103C206.831 38.7927 207.065 39.3863 207.065 40.0909C207.065 40.7956 206.831 41.3837 206.361 41.8689C205.889 42.3567 205.314 42.6006 204.636 42.6006C203.962 42.6006 203.373 42.3567 202.901 41.8743C202.428 41.3891 202.192 40.801 202.192 40.1126C202.192 39.6546 202.3 39.2291 202.515 38.8388C202.73 38.4458 203.022 38.1396 203.394 37.9173C203.765 37.6978 204.166 37.5867 204.6 37.5867V37.584ZM204.621 38.0501C204.277 38.0501 203.954 38.1423 203.646 38.3266C203.339 38.5109 203.1 38.7575 202.927 39.0692C202.756 39.3836 202.67 39.7305 202.67 40.1126C202.67 40.6818 202.861 41.1588 203.242 41.549C203.623 41.942 204.082 42.1372 204.618 42.1372C204.978 42.1372 205.311 42.045 205.616 41.8661C205.923 41.6873 206.159 41.4433 206.33 41.129C206.5 40.8173 206.587 40.4731 206.587 40.0909C206.587 39.7088 206.5 39.3673 206.33 39.0611C206.159 38.7548 205.918 38.5109 205.608 38.3266C205.298 38.1423 204.967 38.0501 204.618 38.0501H204.621Z" fill="#BDBDBD"/>
<path fill-rule="evenodd" clip-rule="evenodd" d="M212.303 38.5919L211.938 38.8792C211.736 38.6109 211.494 38.4049 211.213 38.264C210.933 38.1258 210.62 38.0553 210.284 38.0553C209.914 38.0553 209.572 38.1474 209.257 38.329C208.945 38.5133 208.701 38.76 208.528 39.0662C208.354 39.3752 208.268 39.7221 208.268 40.1069C208.268 40.6896 208.462 41.1748 208.848 41.565C209.236 41.9526 209.725 42.1504 210.313 42.1504C210.961 42.1504 211.502 41.8876 211.938 41.3645L212.303 41.6491C212.072 41.9526 211.786 42.1857 211.439 42.351C211.095 42.519 210.709 42.6003 210.284 42.6003C209.475 42.6003 208.837 42.3239 208.37 41.7656C207.979 41.2967 207.782 40.7303 207.782 40.0663C207.782 39.367 208.018 38.7789 208.493 38.3019C208.969 37.8222 209.562 37.5864 210.279 37.5864C210.709 37.5864 211.101 37.6759 211.447 37.8493C211.796 38.0255 212.08 38.2748 212.303 38.5919Z" fill="#BDBDBD"/>
<path fill-rule="evenodd" clip-rule="evenodd" d="M212.771 38.1707V37.7046H215.308V38.1707H214.276V42.4773H213.803V38.1707H212.774H212.771Z" fill="#BDBDBD"/>
<path fill-rule="evenodd" clip-rule="evenodd" d="M215.969 37.7049H216.431V39.7538H216.765C217.371 39.7538 217.805 39.7836 218.07 39.8432C218.332 39.9029 218.545 40.0411 218.708 40.2606C218.868 40.4774 218.949 40.7566 218.949 41.1008C218.949 41.445 218.871 41.7187 218.713 41.9409C218.556 42.1632 218.356 42.3068 218.112 42.3746C217.87 42.4423 217.461 42.4776 216.891 42.4776H215.969V37.7021V37.7049ZM216.431 42.0168H216.925C217.445 42.0168 217.784 41.9924 217.941 41.9409C218.099 41.8895 218.225 41.7946 218.317 41.6564C218.411 41.5181 218.458 41.342 218.458 41.1252C218.458 40.8867 218.398 40.6942 218.282 40.5425C218.164 40.3961 218.015 40.304 217.833 40.2714C217.652 40.2362 217.314 40.22 216.82 40.22H216.429V42.0168H216.431Z" fill="#BDBDBD"/>
<path fill-rule="evenodd" clip-rule="evenodd" d="M220.33 39.8389H221.141C221.259 39.0719 221.553 38.5055 222.023 38.1369C222.496 37.771 222.997 37.584 223.535 37.584C224.231 37.584 224.817 37.8252 225.292 38.3103C225.767 38.7927 226.003 39.3863 226.003 40.0909C226.003 40.7956 225.767 41.381 225.3 41.8689C224.83 42.3567 224.255 42.6006 223.572 42.6006C222.947 42.6006 222.404 42.3919 221.939 41.9773C221.474 41.5626 221.209 40.9989 221.141 40.2834H220.33V42.4787H219.867V37.7059H220.33V39.8389ZM225.525 40.0909C225.525 39.5001 225.329 39.0123 224.932 38.6274C224.538 38.2426 224.079 38.0501 223.559 38.0501C223.039 38.0501 222.587 38.2453 222.199 38.6356C221.81 39.0258 221.613 39.5191 221.613 40.1126C221.613 40.7089 221.808 41.175 222.194 41.5599C222.582 41.9447 223.036 42.1372 223.559 42.1372C224.084 42.1372 224.567 41.942 224.95 41.5545C225.334 41.1669 225.525 40.6791 225.525 40.0909Z" fill="#BDBDBD"/>
<path fill-rule="evenodd" clip-rule="evenodd" d="M217.887 27.8375V18.8992C217.887 17.4871 218.229 16.4003 218.904 15.636C219.584 14.8691 220.576 14.4896 221.884 14.4896C223.191 14.4896 224.204 14.8718 224.927 15.636C225.643 16.3976 226.003 17.4817 226.003 18.8965V20.6093H223.33V18.723C223.33 17.5739 222.873 16.9966 221.954 16.9966C221.035 16.9966 220.56 17.5739 220.56 18.7284V28.0218C220.56 29.1655 221.025 29.7374 221.954 29.7374C222.884 29.7374 223.33 29.1655 223.33 28.0218V25.4986H226.003V27.8375C226.003 29.2495 225.643 30.339 224.927 31.1006C224.204 31.8649 223.191 32.247 221.884 32.247C220.576 32.247 219.584 31.8649 218.904 31.1006C218.229 30.3363 217.887 29.2495 217.887 27.8375ZM207.359 32.247V14.6902H209.74V25.8048L210.712 21.9346L212.899 14.6902H216.105V32.247H213.435V19.8911L212.348 24.2031L210.097 32.247H207.359ZM199.795 21.8371H200.84C201.37 21.8371 201.772 21.6961 202.04 21.4143C202.31 21.1351 202.444 20.6581 202.444 19.9887V19.0076C202.444 18.3815 202.339 17.9208 202.124 17.6335C201.908 17.3435 201.564 17.1971 201.092 17.1971H199.795V21.8371ZM199.795 29.7374H201.326C201.79 29.7374 202.139 29.6073 202.365 29.3444C202.596 29.0842 202.712 28.6397 202.712 28.011V26.477C202.712 25.6774 202.578 25.1218 202.313 24.8102C202.05 24.4985 201.609 24.3467 200.995 24.3467H199.795V29.7374ZM197.122 32.247V14.6902H201.155C202.525 14.6902 203.526 15.0208 204.161 15.6794C204.797 16.3407 205.117 17.357 205.117 18.7284V19.3545C205.117 21.1487 204.542 22.3276 203.387 22.8913C204.72 23.4225 205.385 24.672 205.385 26.6477V28.0814C205.385 29.4365 205.041 30.4691 204.353 31.1792C203.665 31.8893 202.657 32.2443 201.328 32.2443H197.125L197.122 32.247ZM190.259 23.1407H191.53C191.971 23.1407 192.299 23.016 192.514 22.7612C192.727 22.5092 192.835 22.081 192.835 21.4793V18.8477C192.835 18.246 192.727 17.8205 192.514 17.5712C192.299 17.3245 191.971 17.1971 191.53 17.1971H190.259V23.1407ZM187.586 32.247V14.6902H191.522C192.842 14.6902 193.84 15.0615 194.507 15.8068C195.177 16.5467 195.507 17.6254 195.507 19.0374V21.3167C195.507 22.7287 195.177 23.8047 194.507 24.5446C193.84 25.2845 192.848 25.6503 191.527 25.6503H190.259V32.247H187.586ZM178.276 32.247V14.6902H185.564V17.1999H180.949V22.0891H184.593V24.5988H180.949V29.7401H185.564V32.247H178.276ZM168.309 27.8375V15.2133C168.309 13.7985 168.648 12.7117 169.328 11.9474C170.006 11.1831 171.001 10.8037 172.308 10.8037C173.616 10.8037 174.626 11.1831 175.348 11.9474C176.065 12.709 176.425 13.7958 176.425 15.2078V16.9234H173.755V15.0371C173.755 13.888 173.295 13.3107 172.376 13.3107C171.457 13.3107 170.982 13.888 170.982 15.0398V28.0218C170.982 29.1655 171.45 29.7374 172.376 29.7374C173.303 29.7374 173.755 29.1655 173.755 28.0218V25.4986H176.425V27.8375C176.425 29.2495 176.065 30.339 175.348 31.1006C174.626 31.8649 173.616 32.247 172.308 32.247C171.001 32.247 170.006 31.8676 169.328 31.1006C168.648 30.3363 168.309 29.2495 168.309 27.8375ZM158.726 17.1971V14.6902H166.986V17.1971H164.193V32.247H161.517V17.1971H158.724H158.726ZM149.08 32.247V14.6902H151.753V22.3439L155.25 14.6902H157.92L154.205 22.5146L157.92 32.247H155.182L152.582 25.2574L151.753 26.8591V32.2443H149.08V32.247ZM139.77 32.247V14.6902H147.061V17.1999H142.443V22.0891H146.089V24.5988H142.443V29.7401H147.061V32.247H139.77ZM132.227 28.2007C132.227 29.3579 132.694 29.9379 133.618 29.9379C134.545 29.9379 134.997 29.3579 134.997 28.2007V18.723C134.997 17.5739 134.54 16.9966 133.618 16.9966C132.699 16.9966 132.227 17.5739 132.227 18.723V28.2007ZM129.554 28.0381V18.8992C129.554 17.4953 129.906 16.4085 130.607 15.6388C131.308 14.8745 132.311 14.4896 133.616 14.4896C134.92 14.4896 135.923 14.8745 136.624 15.6388C137.32 16.4085 137.669 17.4953 137.669 18.8992V28.0381C137.669 29.4419 137.32 30.5288 136.624 31.2985C135.923 32.0627 134.923 32.4476 133.616 32.4476C132.308 32.4476 131.308 32.0627 130.607 31.2985C129.906 30.5288 129.554 29.4419 129.554 28.0381ZM122.911 23.1407H124.182C124.623 23.1407 124.951 23.016 125.164 22.7612C125.379 22.5092 125.484 22.081 125.484 21.4793V18.8477C125.484 18.246 125.379 17.8205 125.164 17.5712C124.951 17.3245 124.623 17.1971 124.182 17.1971H122.911V23.1407ZM120.238 32.247V14.6902H124.174C125.492 14.6902 126.49 15.0615 127.157 15.8068C127.826 16.5467 128.16 17.6254 128.16 19.0374V21.3167C128.16 22.7287 127.826 23.8047 127.157 24.5446C126.49 25.2845 125.497 25.6503 124.177 25.6503H122.911V32.247H120.238ZM109.489 32.247V10.8037H117.873V32.247H115.2V13.3107H112.162V32.247H109.489ZM100.179 10.8037H101.833C101.865 11.2319 101.97 11.5301 102.148 11.6927C102.324 11.8499 102.6 11.9312 102.97 11.9312C103.343 11.9312 103.648 11.8526 103.847 11.6927C104.044 11.5301 104.157 11.2319 104.191 10.8037H105.819C105.819 11.6683 105.575 12.3458 105.094 12.8337C104.611 13.3188 103.902 13.56 102.97 13.56C102.038 13.56 101.377 13.3188 100.912 12.8391C100.45 12.3567 100.208 11.6764 100.182 10.8037H100.179ZM98.6985 32.247H101.44L103.771 24.2248L104.853 19.9019L104.771 32.247H107.176V14.7064H104.236L102.062 21.94L101.083 25.8048V14.7119H98.6959V32.247H98.6985ZM91.1527 28.2007C91.1527 29.3579 91.6201 29.9379 92.5469 29.9379C93.4737 29.9379 93.9227 29.3579 93.9227 28.2007V18.723C93.9227 17.5739 93.4658 16.9966 92.5469 16.9966C91.628 16.9966 91.1527 17.5739 91.1527 18.723V28.2007ZM88.4799 28.0381V18.8992C88.4799 17.4953 88.8344 16.4085 89.5328 15.6388C90.2338 14.8745 91.2394 14.4896 92.5416 14.4896C93.8465 14.4896 94.8521 14.8745 95.5505 15.6388C96.2489 16.4085 96.5955 17.4953 96.5955 18.8992V28.0381C96.5955 29.4419 96.2489 30.5288 95.5505 31.2985C94.8521 32.0627 93.8492 32.4476 92.5416 32.4476C91.2341 32.4476 90.2338 32.0627 89.5328 31.2985C88.8344 30.5288 88.4799 29.4419 88.4799 28.0381ZM81.8373 23.1407H83.1081C83.5492 23.1407 83.8774 23.016 84.0927 22.7612C84.3053 22.5092 84.4104 22.081 84.4104 21.4793V18.8477C84.4104 18.246 84.3053 17.8205 84.0927 17.5712C83.8774 17.3245 83.5492 17.1971 83.1081 17.1971H81.8373V23.1407ZM79.1645 32.247V14.6902H83.1002C84.4209 14.6902 85.4159 15.0615 86.0828 15.8068C86.7523 16.5467 87.0831 17.6254 87.0831 19.0374V21.3167C87.0831 22.7287 86.7523 23.8047 86.0828 24.5446C85.4159 25.2845 84.4235 25.6503 83.1028 25.6503H81.8347V32.247H79.1619H79.1645ZM69.3608 17.1971V14.6902H77.6207V17.1971H74.8271V32.247H72.1543V17.1971H69.3608ZM60.1714 27.8375V15.2133C60.1714 13.7985 60.5101 12.7117 61.1875 11.9474C61.8675 11.1831 62.8599 10.8037 64.1675 10.8037C65.475 10.8037 66.4884 11.1831 67.2105 11.9474C67.9272 12.709 68.2869 13.7958 68.2869 15.2078V16.9234H65.6141V15.0371C65.6141 13.888 65.1573 13.3107 64.2383 13.3107C63.3194 13.3107 62.8468 13.888 62.8468 15.0398V28.0218C62.8468 29.1655 63.3115 29.7374 64.2383 29.7374C65.1652 29.7374 65.6141 29.1655 65.6141 28.0218V25.4986H68.2869V27.8375C68.2869 29.2495 67.9272 30.339 67.2105 31.1006C66.4884 31.8649 65.4776 32.247 64.1675 32.247C62.8599 32.247 61.8675 31.8676 61.1875 31.1006C60.5101 30.3363 60.1714 29.2495 60.1714 27.8375Z" fill="#161616"/>
<path d="M34.5895 37.4211C34.311 37.4954 33.842 37.5251 33.5635 37.4805C33.285 37.4508 33.1531 37.4656 33.2704 37.5102C33.3876 37.5696 31.2332 38.06 28.4631 38.6098C22.9816 39.7094 22.6299 39.8283 22.1755 40.8238C22.029 41.1507 21.8385 41.4182 21.7652 41.4182C21.6772 41.4182 21.4867 41.1359 21.3255 40.7793C21.1349 40.3781 20.8565 40.066 20.5634 39.9174L20.0797 39.6797L21.2962 39.4568C21.9557 39.323 24.8137 38.8327 27.6277 38.3572C30.4564 37.8817 32.6548 37.4656 32.5376 37.4359C32.1272 37.3616 18.3209 39.6351 17.9106 39.8431C17.3829 40.1254 17.0605 40.4969 16.782 41.1656C16.4889 41.8788 16.5036 42.3989 16.8406 43.1419L17.1191 43.766L16.4156 43.8254C14.0266 44.0632 13.4111 47.3619 15.5509 48.5209C16.3863 48.9816 17.1924 48.9073 18.5847 48.2535L19.6547 47.7631L20.0504 48.1495C20.9737 49.041 21.941 49.0707 23.436 48.2535L24.5059 47.6591L25.0628 48.1643C25.6784 48.729 26.3819 48.937 27.2027 48.8033C27.9208 48.6844 37.7699 41.6857 37.9751 41.1656C38.2389 40.4375 37.638 39.4865 36.9052 39.4865C36.4361 39.4865 36.4361 39.4865 36.656 38.9813C36.8905 38.4761 36.5974 37.7628 36.0404 37.4805C35.5861 37.2279 35.3516 37.2279 34.5895 37.4211ZM35.9085 37.5548C36.0258 37.6291 36.0844 37.7331 36.0404 37.7777C35.9232 37.8817 26.7923 41.2696 26.5871 41.2696C26.4992 41.2696 26.3233 41.0319 26.1914 40.7347C26.0448 40.4524 25.737 40.0957 25.5025 39.962C25.268 39.8283 25.0628 39.6797 25.0628 39.6351C25.0628 39.5459 34.8679 37.4656 35.3955 37.4211C35.5568 37.4211 35.7913 37.4656 35.9085 37.5548ZM37.3595 39.8431C37.4914 40.0066 36.7146 40.5564 33.2557 42.7407C30.9107 44.2266 28.9761 45.4302 28.9614 45.4005C28.9468 45.3708 28.8149 45.1627 28.6683 44.9399C28.5364 44.717 28.214 44.3901 27.9501 44.2415L27.4958 43.9591L31.8194 41.7897C36.2016 39.6054 36.9491 39.3379 37.3595 39.8431ZM18.0571 41.0913C17.9545 42.6367 18.7753 43.4836 20.1969 43.2905C20.8565 43.2013 20.8565 43.2013 20.5927 43.4985C19.9478 44.2266 18.4968 44.2415 17.8519 43.5282C17.1045 42.711 16.9726 42.0572 17.3829 41.225C17.5881 40.8238 18.0132 40.2295 18.1011 40.2295C18.1157 40.2295 18.0864 40.6158 18.0571 41.0913ZM23.0842 41.329C23.0842 42.1315 23.1429 42.3395 23.436 42.6664C23.8903 43.1567 24.6525 43.4094 25.3267 43.2756C25.7957 43.1865 25.8396 43.2013 25.6491 43.4242C25.1215 44.0632 24.0662 44.2712 23.3041 43.87C22.2488 43.3202 21.9117 41.7451 22.6592 40.8387C22.8644 40.5861 23.0549 40.3781 23.0549 40.3781C23.0696 40.3781 23.0842 40.809 23.0842 41.329ZM15.5069 45.2816C15.1405 46.7527 16.3277 48.0009 17.7933 47.6591C18.4528 47.5105 18.4675 47.6294 17.8373 48.0603C17.1924 48.5061 16.6648 48.6101 16.0785 48.4169C15.0819 48.0752 14.4663 46.9756 14.7155 45.9651C14.7888 45.6531 15.463 44.6873 15.6095 44.6873C15.6388 44.6873 15.5802 44.9547 15.5069 45.2816ZM20.5634 45.4748C20.4754 46.2921 20.6953 46.9459 21.1643 47.3471C21.516 47.6442 22.3661 47.7928 22.9816 47.6591L23.5239 47.5254L23.0256 47.9563C21.1936 49.5314 18.8046 47.3173 20.153 45.2668C20.3582 44.9547 20.5487 44.6873 20.578 44.6873C20.622 44.6873 20.6073 45.0439 20.5634 45.4748ZM25.5758 45.3411C25.3267 46.9459 26.4112 48.0009 27.9501 47.6591L28.4631 47.5402L28.126 47.8969C27.5837 48.4764 26.8069 48.6398 26.0302 48.3426C25.1215 47.986 24.7111 47.3025 24.799 46.3366C24.8577 45.7125 25.356 44.6873 25.5905 44.6873C25.6344 44.6873 25.6198 44.9844 25.5758 45.3411Z" fill="#BDBDBD"/>
</svg>
