<svg width="19" height="22" viewBox="0 0 19 22" fill="none" xmlns="http://www.w3.org/2000/svg">
<path d="M13.25 0C13.6642 0 14 0.335786 14 0.75V2.16895C14.0065 2.16986 14.013 2.17095 14.0195 2.17188C15.268 2.34964 16.268 2.72388 17.0508 3.55273C17.828 4.37562 18.1737 5.41671 18.3389 6.71777C18.5019 8.00144 18.5 9.64875 18.5 11.75C18.5 13.8512 18.5019 15.4985 18.3389 16.7822C18.1737 18.0833 17.828 19.1244 17.0508 19.9473C16.268 20.7761 15.268 21.1504 14.0195 21.3281C12.7971 21.5021 11.231 21.5 9.25 21.5C7.26894 21.5 5.7029 21.5021 4.48047 21.3281C3.23203 21.1504 2.23203 20.7761 1.44922 19.9473C0.672041 19.1244 0.326337 18.0833 0.161133 16.7822C-0.00186124 15.4985 0 13.8512 0 11.75C0 9.64875 -0.00186153 8.00144 0.161133 6.71777C0.326338 5.41671 0.672043 4.37562 1.44922 3.55273C2.23203 2.72388 3.23203 2.34964 4.48047 2.17188C4.48698 2.17095 4.49347 2.16986 4.5 2.16895V0.75C4.5 0.335787 4.83579 5.15408e-07 5.25 0C5.66421 0 6 0.335786 6 0.75V2.04102C6.93238 1.99896 8.00988 2 9.25 2C10.4901 2 11.5676 1.99896 12.5 2.04102V0.75C12.5 0.335787 12.8358 5.15408e-07 13.25 0ZM9.25 3.5C7.22417 3.5 5.7846 3.50175 4.69238 3.65723C3.62633 3.80898 3.00194 4.09393 2.54004 4.58301C2.07243 5.07814 1.79541 5.75748 1.64941 6.90723C1.50127 8.07432 1.5 9.60893 1.5 11.75C1.5 13.891 1.50127 15.4257 1.64941 16.5928C1.79541 17.7425 2.07244 18.4219 2.54004 18.917C3.00194 19.4061 3.62633 19.691 4.69238 19.8428C5.7846 19.9982 7.22418 20 9.25 20C11.2758 20 12.7154 19.9982 13.8076 19.8428C14.8737 19.691 15.4981 19.4061 15.96 18.917C16.4276 18.4219 16.7046 17.7425 16.8506 16.5928C16.9987 15.4257 17 13.891 17 11.75C17 9.60893 16.9987 8.07432 16.8506 6.90723C16.7046 5.75748 16.4276 5.07814 15.96 4.58301C15.4981 4.09393 14.8737 3.80899 13.8076 3.65723C12.7154 3.50175 11.2758 3.5 9.25 3.5ZM9.26855 12.4766C10.7114 12.4781 12.5923 13.1932 13.8027 15.0566C13.9814 15.332 14.0856 15.7657 13.8525 16.1787C13.6856 16.4746 13.3819 16.8589 13.0479 17.1787C12.8775 17.3418 12.6818 17.5052 12.4727 17.6367C12.2726 17.7625 12.0077 17.8929 11.708 17.9248C11.0229 17.9976 9.30555 18.0067 9.27344 18.0068H9.26562C9.23425 18.0067 7.46492 17.9976 6.7793 17.9248C6.47961 17.8929 6.21476 17.7625 6.01465 17.6367C5.80558 17.5053 5.60979 17.3418 5.43945 17.1787C5.10529 16.8588 4.80068 16.4746 4.63379 16.1787C4.40102 15.766 4.50471 15.3322 4.68359 15.0566L4.91992 14.7197C6.13802 13.1014 7.9217 12.4753 9.26855 12.4766ZM9.26758 13.9766C8.32498 13.9756 6.99564 14.4323 6.09082 15.6602C6.19139 15.7927 6.325 15.9496 6.47656 16.0947C6.59855 16.2115 6.7138 16.3051 6.8125 16.3672C6.9203 16.435 6.95976 16.435 6.9375 16.4326C7.51819 16.4943 9.14323 16.5051 9.26855 16.5059C9.37846 16.5052 10.9654 16.4946 11.5488 16.4326C11.5268 16.435 11.5664 16.4347 11.6738 16.3672C11.7725 16.3051 11.8887 16.2115 12.0107 16.0947C12.1623 15.9496 12.295 15.7917 12.3955 15.6592C11.492 14.4275 10.204 13.9777 9.26758 13.9766ZM9.26855 5.49219C10.7873 5.49219 12.0186 6.72345 12.0186 8.24219C12.0185 9.76094 10.7873 10.9922 9.26855 10.9922C7.74977 10.9922 6.51859 9.76096 6.51855 8.24219C6.51855 6.72343 7.74976 5.49219 9.26855 5.49219ZM9.26855 6.99219C8.57815 6.99219 8.01855 7.55189 8.01855 8.24219C8.01859 8.93253 8.57819 9.49219 9.26855 9.49219C9.9588 9.49219 10.5185 8.93255 10.5186 8.24219C10.5186 7.55186 9.95883 6.99219 9.26855 6.99219Z" fill="#161616"/>
</svg>
