<svg width="22" height="22" viewBox="0 0 22 22" fill="none" xmlns="http://www.w3.org/2000/svg">
<path d="M3.99707 0C4.6553 -3.17255e-06 5.14468 -0.0076162 5.59082 0.128906C6.11749 0.29017 6.58896 0.595891 6.9502 1.01172L7.05957 1.14941C7.30467 1.47969 7.48099 1.88983 7.71484 2.41602L8.1543 3.4043C8.44383 4.05576 8.66764 4.5375 8.71582 5.04395C8.75921 5.50055 8.69564 5.96125 8.5293 6.38867C8.3447 6.86275 7.99739 7.26483 7.54102 7.8125C7.02068 8.43693 6.88242 8.61888 6.80664 8.82617C6.73355 9.02627 6.70336 9.31968 6.73438 9.53027C6.76714 9.75241 6.84622 9.91985 7.17188 10.5293C8.06163 12.1941 8.94545 13.077 10.6104 13.9668C11.2194 14.2922 11.3864 14.3725 11.6084 14.4053C11.819 14.4362 12.1127 14.406 12.3125 14.333C12.5197 14.2573 12.7021 14.1187 13.3262 13.5986C13.8739 13.1422 14.2759 12.795 14.75 12.6104C15.1775 12.444 15.6388 12.3794 16.0957 12.4229C16.6018 12.4712 17.0833 12.696 17.7344 12.9854L18.7227 13.4238C19.2491 13.6578 19.66 13.8339 19.9902 14.0791L20.127 14.1895L20.2773 14.3301C20.6167 14.6695 20.8687 15.0879 21.0098 15.5488C21.1461 15.9949 21.1387 16.4843 21.1387 17.1426C21.1387 17.6479 21.1391 18.0706 21.1113 18.4199C21.0827 18.7806 21.0214 19.1142 20.8721 19.4404C20.5525 20.1381 19.8854 20.744 19.1602 20.9951C18.52 21.2166 17.8656 21.1382 17 21.0547C11.942 20.5665 7.93844 18.9256 5.07617 16.0635C2.21388 13.2011 0.573111 9.19716 0.0849609 4.13867C0.00141175 3.27273 -0.0771153 2.619 0.144531 1.97852C0.395578 1.25336 1.00056 0.586204 1.69824 0.266602C2.02457 0.117202 2.35892 0.0560077 2.71973 0.0273438C3.06905 -0.000370353 3.4918 -7.74597e-08 3.99707 0ZM3.99707 1.5C3.46834 1.5 3.11424 1.50053 2.83789 1.52246C2.57343 1.5435 2.431 1.58156 2.32324 1.63086C1.99803 1.77982 1.67967 2.13069 1.5625 2.46875C1.47175 2.73089 1.4827 3.00506 1.57812 3.99414C2.04287 8.81022 3.58543 12.4516 6.13672 15.0029C8.68801 17.5541 12.3288 19.0968 17.1445 19.5615C18.1334 19.6569 18.4079 19.6679 18.6699 19.5771C19.0078 19.46 19.3587 19.1416 19.5078 18.8164C19.5572 18.7086 19.5952 18.5657 19.6162 18.3008C19.6381 18.0245 19.6387 17.6711 19.6387 17.1426C19.6387 16.387 19.6312 16.1676 19.5762 15.9873C19.4972 15.7293 19.3463 15.4984 19.1426 15.3213V15.3203C19.0361 15.228 18.898 15.151 18.5459 14.9893L18.1133 14.7949L17.125 14.3555C16.564 14.1061 16.3002 13.9946 16.1172 13.9463L15.9531 13.916C15.7295 13.8947 15.5034 13.9263 15.2939 14.0078C15.1024 14.0824 14.916 14.2269 14.2871 14.751C13.7405 15.2065 13.3354 15.5565 12.8271 15.7422C12.3928 15.9009 11.8468 15.9559 11.3896 15.8887C10.8583 15.8103 10.4478 15.581 9.90332 15.29C7.97671 14.2603 6.87827 13.1629 5.84863 11.2363C5.55747 10.6914 5.32837 10.2806 5.25 9.74902C5.18259 9.29148 5.23879 8.74593 5.39746 8.31152C5.58316 7.80328 5.93304 7.39932 6.38867 6.85254C6.9128 6.22357 7.05623 6.03637 7.13086 5.84473C7.2124 5.63532 7.24391 5.40926 7.22266 5.18555C7.20312 4.98088 7.1155 4.76139 6.7832 4.01367L6.34473 3.02539C6.03787 2.33496 5.94085 2.13838 5.81738 1.99609C5.6406 1.79255 5.41006 1.64254 5.15234 1.56348H5.15137C4.97123 1.50842 4.7524 1.5 3.99707 1.5Z" fill="#161616"/>
</svg>
