<svg width="116" height="117" viewBox="0 0 116 117" fill="none" xmlns="http://www.w3.org/2000/svg">
<path d="M29.6252 97.1667H106.902" stroke="#1B1B1B" stroke-width="3" stroke-linecap="round" stroke-linejoin="round"/>
<path d="M101.147 55.1176C103.198 50.2842 105.611 39.6511 106.455 36.7511C106.697 35.3011 107.034 34.0927 106.672 33.1261C106.455 31.9177 105.49 30.8786 103.439 29.9602C102.716 29.7427 95.8395 27.5194 94.7534 28.1236C94.2711 28.1719 92.8235 28.7761 91.7374 29.8636C90.2899 31.3136 87.3947 35.4219 85.3439 36.6302C84.499 37.1278 83.1723 38.2011 80.3975 37.3552C78.4936 36.8608 70.0227 32.6217 67.1271 31.1927C64.8351 30.0615 52.6358 24.112 51.0823 23.4594C46.7392 20.9219 30.9355 15.0011 15.6626 27.5919C14.046 29.2594 9.22045 33.1261 10.4268 36.3886C11.6332 39.6511 13.5633 39.6171 16.5793 40.4969C19.5953 41.3768 34.5544 45.4511 36.8467 46.0552C39.1389 46.6594 39.7421 46.7802 40.9485 47.8677C41.9136 48.7377 42.5168 50.4051 43.8438 53.1842C44.809 54.7551 46.4175 58.3399 46.9805 59.3467C47.5434 60.354 48.0662 61.5217 49.1519 62.6092C49.8759 63.3342 51.0823 64.1201 51.9267 64.5426C53.3743 65.2676 62.1811 67.4426 64.9555 68.1676C66.4035 68.1676 67.4166 67.0801 67.4166 66.1134C67.4891 65.1467 66.2005 60.3134 65.8723 58.2592C65.6795 57.0509 65.0763 55.2384 65.1971 54.5134C65.4383 53.0634 69.9019 55.0238 70.8671 55.2384C71.9527 55.4801 87.2739 59.7092 89.3246 60.0717C91.3754 60.4342 95.1155 61.1592 97.8903 59.3467C99.6999 58.0176 100.423 56.6884 101.147 55.1176Z" stroke="#1B1B1B" stroke-width="3"/>
</svg>
