<svg width="156" height="28" viewBox="0 0 156 28" fill="none" xmlns="http://www.w3.org/2000/svg">
<path fill-rule="evenodd" clip-rule="evenodd" d="M66.9629 22.9223L66.9646 22.9232L66.9664 22.924C67.666 23.2662 68.4384 23.4318 69.2741 23.4318C69.9923 23.4318 70.6384 23.3203 71.1977 23.0772C71.6609 22.8759 72.0668 22.6223 72.4052 22.3099V23.1453H75.7937V13.9686C75.7937 12.9647 75.6325 12.0924 75.2697 11.3895C74.9263 10.7185 74.4741 10.1828 73.9082 9.80348C73.3805 9.44644 72.81 9.20102 72.1995 9.06886C71.6271 8.93836 71.0773 8.87129 70.5514 8.87129C69.7685 8.87129 69.017 8.99173 68.2994 9.23503C67.5639 9.47868 66.9093 9.87386 66.3409 10.4188C65.7593 10.9758 65.3295 11.6969 65.0411 12.5602L64.8357 13.175L68.0973 13.9691L68.2712 13.5128C68.4007 13.1732 68.6436 12.8381 69.0374 12.5151L69.0381 12.5145C69.3704 12.2409 69.865 12.0704 70.583 12.0704C71.2618 12.0704 71.6738 12.2503 71.9201 12.51L71.9215 12.5114L71.9228 12.5128C72.1803 12.7806 72.3421 13.1843 72.3421 13.8085V13.8675C72.3421 13.9503 72.3282 13.9882 72.3224 14.0004C72.3187 14.0085 72.3136 14.0177 72.2928 14.0313C72.1892 14.0995 71.956 14.1854 71.5262 14.2444C71.0746 14.3006 70.4871 14.3735 69.7634 14.4632L69.7625 14.4633L69.7616 14.4634C69.1683 14.539 68.5853 14.6496 68.0128 14.7954C67.4149 14.9476 66.8657 15.1749 66.3692 15.4809C65.8421 15.8057 65.4199 16.2502 65.1094 16.8077C64.7828 17.3943 64.639 18.1063 64.639 18.9076C64.639 19.8442 64.837 20.6766 65.2635 21.3738L65.2645 21.3754L65.2655 21.3771C65.6858 22.0543 66.2561 22.5701 66.9629 22.9223ZM68.9081 17.7751C68.6075 17.8929 68.3893 18.053 68.2323 18.244C68.1184 18.3832 68.0353 18.5951 68.0353 18.9413C68.0353 19.3992 68.1814 19.6818 68.4472 19.8802C68.7656 20.1119 69.1993 20.2496 69.7866 20.2496C70.367 20.2496 70.8286 20.1273 71.1936 19.91L71.1948 19.9093L71.1959 19.9086C71.5874 19.6782 71.8661 19.3894 72.053 19.0461L72.0536 19.0451L72.0541 19.0441C72.2533 18.6818 72.35 18.3024 72.35 17.8962V17.0965C72.1448 17.152 71.9227 17.2015 71.6846 17.2454L71.6801 17.2462L71.6756 17.247C71.3691 17.2978 71.0704 17.3459 70.7795 17.3911L70.7747 17.3918L70.7699 17.3925C70.4816 17.4317 70.2413 17.4652 70.0487 17.493L70.0464 17.4934L70.0441 17.4937C69.6214 17.5508 69.2436 17.6457 68.9081 17.7751Z" fill="white"/>
<path fill-rule="evenodd" clip-rule="evenodd" d="M82.1025 9.34686C81.6886 9.58616 81.3324 9.8678 81.0453 10.197V9.03986H77.6569V28H81.1005V22.1215C81.3862 22.4343 81.7355 22.7035 82.1384 22.9335L82.1395 22.9341L82.1406 22.9347C82.7112 23.2568 83.4084 23.3981 84.2001 23.3981C85.2756 23.3981 86.2506 23.1027 87.1077 22.5024L87.1088 22.5017L87.1099 22.5009C87.9653 21.8955 88.6262 21.0412 89.0993 19.9626L89.0998 19.9615C89.5772 18.867 89.805 17.5796 89.805 16.1178C89.805 14.656 89.5746 13.3703 89.0909 12.2804C88.617 11.2005 87.9518 10.3503 87.0884 9.75605C86.2269 9.16317 85.2507 8.87129 84.1764 8.87129C83.3717 8.87129 82.6675 9.01437 82.1025 9.34686ZM85.0998 19.6171C85.4855 19.2868 85.7893 18.8308 86.0014 18.2244L86.0021 18.2225L86.0028 18.2205C86.2226 17.6056 86.3377 16.899 86.3377 16.0926C86.3377 15.2968 86.2251 14.6012 86.0104 13.9974L86.0097 13.9954L86.009 13.9935C85.8033 13.4023 85.5023 12.96 85.1144 12.6411L85.1132 12.6401L85.1121 12.6392C84.7511 12.339 84.2835 12.1716 83.6718 12.1716C83.0868 12.1716 82.6277 12.3306 82.2629 12.6204C81.889 12.9218 81.5909 13.3518 81.38 13.9399C81.167 14.534 81.0532 15.2476 81.0532 16.0926C81.0532 16.9481 81.1694 17.6728 81.3876 18.2781C81.6046 18.8804 81.9075 19.3239 82.2845 19.6369C82.6434 19.9294 83.0951 20.0894 83.6718 20.0894C84.2746 20.0894 84.7384 19.9212 85.0998 19.6171Z" fill="white"/>
<path d="M56.2074 19.1068L56.175 18.5639H52.5943L52.6153 19.1652C52.6455 20.0324 52.8999 20.8052 53.3872 21.4597L53.3883 21.4611L53.3894 21.4625C53.8708 22.101 54.6057 22.5828 55.3833 22.9177L55.3856 22.9187L55.3878 22.9196C56.1706 23.2482 57.0412 23.4066 57.9913 23.4066C58.9679 23.4066 59.8564 23.2425 60.6472 22.9006L60.6482 22.9002L60.6491 22.8998C61.4459 22.5516 62.0929 22.0457 62.5648 21.3714C63.0521 20.6829 63.2887 19.8722 63.2887 18.9666C63.2887 18.3279 63.1718 17.7354 62.9253 17.2016C62.6818 16.6743 62.3388 16.2404 61.8971 15.9119C61.828 15.8605 61.7575 15.8128 61.6856 15.7685C61.9033 15.6107 62.1028 15.4297 62.2826 15.2247C62.79 14.6466 63.0286 13.9132 63.0286 13.0752C63.0286 12.2552 62.8165 11.5104 62.3853 10.8617C61.9628 10.2181 61.372 9.72895 60.6387 9.38406C59.8976 9.03549 59.0418 8.87129 58.0859 8.87129C57.1632 8.87129 56.3191 9.03676 55.5635 9.38098C54.8157 9.71839 54.1061 10.2026 53.6432 10.8407L53.6427 10.8414C53.1738 11.4896 52.9329 12.2456 52.9146 13.087L52.9017 13.6802H56.4519L56.476 13.1274C56.4879 12.854 56.6015 12.6191 56.9052 12.4027L56.9071 12.4013L56.909 12.3999C57.2248 12.1707 57.645 12.0367 58.2042 12.0367C58.7507 12.0367 59.0996 12.1773 59.3229 12.3839L59.3261 12.3869L59.3294 12.3898C59.5557 12.5926 59.6716 12.8498 59.6716 13.2185C59.6716 13.5485 59.5674 13.8003 59.3499 14.0144C59.1581 14.2031 58.8156 14.3497 58.22 14.3497H55.7057V17.4898H58.22C58.6059 17.4898 58.9101 17.5603 59.1486 17.6795L59.1501 17.6803L59.1516 17.681C59.3984 17.8025 59.5693 17.9631 59.6865 18.1584L59.6897 18.1638L59.693 18.1691C59.8099 18.3546 59.8766 18.5818 59.8766 18.8739C59.8766 19.3524 59.7182 19.6398 59.4191 19.8373C59.0423 20.0802 58.5667 20.2159 57.9676 20.2159C57.3704 20.2159 56.9374 20.0876 56.6292 19.878C56.3597 19.6916 56.228 19.4517 56.2074 19.1068Z" fill="white"/>
<path fill-rule="evenodd" clip-rule="evenodd" d="M42.0753 22.5059L42.077 22.507L42.0787 22.5081C43.0393 23.1154 44.1664 23.4066 45.4383 23.4066C46.376 23.4066 47.2306 23.2544 47.993 22.9371L47.994 22.9367L47.995 22.9363C48.7553 22.6161 49.401 22.1629 49.9193 21.5706C50.4427 20.973 50.8067 20.2739 51.0085 19.481L51.1637 18.8708L47.9034 18.2427L47.7445 18.6959C47.6284 19.0266 47.4661 19.2911 47.2615 19.5013C47.0523 19.7161 46.8023 19.8814 46.5044 19.9956C46.2017 20.1061 45.8561 20.1653 45.4619 20.1653C44.8535 20.1653 44.3482 20.0272 43.9279 19.771C43.5108 19.5111 43.1798 19.1345 42.935 18.6214C42.7783 18.2858 42.668 17.891 42.6113 17.4308H51.1773V15.9577C51.1773 14.7352 51.0245 13.6634 50.7 12.7588C50.3818 11.8662 49.9386 11.1172 49.3603 10.5309C48.797 9.95979 48.1561 9.53644 47.4404 9.26676C46.7407 9.00316 46.0173 8.87129 45.2727 8.87129C44.0589 8.87129 42.9725 9.17875 42.0337 9.81225L42.0331 9.81269L42.0324 9.81313C41.1072 10.4414 40.3903 11.3141 39.8816 12.414L39.8811 12.4152L39.8805 12.4163C39.3758 13.5198 39.1316 14.7782 39.1316 16.1768C39.1316 17.5908 39.3753 18.8535 39.8816 19.9481L39.8824 19.9499L39.8832 19.9516C40.395 21.0398 41.1267 21.8963 42.0753 22.5059ZM42.6548 14.3834H47.7409C47.6919 14.0449 47.5986 13.7424 47.465 13.4718L47.4645 13.4707L47.4639 13.4695C47.2564 13.0442 46.9695 12.7162 46.5983 12.4744L46.5971 12.4737L46.5959 12.4729C46.2417 12.2395 45.8127 12.1126 45.2885 12.1126C44.7195 12.1126 44.2482 12.2606 43.8532 12.5391L43.8526 12.5395L43.852 12.5399C43.4419 12.8275 43.1272 13.201 42.902 13.6681C42.7932 13.896 42.7107 14.1341 42.6548 14.3834Z" fill="white"/>
<path fill-rule="evenodd" clip-rule="evenodd" d="M94.1521 22.5059L94.1538 22.507L94.1555 22.5081C95.116 23.1154 96.2432 23.4066 97.5151 23.4066C98.4528 23.4066 99.3074 23.2544 100.07 22.9371L100.071 22.9367L100.072 22.9363C100.832 22.6161 101.478 22.1629 101.996 21.5706C102.519 20.973 102.883 20.2739 103.085 19.481L103.241 18.8708L99.9802 18.2428L99.8212 18.6959C99.7052 19.0266 99.5429 19.2911 99.3383 19.5013C99.1291 19.7161 98.8791 19.8814 98.5812 19.9956C98.2785 20.1061 97.9328 20.1653 97.5387 20.1653C96.9303 20.1653 96.425 20.0272 96.0047 19.771C95.5876 19.5111 95.2566 19.1345 95.0118 18.6215C94.8551 18.2858 94.7447 17.891 94.6881 17.4308H103.254V15.9577C103.254 14.7352 103.101 13.6635 102.777 12.7589L102.777 12.7583C102.458 11.8659 102.015 11.1171 101.437 10.5309C100.874 9.95979 100.233 9.53644 99.5171 9.26676C98.8175 9.00316 98.0941 8.87129 97.3495 8.87129C96.1357 8.87129 95.0493 9.17875 94.1105 9.81225L94.1098 9.81269L94.1092 9.81313C93.1839 10.4414 92.4671 11.3141 91.9584 12.414L91.9573 12.4163C91.4526 13.5198 91.2084 14.7782 91.2084 16.1768C91.2084 17.5908 91.4521 18.8535 91.9584 19.9481L91.9592 19.9499L91.96 19.9516C92.4718 21.0398 93.2035 21.8963 94.1521 22.5059ZM94.7316 14.3834H99.8177C99.7687 14.0449 99.6754 13.7424 99.5418 13.4718L99.5413 13.4707L99.5407 13.4695C99.3331 13.0442 99.0463 12.7162 98.6751 12.4744L98.6739 12.4737L98.6727 12.4729C98.3185 12.2395 97.8895 12.1126 97.3653 12.1126C96.7963 12.1126 96.325 12.2606 95.93 12.5391L95.9294 12.5395L95.9288 12.5399C95.5188 12.8275 95.2041 13.201 94.9788 13.668C94.87 13.8959 94.7875 14.1341 94.7316 14.3834Z" fill="white"/>
<path d="M107.487 22.4642L107.489 22.4653L107.49 22.4665C108.437 23.1014 109.551 23.4066 110.807 23.4066C111.83 23.4066 112.749 23.2052 113.547 22.7818C114.339 22.3646 114.982 21.7846 115.464 21.041C115.944 20.2997 116.229 19.4593 116.322 18.5312L116.386 17.8896H113.055L112.958 18.3402C112.875 18.7305 112.732 19.0459 112.538 19.3006L112.536 19.3029L112.534 19.3053C112.342 19.5636 112.104 19.7627 111.812 19.9053C111.528 20.0414 111.201 20.1147 110.823 20.1147C110.257 20.1147 109.789 19.9574 109.396 19.6584C109.002 19.3538 108.681 18.9149 108.446 18.3135C108.212 17.715 108.086 16.9798 108.086 16.0926C108.086 15.2308 108.214 14.5148 108.451 13.9291L108.452 13.9275C108.692 13.3305 109.014 12.9001 109.407 12.6062L109.408 12.6058L109.408 12.6055C109.803 12.3094 110.267 12.1547 110.823 12.1547C111.472 12.1547 111.929 12.3413 112.253 12.6592L112.254 12.6604L112.255 12.6615C112.629 13.0234 112.857 13.4417 112.957 13.9256L113.052 14.3798H116.384L116.322 13.7406C116.229 12.7768 115.933 11.9163 115.425 11.1749C114.927 10.4398 114.272 9.87304 113.475 9.47434C112.672 9.0675 111.771 8.87129 110.783 8.87129C109.555 8.87129 108.461 9.17794 107.521 9.81225C106.589 10.4407 105.871 11.3142 105.368 12.4162C104.863 13.5139 104.619 14.7639 104.619 16.1516C104.619 17.5222 104.858 18.7621 105.35 19.858C105.844 20.9563 106.557 21.8301 107.487 22.4642Z" fill="white"/>
<path d="M121.354 22.7337L121.13 23.3917L121.13 23.3942C120.944 23.9265 120.751 24.2393 120.582 24.4021L120.58 24.4041L120.578 24.406C120.41 24.5707 120.233 24.648 120.029 24.6582C119.764 24.6715 119.438 24.6301 119.044 24.5173L118.532 24.3703L117.681 27.4655L118.115 27.6718C118.316 27.7674 118.581 27.8387 118.88 27.897C119.209 27.9669 119.565 28 119.944 28C120.657 28 121.308 27.8709 121.885 27.5955C122.461 27.3204 122.954 26.9085 123.362 26.3695C123.764 25.8448 124.085 25.2156 124.333 24.4927L124.334 24.4919L124.334 24.4912L129.589 9.03986H125.889L123.153 18.0018L120.417 9.03986H116.727L121.354 22.7337Z" fill="white"/>
<path fill-rule="evenodd" clip-rule="evenodd" d="M135.178 9.34699C134.764 9.58626 134.408 9.86785 134.121 10.197V9.03986H130.732V28H134.176V22.1215C134.462 22.4343 134.811 22.7035 135.214 22.9335L135.215 22.9341L135.216 22.9347C135.787 23.2568 136.484 23.3981 137.276 23.3981C138.351 23.3981 139.326 23.1027 140.183 22.5024L140.184 22.5017L140.185 22.5009C141.041 21.8955 141.702 21.0412 142.175 19.9626L142.175 19.9615C142.653 18.867 142.881 17.5796 142.881 16.1178C142.881 14.656 142.65 13.3703 142.167 12.2804C141.693 11.2005 141.027 10.3503 140.164 9.75605C139.302 9.16317 138.326 8.87129 137.252 8.87129C136.447 8.87129 135.743 9.0144 135.178 9.34699ZM138.176 19.6169C138.561 19.2866 138.865 18.8307 139.077 18.2244L139.078 18.2205C139.298 17.6056 139.413 16.899 139.413 16.0926C139.413 15.2968 139.301 14.6012 139.086 13.9974L139.085 13.9954L139.085 13.9935C138.879 13.4023 138.578 12.96 138.19 12.6411L138.189 12.6401L138.188 12.6392C137.827 12.339 137.359 12.1716 136.747 12.1716C136.162 12.1716 135.703 12.3306 135.338 12.6204C134.965 12.9218 134.666 13.3518 134.456 13.9399C134.243 14.534 134.129 15.2477 134.129 16.0926C134.129 16.9481 134.245 17.6728 134.463 18.2781C134.68 18.8805 134.983 19.3241 135.36 19.6371C135.719 19.9295 136.171 20.0894 136.747 20.0894C137.35 20.0894 137.814 19.9212 138.176 19.6169Z" fill="white"/>
<path d="M147.101 22.4642L147.102 22.4653L147.104 22.4665C148.051 23.1014 149.164 23.4066 150.42 23.4066C151.443 23.4066 152.362 23.2052 153.161 22.7818C153.953 22.3646 154.596 21.7846 155.078 21.041C155.558 20.2997 155.842 19.4593 155.936 18.5312L156 17.8896H152.668L152.572 18.3402C152.488 18.7304 152.345 19.0459 152.151 19.3006L152.15 19.3029L152.148 19.3053C151.955 19.5636 151.717 19.7627 151.426 19.9053C151.142 20.0414 150.815 20.1147 150.436 20.1147C149.87 20.1147 149.403 19.9574 149.01 19.6584C148.615 19.3538 148.295 18.9149 148.06 18.3135C147.826 17.715 147.699 16.9798 147.699 16.0926C147.699 15.2308 147.827 14.5148 148.065 13.9291L148.065 13.9275C148.305 13.3305 148.628 12.9001 149.021 12.6062L149.021 12.6058L149.022 12.6055C149.416 12.3094 149.881 12.1547 150.436 12.1547C151.086 12.1547 151.542 12.3414 151.866 12.6592L151.868 12.6604L151.869 12.6615C152.242 13.0234 152.47 13.4417 152.571 13.9256L152.665 14.3798H155.998L155.936 13.7406C155.843 12.7768 155.546 11.9163 155.038 11.1749C154.54 10.4399 153.886 9.87304 153.088 9.47434C152.285 9.0675 151.384 8.87129 150.397 8.87129C149.169 8.87129 148.074 9.17794 147.134 9.81225C146.203 10.4405 145.485 11.3137 144.981 12.4152C144.477 13.5131 144.232 14.7635 144.232 16.1516C144.232 17.5222 144.471 18.7621 144.964 19.858C145.457 20.9563 146.17 21.8301 147.101 22.4642Z" fill="white"/>
<path fill-rule="evenodd" clip-rule="evenodd" d="M22.5651 0.000111565L15.2984 0L0 23.1453H7.22763L22.5651 0.000111565Z" fill="white"/>
<path fill-rule="evenodd" clip-rule="evenodd" d="M37.4972 13.5829C35.1483 17.0745 31.053 18.9952 27.0264 18.9952H19.147L16.3969 23.1453H9.16928L24.4677 0C24.4677 0 27.7993 9.64672e-05 29.9564 0.000106269C30.5315 0.000108881 32.3374 0.0001171 33.9479 0.249301C36.3639 0.623123 38.003 1.67191 39.02 3.35793C40.0893 5.13076 40.1653 7.3576 39.391 9.80684C39.3282 10.0054 39.2588 10.1902 39.1878 10.3788L39.1876 10.3793C39.1569 10.4611 39.1258 10.5437 39.095 10.6284C38.6606 11.6792 38.1248 12.6499 37.4972 13.5829ZM28.1671 5.34572L22.7168 13.5395H26.5119C29.5013 13.5395 31.1644 12.46 32.2673 11.1704C32.7231 10.6375 33.2785 9.8621 33.5777 9.20794C33.9369 8.42296 34.1899 7.32025 33.7178 6.53527C33.3195 5.873 32.578 5.46725 31.6896 5.38316C30.7013 5.28962 30.0959 5.30601 29.3554 5.32606C29.0071 5.33549 28.629 5.34573 28.1671 5.34572Z" fill="white"/>
</svg>
