<svg width="26" height="26" viewBox="0 0 26 26" fill="none" xmlns="http://www.w3.org/2000/svg">
<path d="M18.5024 13.6309C18.7635 13.5409 19.0481 13.6795 19.1382 13.9404C19.2282 14.2015 19.0897 14.4862 18.8286 14.5762C18.5135 14.6848 18.1561 14.9154 17.7837 15.2334C17.4163 15.5471 17.0605 15.9236 16.7456 16.291C16.4318 16.6573 16.1652 17.0081 15.9771 17.2676C15.8834 17.3968 15.8094 17.503 15.7593 17.5762C15.7344 17.6125 15.7152 17.6413 15.7026 17.6602C15.6964 17.6696 15.691 17.6771 15.688 17.6816C15.6866 17.6837 15.6857 17.6856 15.6851 17.6865L15.6841 17.6875C15.5867 17.8364 15.4175 17.9223 15.2397 17.9131C15.0619 17.9039 14.9022 17.8009 14.8208 17.6426C14.5686 17.1515 14.339 16.9491 14.2144 16.8682C14.1522 16.8278 14.1105 16.8136 14.0962 16.8096L14.0933 16.8086C14.0962 16.809 14.1015 16.8092 14.1079 16.8096C14.111 16.8098 14.1147 16.8104 14.1187 16.8105H14.1313C13.8557 16.81 13.6324 16.5863 13.6323 16.3105C13.6323 16.0344 13.8562 15.8105 14.1323 15.8105H14.1499C14.1561 15.8107 14.1631 15.8111 14.1704 15.8115C14.1854 15.8125 14.2027 15.8139 14.2222 15.8164C14.2613 15.8215 14.309 15.8305 14.3638 15.8457C14.4739 15.8763 14.6088 15.9323 14.7583 16.0293C14.9264 16.1384 15.105 16.2967 15.2856 16.5215C15.4728 16.2696 15.7113 15.9611 15.9858 15.6406C16.3208 15.2496 16.7144 14.8322 17.1343 14.4736C17.5493 14.1192 18.0177 13.7981 18.5024 13.6309ZM15.2671 8.08594C16.0544 8.08594 16.6939 8.08461 17.1968 8.15039C17.7128 8.21793 18.1602 8.36452 18.5181 8.71289C18.8775 9.06302 19.0299 9.50325 19.1001 10.0117C19.1682 10.5046 19.1665 11.1308 19.1665 11.8965V12.4482C19.1664 12.7243 18.9426 12.9482 18.6665 12.9482C18.3906 12.9481 18.1666 12.7242 18.1665 12.4482V11.8965C18.1665 11.6574 18.1623 11.441 18.1606 11.2441C17.0502 11.0418 16.1572 10.1908 15.9478 9.09082C15.7424 9.08906 15.5166 9.08594 15.2671 9.08594H10.7339C10.4836 9.08594 10.2572 9.08905 10.0513 9.09082C9.84279 10.1929 8.9537 11.0473 7.83838 11.2461C7.83671 11.4425 7.8335 11.6582 7.8335 11.8965V13C7.8335 13.2379 7.83671 13.4533 7.83838 13.6494C8.95343 13.8481 9.84242 14.7031 10.0513 15.8047C10.2572 15.8065 10.4836 15.8105 10.7339 15.8105H12.4331C12.7092 15.8105 12.9331 16.0344 12.9331 16.3105C12.9329 16.5865 12.7091 16.8105 12.4331 16.8105H10.7339C10.3167 16.8105 9.94093 16.8095 9.60498 16.7998C9.60335 16.7998 9.60173 16.8008 9.6001 16.8008C9.59584 16.8008 9.59164 16.7989 9.5874 16.7988C9.29619 16.7901 9.0351 16.7755 8.80322 16.7451C8.28734 16.6776 7.84069 16.5318 7.48291 16.1836C7.12336 15.8335 6.97115 15.3932 6.90088 14.8848C6.8695 14.6575 6.8532 14.4018 6.84424 14.1172C6.84412 14.1126 6.84326 14.1081 6.84326 14.1035C6.84326 14.1016 6.84324 14.0996 6.84326 14.0977C6.8334 13.7701 6.8335 13.4045 6.8335 13V11.8965C6.8335 11.4915 6.83338 11.1256 6.84326 10.7979C6.84325 10.7962 6.84326 10.7946 6.84326 10.793C6.84326 10.7881 6.8441 10.7832 6.84424 10.7783C6.8532 10.4941 6.86953 10.2388 6.90088 10.0117C6.97112 9.50312 7.12328 9.06306 7.48291 8.71289C7.84072 8.36451 8.28724 8.21793 8.80322 8.15039C9.30616 8.08456 9.94629 8.08594 10.7339 8.08594H15.2671ZM7.89111 14.7471C7.94534 15.1397 8.04201 15.3322 8.18018 15.4668C8.32028 15.6032 8.52323 15.7003 8.93311 15.7539C8.95699 15.757 8.98155 15.758 9.00635 15.7607C8.83023 15.2555 8.41623 14.8514 7.88428 14.6855C7.88679 14.7063 7.88834 14.7269 7.89111 14.7471ZM13.0005 10.293C14.2028 10.2931 15.2007 11.2455 15.2007 12.4482C15.2006 13.6509 14.2027 14.6034 13.0005 14.6035C11.7981 14.6035 10.8003 13.651 10.8003 12.4482C10.8003 11.2455 11.7981 10.293 13.0005 10.293ZM13.0005 11.293C12.325 11.293 11.8003 11.8228 11.8003 12.4482C11.8003 13.0737 12.3251 13.6035 13.0005 13.6035C13.6758 13.6034 14.2006 13.0736 14.2007 12.4482C14.2007 11.8228 13.6758 11.2931 13.0005 11.293ZM8.93311 9.14258C8.52333 9.19622 8.32028 9.29236 8.18018 9.42871C8.04194 9.5633 7.94536 9.75569 7.89111 10.1484C7.88833 10.1686 7.8868 10.1892 7.88428 10.21C8.41642 10.044 8.83045 9.64033 9.00635 9.13477C8.98151 9.13756 8.95703 9.13945 8.93311 9.14258ZM16.9937 9.13574C17.1704 9.63732 17.5848 10.04 18.1147 10.208C18.1123 10.1879 18.1116 10.1679 18.1089 10.1484C18.0546 9.75572 17.9581 9.56329 17.8198 9.42871C17.6797 9.29244 17.4765 9.1962 17.0669 9.14258C17.043 9.13945 17.0184 9.13853 16.9937 9.13574Z" fill="url(#paint0_linear_1_607)"/>
<defs>
<linearGradient id="paint0_linear_1_607" x1="13" y1="8.08594" x2="13" y2="17.9138" gradientUnits="userSpaceOnUse">
<stop stop-color="#FF1D00"/>
<stop offset="1" stop-color="#FF6900"/>
</linearGradient>
</defs>
</svg>
