<svg width="26" height="26" viewBox="0 0 26 26" fill="none" xmlns="http://www.w3.org/2000/svg">
<path d="M17.8979 11.6846C18.1499 11.5722 18.4465 11.6846 18.5591 11.9365C18.764 12.3951 18.8918 12.896 18.9263 13.4219C18.9523 13.8192 18.9523 14.2306 18.9263 14.6279C18.8732 15.4377 18.5175 16.16 18.1323 16.7373C18.0586 16.8759 18.0783 17.1334 18.2905 17.5303C18.3631 17.666 18.4453 17.8165 18.4927 17.9473C18.541 18.0807 18.6042 18.3305 18.4556 18.5811C18.3212 18.8072 18.1074 18.8848 17.9546 18.9141C17.8242 18.9389 17.6663 18.9413 17.5405 18.9443C16.8549 18.9608 16.3637 18.7639 15.9741 18.4805C15.9397 18.4554 15.91 18.4345 15.8843 18.416C15.8428 18.4324 15.7907 18.4529 15.7251 18.4795C15.4606 18.587 15.1619 18.651 14.8882 18.6689C14.2134 18.7132 13.5076 18.7133 12.8315 18.6689C11.8876 18.607 11.0643 18.2443 10.3882 17.6846C10.1756 17.5084 10.1467 17.1931 10.3228 16.9805C10.4989 16.7682 10.8143 16.7381 11.0269 16.9141C11.5546 17.3509 12.1804 17.6238 12.897 17.6709C13.5294 17.7124 14.1916 17.7123 14.8228 17.6709C14.9984 17.6593 15.1908 17.6167 15.3481 17.5527C15.4598 17.5074 15.5627 17.4657 15.644 17.4375C15.6997 17.4182 15.8486 17.3645 16.0083 17.3838C16.1608 17.4024 16.2818 17.4791 16.3345 17.5127C16.401 17.5552 16.4811 17.613 16.562 17.6719C16.7598 17.8158 17.0035 17.9289 17.3784 17.9434C17.1554 17.5081 16.9262 16.8448 17.2622 16.2441L17.2847 16.209C17.6294 15.6981 17.8906 15.1367 17.9282 14.5625C17.9514 14.2087 17.9514 13.8411 17.9282 13.4873C17.9016 13.0817 17.8033 12.6967 17.646 12.3447C17.5334 12.0927 17.6461 11.7974 17.8979 11.6846ZM11.1118 7.08887C11.7864 7.04463 12.4915 7.04456 13.1675 7.08887C15.3363 7.23114 17.0635 8.96012 17.2056 11.1299C17.2316 11.5272 17.2316 11.9386 17.2056 12.3359C17.0632 14.5054 15.3361 16.2337 13.1675 16.376C12.4915 16.4203 11.7864 16.4203 11.1118 16.376C10.838 16.358 10.5394 16.295 10.2749 16.1875C10.2089 16.1607 10.1564 16.1404 10.1147 16.124C10.0892 16.1424 10.0599 16.1637 10.0259 16.1885C9.63637 16.4718 9.14481 16.6687 8.45947 16.6523C8.33354 16.6493 8.17485 16.647 8.04443 16.6221C7.89164 16.5928 7.67785 16.5151 7.54346 16.2891C7.3947 16.0386 7.45903 15.7888 7.50732 15.6553C7.55465 15.5246 7.6369 15.374 7.70947 15.2383C7.92169 14.8414 7.94046 14.5839 7.8667 14.4453C7.4816 13.8681 7.1269 13.1456 7.07373 12.3359C7.04771 11.9386 7.04773 11.5272 7.07373 11.1299C7.21582 8.96027 8.94324 7.23134 11.1118 7.08887ZM13.1021 8.08691C12.4697 8.04546 11.8083 8.04553 11.1772 8.08691C9.51007 8.1965 8.18111 9.52581 8.07178 11.1953C8.04863 11.5491 8.04861 11.9167 8.07178 12.2705C8.1048 12.773 8.30883 13.2652 8.59033 13.7227L8.71533 13.916L8.73682 13.9521C9.0729 14.5529 8.84265 15.2151 8.61963 15.6504C8.99518 15.6362 9.23904 15.5238 9.43701 15.3799C9.5178 15.3211 9.59804 15.2632 9.66455 15.2207C9.71708 15.1872 9.83826 15.1105 9.99072 15.0918L10.1079 15.0889C10.2194 15.0967 10.3133 15.131 10.355 15.1455C10.4364 15.1738 10.54 15.2153 10.6519 15.2607C10.8092 15.3247 11.0016 15.3674 11.1772 15.3789C11.8082 15.4203 12.4697 15.4204 13.1021 15.3789C14.7693 15.2695 16.0979 13.9399 16.2075 12.2705C16.2307 11.9167 16.2307 11.5491 16.2075 11.1953C16.0982 9.52567 14.7694 8.19629 13.1021 8.08691ZM12.146 13.3604C12.4221 13.3604 12.646 13.5843 12.646 13.8604C12.646 14.1365 12.4221 14.3603 12.146 14.3604H12.1401C11.864 14.3604 11.6401 14.1365 11.6401 13.8604C11.6402 13.5842 11.864 13.3604 12.1401 13.3604H12.146ZM12.1401 8.77539C13.0075 8.77546 13.7866 9.42968 13.7866 10.3262C13.7865 10.644 13.6847 10.9388 13.5142 11.1816C13.4115 11.3278 13.2918 11.4663 13.1851 11.5879C13.0726 11.716 12.9744 11.8252 12.8853 11.9375C12.7009 12.1699 12.6402 12.3165 12.6401 12.4277C12.6399 12.7036 12.4161 12.9277 12.1401 12.9277C11.8642 12.9277 11.6404 12.7037 11.6401 12.4277C11.6402 11.959 11.8902 11.5823 12.1021 11.3154C12.2111 11.178 12.3337 11.0421 12.4341 10.9277C12.54 10.8071 12.6274 10.7039 12.6958 10.6064C12.755 10.5221 12.7865 10.4263 12.7866 10.3262C12.7866 10.0621 12.5389 9.77545 12.1401 9.77539C11.7978 9.77542 11.4937 10.1028 11.4937 10.4219C11.4934 10.6978 11.2696 10.9219 10.9937 10.9219C10.7177 10.9219 10.4939 10.6978 10.4937 10.4219C10.4937 9.58026 11.2163 8.77542 12.1401 8.77539Z" fill="url(#paint0_linear_1_621)"/>
<defs>
<linearGradient id="paint0_linear_1_621" x1="13" y1="7.05566" x2="13" y2="18.9453" gradientUnits="userSpaceOnUse">
<stop stop-color="#FF1D00"/>
<stop offset="1" stop-color="#FF6900"/>
</linearGradient>
</defs>
</svg>
