<svg width="26" height="26" viewBox="0 0 26 26" fill="none" xmlns="http://www.w3.org/2000/svg">
<path d="M8.68848 7.64941C9.26215 7.64954 9.72751 8.11478 9.72754 8.68848V16.2334C9.72754 16.3109 9.70941 16.3877 9.6748 16.457L8.86621 18.0742C8.78154 18.2435 8.60826 18.3505 8.41895 18.3506C8.22963 18.3506 8.0564 18.2435 7.97168 18.0742L7.16309 16.457C7.12845 16.3877 7.11035 16.3109 7.11035 16.2334V8.68848C7.11038 8.11472 7.57566 7.64944 8.14941 7.64941H8.68848ZM15.1553 7.64941C15.776 7.64941 16.2923 7.64834 16.7002 7.70312C17.1223 7.75989 17.503 7.88504 17.8086 8.19043C18.1141 8.49602 18.2391 8.87668 18.2959 9.29883C18.3507 9.70683 18.3496 10.2236 18.3496 10.8447V13.001C18.3494 13.277 18.1256 13.501 17.8496 13.501C17.5739 13.5006 17.3498 13.2767 17.3496 13.001V10.8447C17.3496 10.1955 17.3495 9.7585 17.3057 9.43262C17.2638 9.12115 17.1905 8.98641 17.1016 8.89746C17.0126 8.80873 16.8781 8.73615 16.5674 8.69434C16.2416 8.65056 15.8043 8.64941 15.1553 8.64941H13.5381C12.8894 8.64941 12.4526 8.65057 12.127 8.69434C11.8157 8.73622 11.6807 8.80854 11.5918 8.89746C11.5029 8.98642 11.4305 9.12125 11.3887 9.43262C11.3449 9.7585 11.3438 10.1954 11.3438 10.8447V15.1572C11.3438 15.806 11.3449 16.2426 11.3887 16.5684C11.4305 16.8795 11.503 17.0145 11.5918 17.1035C11.6683 17.18 11.777 17.2423 11.9951 17.2852C12.2277 17.3307 12.5425 17.3467 13.0039 17.3506C13.2799 17.353 13.5022 17.5785 13.5 17.8545C13.4977 18.1306 13.2712 18.3529 12.9951 18.3506C12.5373 18.3467 12.1379 18.332 11.8037 18.2666C11.4555 18.1983 11.1425 18.0683 10.8848 17.8105C10.5793 17.5049 10.4542 17.1244 10.3975 16.7021C10.3426 16.2942 10.3437 15.7781 10.3438 15.1572V10.8447C10.3438 10.2236 10.3426 9.70683 10.3975 9.29883C10.4543 8.87668 10.5793 8.49603 10.8848 8.19043C11.1903 7.88486 11.571 7.75995 11.9932 7.70312C12.401 7.64829 12.9174 7.64941 13.5381 7.64941H15.1553ZM18.166 14.1699C18.413 14.0465 18.7134 14.1466 18.8369 14.3936C18.9601 14.6404 18.86 14.941 18.6133 15.0645C17.632 15.5551 16.9493 16.2956 16.5088 16.9248C16.2894 17.2382 16.1327 17.5197 16.0322 17.7207C15.9821 17.8209 15.9467 17.901 15.9238 17.9541C15.9125 17.9804 15.9044 18.0004 15.8994 18.0127C15.897 18.0188 15.8944 18.0231 15.8936 18.0254V18.0264C15.8277 18.2019 15.6686 18.3261 15.4824 18.3477C15.2963 18.369 15.1138 18.2837 15.0098 18.1279C14.79 17.7984 14.512 17.5745 14.2852 17.4326C14.1726 17.3623 14.0746 17.3133 14.0078 17.2832C13.9749 17.2684 13.949 17.2589 13.9336 17.2529L13.9189 17.2471H13.9199C13.6583 17.1598 13.5166 16.877 13.6035 16.6152C13.6908 16.3533 13.9744 16.2115 14.2363 16.2988H14.2373L14.2393 16.2998C14.2405 16.3001 14.2426 16.3003 14.2441 16.3008C14.2473 16.3019 14.2514 16.3041 14.2559 16.3057C14.2655 16.3091 14.2788 16.3135 14.2939 16.3193C14.3249 16.3313 14.3673 16.3493 14.418 16.3721C14.5195 16.4178 14.658 16.4872 14.8145 16.585C14.9652 16.6792 15.1359 16.8018 15.3076 16.957C15.4101 16.7762 15.5364 16.5702 15.6895 16.3516C16.1921 15.6335 16.9916 14.7571 18.166 14.1699ZM8.11035 10.8057V16.1152L8.41895 16.7324L8.72754 16.1152V10.8057H8.11035ZM15.6943 11.9609C15.9704 11.961 16.1943 12.1849 16.1943 12.4609C16.1943 12.737 15.9704 12.9609 15.6943 12.9609H13C12.7239 12.9609 12.5 12.7371 12.5 12.4609C12.5001 12.1848 12.7239 11.9609 13 11.9609H15.6943ZM15.6943 9.80566C15.9704 9.80573 16.1943 10.0296 16.1943 10.3057C16.1941 10.5816 15.9703 10.8056 15.6943 10.8057H13C12.724 10.8057 12.5002 10.5816 12.5 10.3057C12.5 10.0295 12.7239 9.80566 13 9.80566H15.6943ZM8.14941 8.64941C8.12794 8.64944 8.11038 8.66701 8.11035 8.68848V9.80566H8.72754V8.68848C8.72751 8.66707 8.70986 8.64954 8.68848 8.64941H8.14941Z" fill="url(#paint0_linear_1_632)"/>
<defs>
<linearGradient id="paint0_linear_1_632" x1="13" y1="7.64941" x2="13" y2="18.3509" gradientUnits="userSpaceOnUse">
<stop stop-color="#FF1D00"/>
<stop offset="1" stop-color="#FF6900"/>
</linearGradient>
</defs>
</svg>
