<svg width="26" height="26" viewBox="0 0 26 26" fill="none" xmlns="http://www.w3.org/2000/svg">
<path d="M15.209 11.3906C17.328 11.3907 19.0488 13.1042 19.0488 15.2207C19.0485 17.3369 17.3277 19.0507 15.209 19.0508C13.0904 19.0506 11.3705 17.3368 11.3701 15.2207C11.3701 13.1043 13.0901 11.3908 15.209 11.3906ZM15.209 12.3906C13.6398 12.3908 12.3701 13.6593 12.3701 15.2207C12.3705 16.7819 13.64 18.0506 15.209 18.0508C16.7781 18.0507 18.0485 16.782 18.0488 15.2207C18.0488 13.6592 16.7783 12.3907 15.209 12.3906ZM16.3809 13.6416C16.639 13.5444 16.9278 13.6746 17.0254 13.9326C17.1229 14.1907 16.9923 14.4793 16.7344 14.5771C16.5787 14.636 16.3823 14.7708 16.1611 14.9775C15.9456 15.1792 15.7326 15.4236 15.543 15.666C15.3544 15.9071 15.1936 16.139 15.0801 16.3105C15.0237 16.3958 14.9792 16.4666 14.9492 16.5146C14.9345 16.5382 14.9234 16.5572 14.916 16.5693C14.9126 16.575 14.909 16.5793 14.9072 16.582C14.9067 16.5829 14.9064 16.5843 14.9062 16.585C14.8116 16.7438 14.6358 16.8381 14.4512 16.8291C14.2665 16.8199 14.102 16.7094 14.0234 16.542C13.8767 16.229 13.7519 16.1204 13.709 16.0898C13.7046 16.0868 13.7022 16.082 13.6992 16.0801C13.4629 16.0404 13.2824 15.8374 13.2822 15.5898C13.2824 15.3139 13.5062 15.0898 13.7822 15.0898V15.3945C13.7823 15.1185 13.7828 15.0923 13.7832 15.0898H13.7998C13.806 15.0901 13.8134 15.0903 13.8203 15.0908C13.8346 15.0918 13.851 15.0933 13.8682 15.0957C13.9028 15.1007 13.9431 15.1096 13.9873 15.123C14.077 15.1504 14.1805 15.1972 14.2891 15.2744C14.3496 15.3175 14.41 15.3697 14.4707 15.4307C14.5556 15.3114 14.6524 15.1821 14.7559 15.0498C14.964 14.7838 15.2114 14.4961 15.4775 14.2471C15.7381 14.0034 16.0472 13.7677 16.3809 13.6416ZM13.7275 16.0859C13.7346 16.0869 13.743 16.0883 13.752 16.0889C13.7564 16.0891 13.7617 16.0887 13.7666 16.0889C13.7689 16.089 13.772 16.0898 13.7744 16.0898H13.7812L13.7822 16.0889C13.758 16.0889 13.7342 16.0854 13.7109 16.082C13.7156 16.0831 13.7213 16.0851 13.7275 16.0859ZM17.1016 6.95996C18.1948 7.07052 19.0498 7.99197 19.0498 9.11426V11.4072C19.0496 11.6832 18.8258 11.9072 18.5498 11.9072C18.2739 11.9072 18.0501 11.6831 18.0498 11.4072V9.11426C18.0498 8.5123 17.5908 8.01483 17 7.95508L16.8799 7.94922H9.12012C8.47283 7.94922 7.95022 8.47222 7.9502 9.11426V11.3174C7.9502 11.9595 8.47281 12.4824 9.12012 12.4824H10.7197C10.9959 12.4824 11.2197 12.7063 11.2197 12.9824C11.2197 13.2586 10.9959 13.4824 10.7197 13.4824H9.12012C7.92319 13.4824 6.9502 12.5144 6.9502 11.3174V9.11426C6.95022 7.91728 7.9232 6.94922 9.12012 6.94922H16.8799L17.1016 6.95996ZM10.2012 9.72656C10.4769 9.72706 10.7012 9.95073 10.7012 10.2266C10.7011 10.5023 10.4768 10.7261 10.2012 10.7266H10.1943C9.91826 10.7266 9.69444 10.5026 9.69434 10.2266C9.69434 9.95042 9.91819 9.72656 10.1943 9.72656H10.2012ZM13.0762 9.73633C13.3039 9.78302 13.4756 9.985 13.4756 10.2266C13.4755 10.468 13.3039 10.6701 13.0762 10.7168L12.9756 10.7266H12.9688C12.6929 10.7263 12.4689 10.5025 12.4688 10.2266C12.4688 9.95058 12.6928 9.72682 12.9688 9.72656H12.9756L13.0762 9.73633ZM15.751 9.72656C16.0269 9.72681 16.251 9.95057 16.251 10.2266C16.2509 10.5025 16.0268 10.7263 15.751 10.7266H15.7441C15.4683 10.7263 15.2442 10.5025 15.2441 10.2266C15.2441 9.95056 15.4682 9.72679 15.7441 9.72656H15.751Z" fill="url(#paint0_linear_1_645)"/>
<defs>
<linearGradient id="paint0_linear_1_645" x1="13" y1="6.94922" x2="13" y2="19.0508" gradientUnits="userSpaceOnUse">
<stop stop-color="#FF1D00"/>
<stop offset="1" stop-color="#FF6900"/>
</linearGradient>
</defs>
</svg>
