<svg width="38" height="38" viewBox="0 0 38 38" fill="none" xmlns="http://www.w3.org/2000/svg">
<path fill-rule="evenodd" clip-rule="evenodd" d="M19.4083 37.8916C15.679 37.8916 13.946 37.3448 10.9336 35.1577C9.02815 37.6182 2.99426 39.541 2.73113 36.2512C2.73113 33.7816 2.18672 31.6948 1.56972 29.4165C0.834764 26.6098 0 23.484 0 18.9549C0 8.13785 8.83761 0 19.3084 0C29.7884 0 37.9999 8.53882 37.9999 19.0551C38.0168 24.0277 36.0687 28.8038 32.5831 32.3353C29.0975 35.8667 24.3592 37.865 19.4083 37.8916ZM19.5625 9.34987C14.4632 9.08559 10.489 12.6305 9.60886 18.1894C8.88297 22.7914 10.1714 28.3959 11.2693 28.6875C11.7956 28.8151 13.1203 27.7398 13.946 26.9105C15.3113 27.8578 16.9012 28.4267 18.5553 28.5599C21.0953 28.6826 23.5817 27.7996 25.4803 26.1007C27.3789 24.4017 28.5381 22.0225 28.7086 19.4743C28.8079 16.9209 27.9052 14.4304 26.1947 12.5386C24.4842 10.6469 22.1027 9.5051 19.5625 9.35898V9.34987Z" fill="url(#paint0_linear_1_1515)"/>
<defs>
<linearGradient id="paint0_linear_1_1515" x1="1.9" y1="33.25" x2="38" y2="7.6" gradientUnits="userSpaceOnUse">
<stop stop-color="#FF2800"/>
<stop offset="1" stop-color="#FF6100"/>
</linearGradient>
</defs>
</svg>
