<svg width="38" height="38" viewBox="0 0 38 38" fill="none" xmlns="http://www.w3.org/2000/svg">
<path d="M19 0C8.512 0 0 8.512 0 19C0 29.488 8.512 38 19 38C29.488 38 38 29.488 38 19C38 8.512 29.488 0 19 0ZM27.816 12.92C27.531 15.922 26.296 23.218 25.669 26.581C25.403 28.006 24.871 28.481 24.377 28.538C23.275 28.633 22.439 27.816 21.375 27.113C19.703 26.011 18.753 25.327 17.138 24.263C15.257 23.028 16.473 22.344 17.556 21.242C17.841 20.957 22.705 16.53 22.8 16.131C22.8132 16.0706 22.8114 16.0078 22.7949 15.9482C22.7783 15.8886 22.7475 15.834 22.705 15.789C22.591 15.694 22.439 15.732 22.306 15.751C22.135 15.789 19.475 17.556 14.288 21.052C13.528 21.565 12.844 21.831 12.236 21.812C11.552 21.793 10.26 21.432 9.291 21.109C8.094 20.729 7.163 20.52 7.239 19.855C7.277 19.513 7.752 19.171 8.645 18.81C14.193 16.397 17.879 14.801 19.722 14.041C25.004 11.837 26.087 11.457 26.809 11.457C26.961 11.457 27.322 11.495 27.55 11.685C27.74 11.837 27.797 12.046 27.816 12.198C27.797 12.312 27.835 12.654 27.816 12.92Z" fill="url(#paint0_linear_1_1514)"/>
<defs>
<linearGradient id="paint0_linear_1_1514" x1="3.8" y1="32.3" x2="38" y2="10.45" gradientUnits="userSpaceOnUse">
<stop stop-color="#FE2400"/>
<stop offset="1" stop-color="#FF6100"/>
</linearGradient>
</defs>
</svg>
