<svg width="38" height="38" viewBox="0 0 38 38" fill="none" xmlns="http://www.w3.org/2000/svg">
<path d="M19 0C29.4937 0 38 8.50629 38 19C38 29.4937 29.4937 38 19 38C15.6422 38.0058 12.3435 37.1171 9.44302 35.4255L0.00762936 38L2.57643 28.5608C0.88345 25.6593 -0.00585509 22.3592 2.90105e-05 19C2.90105e-05 8.50629 8.50632 0 19 0ZM12.5248 10.07L12.1448 10.0852C11.8991 10.1021 11.6591 10.1667 11.438 10.2752C11.232 10.3921 11.0439 10.538 10.8794 10.7084C10.6514 10.9231 10.5222 11.1093 10.3835 11.2898C9.68075 12.2035 9.30237 13.3253 9.30812 14.478C9.31192 15.409 9.55512 16.3153 9.93512 17.1627C10.7122 18.8765 11.9909 20.691 13.6781 22.3725C14.0847 22.7772 14.4837 23.1838 14.9131 23.5619C17.0096 25.4075 19.5078 26.7386 22.2091 27.4493L23.2883 27.6146C23.6398 27.6336 23.9913 27.607 24.3447 27.5899C24.898 27.5607 25.4381 27.4109 25.9274 27.151C26.176 27.0224 26.4188 26.883 26.6551 26.733C26.6551 26.733 26.7355 26.6785 26.8926 26.562C27.1491 26.372 27.3068 26.2371 27.5196 26.0148C27.6792 25.8501 27.8122 25.6588 27.9186 25.441C28.0668 25.1313 28.215 24.5404 28.2758 24.0483C28.3214 23.6721 28.3081 23.4669 28.3024 23.3396C28.2948 23.1363 28.1257 22.9254 27.9414 22.8361L26.8356 22.3402C26.8356 22.3402 25.1826 21.6201 24.1718 21.1603C24.066 21.1142 23.9527 21.0878 23.8374 21.0824C23.7074 21.0688 23.576 21.0833 23.4521 21.1249C23.3282 21.1666 23.2146 21.2343 23.1192 21.3237C23.1097 21.3199 22.9824 21.4282 21.6087 23.0926C21.5299 23.1985 21.4213 23.2786 21.2967 23.3226C21.1722 23.3666 21.0374 23.3725 20.9095 23.3396C20.7857 23.3066 20.6644 23.2647 20.5466 23.2142C20.311 23.1154 20.2293 23.0774 20.0678 23.009C18.977 22.5338 17.9673 21.8908 17.0753 21.1033C16.8359 20.8943 16.6136 20.6663 16.3856 20.4459C15.6382 19.73 14.9867 18.9202 14.4476 18.0367L14.3355 17.8562C14.2562 17.7342 14.1912 17.6035 14.1417 17.4667C14.0695 17.1874 14.2576 16.9632 14.2576 16.9632C14.2576 16.9632 14.7193 16.4578 14.934 16.1842C15.143 15.9182 15.3197 15.6598 15.4337 15.4755C15.6579 15.1145 15.7282 14.744 15.6104 14.4571C15.0784 13.1575 14.5287 11.8649 13.9612 10.5792C13.8491 10.3246 13.5166 10.1422 13.2145 10.1061C13.1119 10.0934 13.0093 10.0833 12.9067 10.0757C12.6516 10.0611 12.3958 10.0636 12.141 10.0833L12.5248 10.07Z" fill="url(#paint0_linear_1_1513)"/>
<defs>
<linearGradient id="paint0_linear_1_1513" x1="1.9" y1="38" x2="38" y2="8.54999" gradientUnits="userSpaceOnUse">
<stop stop-color="#FF2100"/>
<stop offset="1" stop-color="#FF6700"/>
</linearGradient>
</defs>
</svg>
