<svg width="145" height="68" viewBox="0 0 145 68" fill="none" xmlns="http://www.w3.org/2000/svg">
<path d="M40.8743 21.215H50.3861V24.1305H45.8613V44.6155H40.8743V21.215ZM56.0253 35.8308L56.8801 24.1305H57.1663L58.021 35.8308H56.0253ZM50.5027 44.6155H55.3855L55.8473 38.4009H58.1988L58.6629 44.6155H63.5435L60.9428 21.215H53.1034L50.5027 44.6155ZM70.6857 36.4254V40.8368C70.6857 41.4315 71.1764 41.6041 71.4626 41.6041C71.9328 41.6041 72.26 41.2397 72.26 40.8368V35.3899C72.26 34.6608 72.1168 33.8553 70.2562 33.8553H68.2319V31.2852H70.338C71.7488 31.2852 72.26 30.9783 72.26 29.5396V24.8978C72.26 24.4949 71.9328 24.1305 71.4624 24.1305C71.1764 24.1305 70.6857 24.2839 70.6857 24.8978V28.7147H65.6965V25.3965C65.6965 23.7661 65.9009 21.215 69.3971 21.215H73.5275C77.0239 21.215 77.2488 23.7661 77.2488 25.3965V29.1366C77.2488 31.6877 75.3473 32.3783 73.8547 32.3206V32.5508C77.2079 32.4742 77.2488 34.8907 77.2488 35.7156V40.4342C77.2488 42.0837 77.0239 44.6155 73.5275 44.6155H69.3971C65.9009 44.6155 65.6965 42.0835 65.6965 40.434V36.4254H70.6857ZM80.5205 21.215H92.0729V44.6155H87.0839V24.1305H85.5095V44.6155H80.5205V21.215ZM100.333 34.0854V24.1307H100.988C101.519 24.1307 101.908 24.5524 101.908 25.3006V32.9153C101.908 33.6635 101.519 34.0852 100.988 34.0852L100.333 34.0854ZM95.3443 44.6155H100.333V36.6555H103.196C106.672 36.6555 106.897 34.1236 106.897 32.474V25.3965C106.897 23.7661 106.672 21.215 103.196 21.215H95.3443V44.6155ZM116.732 40.8368C116.732 41.2397 116.404 41.6041 115.934 41.6041C115.648 41.6041 115.157 41.4315 115.157 40.8368V24.8978C115.157 24.2839 115.648 24.1305 115.934 24.1305C116.404 24.1305 116.732 24.4949 116.732 24.8978V40.8368ZM110.168 40.4342C110.168 42.0837 110.393 44.6155 113.869 44.6155H118.02C121.496 44.6155 121.721 42.0835 121.721 40.434V25.3965C121.721 23.7661 121.496 21.215 118.02 21.215H113.869C110.393 21.215 110.168 23.7661 110.168 25.3965V40.4342ZM137.955 21.215H144.457V44.6155H139.468V29.9423H139.284L136.708 44.6155H132.721L130.165 29.9423H129.981V44.6155H124.992V21.215H131.474L134.725 37.6721L137.955 21.215ZM34.409 12.5838C32.8818 6.31169 29.054 1.20971 28.5265 0.384766C27.6923 1.55469 24.6396 6.06241 23.0877 11.0493C21.3926 16.6308 21.1432 21.5794 21.7282 26.4321C22.3088 31.304 24.5026 36.3103 24.5026 36.3103C25.6682 38.9189 27.4142 41.7383 28.5512 43.1194C30.2174 41.0863 34.0472 35.0251 35.2412 27.1227C35.9058 22.7111 35.9344 18.8559 34.409 12.5838ZM28.5265 41.5467C27.7762 40.2231 26.6106 37.7103 26.5002 33.7975C26.4715 30.0382 28.0807 26.7965 28.5512 26.1254C28.9702 26.7967 30.3564 29.6161 30.5221 33.4715C30.6345 37.231 29.3014 40.2037 28.5265 41.5467ZM33.9654 23.2289C33.9081 25.6266 33.6034 28.1585 33.2149 29.6738C33.354 27.0652 33.0208 23.4017 32.3827 20.5246C31.7448 17.6666 29.9393 12.8715 28.498 10.6656C27.167 12.7756 25.5269 16.9185 24.6683 20.5054C23.8054 24.0921 23.7809 28.4462 23.7809 29.7505C23.5518 28.657 22.9793 24.7252 23.1408 20.7931C23.2759 17.5516 24.0854 14.195 24.5292 12.6605C26.2221 7.53928 28.138 4.25936 28.4978 3.74137C28.8579 4.25936 31.2704 8.30655 32.5217 12.5454C33.7671 16.7844 34.0185 20.8504 33.9654 23.2289Z" fill="#161616"/>
<path d="M29.7115 44.3975H20.2682V51.6991C20.2767 51.6991 20.2833 51.6798 20.2915 51.6798C22.5164 49.112 26.1249 49.112 28.3514 51.6798C30.5763 54.2287 30.5763 58.3872 28.3514 60.9553C28.3413 60.9743 28.3313 60.9743 28.3214 60.9935C28.3098 60.9935 28.2982 61.0127 28.2881 61.0319C26.0682 63.5616 23.1683 64.8264 20.2682 64.8264C17.3551 64.8264 14.4417 63.5616 12.2202 60.9935C8.30247 56.4899 7.83854 49.4951 10.825 44.3975C11.235 43.6962 11.7022 43.0417 12.2202 42.4428C14.4417 39.8749 17.3551 38.61 20.2682 38.61V21.0557C9.07409 21.0557 0 31.5001 0 44.3975C0 57.2949 9.07409 67.7585 20.2682 67.7585C26.1048 67.7585 31.3628 64.903 35.0608 60.3612V44.3975H29.7115ZM121.886 51.2666H37.6466V67.7585H121.886V51.2666ZM114.601 62.7797H115.67V60.2903H114.601V62.7797ZM114.601 58.4234H116.219L117.302 59.0458L117.569 59.6681L117.836 60.9128V61.535C117.808 65.9936 115.319 64.3615 112.703 64.6469V54.3782H114.601V58.4234ZM100.553 54.3782V56.2452H99.2032V64.6469H97.0516V56.2452H95.7017V54.3782H100.553ZM80.8518 61.8463H81.119L81.6534 61.535V57.1787H80.8518V61.8463ZM78.6862 57.1789H77.8705V61.535L78.4189 61.8463H78.6862V57.1789ZM80.8518 54.3782V55.3117H82.2019L83.0034 55.934L83.5518 56.5564L83.8189 57.8011V61.224L83.5519 62.4687L83.0034 63.091L82.2019 63.7132H80.8518V64.6467H78.6862V63.7132H77.3362L76.5207 63.091L75.9863 62.4687L75.7191 61.224V57.8011L75.9861 56.5564L76.5207 55.934L77.3362 55.3117H78.6862V54.3782H80.8518ZM63.2964 54.3782V56.2452H61.6765V58.4234H63.2964V60.2903H61.6765V62.7797H63.5665V64.6467H59.5165V54.3782H63.2964ZM43.8566 58.4234H44.9366V54.3782H46.8266V64.6469H44.9366V60.2903H43.8566V64.6469H41.6966V54.3782H43.8566V58.4234Z" fill="#BDBDBD"/>
</svg>
