<svg width="114" height="70" viewBox="0 0 114 70" fill="none" xmlns="http://www.w3.org/2000/svg">
<path d="M45.8332 -0.000488281V4.13165H40.8323V9.11641H35.8149V14.1054H30.8016L30.7397 29.896L40.8323 39.9271V55.6358H63.3881V39.9107L73.4065 29.9493V14.1054H68.4054V9.11641H63.3881V4.15624H58.3748V-0.000488281H45.8332Z" fill="white"/>
<path d="M49.9845 26.5767H54.1649V51.4843H49.9845V26.5767ZM54.9978 30.7293H59.1659V51.4843H54.9978V30.7293ZM44.9793 30.7293H49.1475V51.4843H44.9793V30.7293Z" fill="#BDBDBD"/>
<path d="M60.0147 13.2741H64.1953V33.2051L60.0147 37.3741V13.2741ZM59.1902 29.8969H54.9973V8.30157H59.1778L59.1902 29.8969ZM49.984 4.16943H54.1645V25.7566H49.984V4.16943ZM49.1594 29.9092H44.9665V8.30157H49.1471L49.1594 29.9092ZM39.9615 13.2741H44.142V37.3741L39.9615 33.2214V13.2741ZM34.9482 18.263H39.1369V32.3934L34.9606 28.2367L34.9482 18.263ZM65.0445 18.263H69.2127V28.2367L65.028 32.3729L65.0445 18.263Z" fill="#161616"/>
<path d="M23.1799 63.5319C23.2146 63.0815 23.0923 62.6327 22.8336 62.2612C22.5862 62.007 22.0502 61.8512 21.2092 61.8512H19.4241C18.6572 61.8512 18.1377 62.003 17.878 62.2899C17.6015 62.6388 17.4623 63.0761 17.4863 63.5197V65.9137C17.4623 66.3573 17.6015 66.7945 17.878 67.1435C18.1377 67.4346 18.6572 67.5821 19.4241 67.5821H21.2051C22.0296 67.5821 22.5656 67.4346 22.8047 67.1722C23.0637 66.8044 23.1941 66.3623 23.1758 65.9137L23.1799 63.5319ZM25.5834 69.2055C25.0475 69.7302 24.091 69.9925 22.6686 69.9925H18.0264C16.6288 69.9925 15.664 69.7466 15.1405 69.2342C14.6169 68.7218 14.3159 67.9716 14.3159 66.9631V62.503C14.3159 61.4782 14.5839 60.7362 15.1405 60.2279C15.697 59.7196 16.6453 59.4736 18.0264 59.4736H22.6686C24.091 59.4736 25.0475 59.7401 25.5834 60.2525C25.8566 60.5575 26.0655 60.9137 26.1979 61.3003C26.3304 61.6868 26.3835 62.0958 26.3544 62.503V66.9631C26.3843 67.3693 26.3314 67.7771 26.1989 68.1625C26.0664 68.5478 25.8571 68.9025 25.5834 69.2055Z" fill="#161616"/>
<path d="M39.4766 69.2056C38.9612 69.7302 37.9842 69.9926 36.5907 69.9926H31.9402C30.5425 69.9926 29.5655 69.7467 29.0213 69.2383C28.477 68.73 28.1967 67.9716 28.1967 66.9631V62.5031C28.1967 61.4782 28.4646 60.7362 29.0213 60.228C29.5778 59.7197 30.5425 59.4736 31.9402 59.4736H36.5866C37.9842 59.4736 38.9612 59.7402 39.4725 60.2526C39.7484 60.5561 39.96 60.9119 40.0946 61.2986C40.2291 61.6852 40.284 62.0949 40.2559 62.5031V63.532H37.0895C37.1204 63.0788 36.9906 62.6292 36.7226 62.2612C36.4794 62.0071 35.9434 61.8513 35.1023 61.8513H33.3337C32.5544 61.8513 32.0392 62.003 31.7876 62.2899C31.5058 62.6362 31.366 63.0754 31.3959 63.5197V65.9137C31.366 66.3581 31.5058 66.7974 31.7876 67.1435C32.0392 67.4346 32.5544 67.5822 33.3337 67.5822H35.0899C35.9146 67.5822 36.467 67.4346 36.7102 67.1722C36.9794 66.8018 37.1092 66.3491 37.0771 65.8933H40.2435V66.9304C40.2724 67.3374 40.2179 67.746 40.0833 68.1315C39.9486 68.5169 39.7366 68.8712 39.4601 69.1727" fill="#161616"/>
<path d="M45.2727 69.9885H42.1271L42.1065 66.9631V62.499L42.1271 59.4736H45.2727V63.4992H50.9704V59.4736H54.1618V62.499V66.9631V69.9885H50.9704V65.8891H45.2727V69.9885Z" fill="#161616"/>
<path d="M60.0821 65.8891H59.1877C59.1689 66.3493 59.3142 66.8013 59.6004 67.164C59.8677 67.4551 60.3836 67.6027 61.1497 67.6027H68.0727V69.9926H59.7403C58.3426 69.9926 57.3738 69.7467 56.8167 69.2383C56.2604 68.73 55.9922 67.9716 55.9922 66.9631V62.5031C55.9626 62.0876 56.02 61.6705 56.1627 61.2786C56.3044 60.8867 56.5278 60.5289 56.8167 60.228C57.3738 59.7237 58.3426 59.4736 59.7403 59.4736H68.0727V61.8636H61.1461C60.3791 61.8636 59.8641 62.0152 59.5959 62.3023C59.3196 62.6399 59.1734 63.0642 59.1832 63.4992H68.0727V65.8891H60.0821Z" fill="#161616"/>
<path d="M92.4416 61.8636H88.088V59.4736H91.7491H96.3907H100.139V61.8636H95.5994V69.9884H92.4416V61.8636Z" fill="#161616"/>
<path d="M72.967 64.7659C72.967 63.4501 74.0714 63.5935 74.0714 63.5935H77.2669V65.8194H74.0471C73.9045 65.8282 73.7619 65.8071 73.6282 65.7575C73.4945 65.708 73.3725 65.631 73.2711 65.5317C73.1689 65.4324 73.089 65.3129 73.037 65.181C72.985 65.049 72.9607 64.9076 72.967 64.7659ZM83.6202 65.8194H80.4041V63.614H83.5995C83.5995 63.614 84.7003 63.4706 84.7003 64.7864C84.7066 64.9281 84.6824 65.0695 84.6294 65.2015C84.5774 65.3333 84.4976 65.4529 84.3962 65.5522C84.2939 65.6515 84.1719 65.7285 84.0382 65.778C83.9046 65.8276 83.7619 65.8487 83.6202 65.8399M85.2978 61.3963H80.4041V59.4736H77.283V61.3758H72.2574C72.2574 61.3758 69.4091 61.466 69.4091 64.6757C69.4091 67.8855 72.3319 67.9101 72.3319 67.9101H77.2794V69.9926H80.4005V67.9101H85.2152C85.2152 67.9101 88.1551 67.9101 88.1551 64.6757C88.1551 61.4414 85.2942 61.3758 85.2942 61.3758" fill="#161616"/>
<path d="M8.24639 63.9706H3.56295V61.8636H8.24639C8.38553 61.8636 8.52333 61.8908 8.65188 61.9437C8.78044 61.9967 8.89724 62.0743 8.99556 62.1722C9.09398 62.27 9.17203 62.3861 9.22531 62.5139C9.27851 62.6417 9.30596 62.7788 9.30596 62.9171C9.30596 63.0554 9.27851 63.1924 9.22531 63.3203C9.17203 63.4481 9.09398 63.5642 8.99556 63.662C8.89724 63.7599 8.78044 63.8375 8.65188 63.8904C8.52333 63.9433 8.38553 63.9706 8.24639 63.9706ZM11.6683 60.2525C11.1488 59.7401 10.1882 59.4736 8.78232 59.4736H0.417236V69.9925H3.56295V66.3606H8.76994C10.1882 66.3606 11.1488 66.1064 11.6559 65.5816C11.9305 65.2772 12.1412 64.9213 12.2757 64.5349C12.4101 64.1484 12.4658 63.7392 12.4393 63.3311V62.5113C12.4658 62.1032 12.4101 61.6939 12.2757 61.3075C12.1412 60.9211 11.9305 60.5652 11.6559 60.2607" fill="#161616"/>
<path d="M110.434 66.549C110.432 66.8274 110.319 67.0937 110.121 67.2901C109.923 67.4866 109.655 67.5974 109.375 67.5984H104.708V65.4873H109.375C109.656 65.4894 109.926 65.6022 110.125 65.8011C110.323 66 110.434 66.2689 110.434 66.549ZM113.576 66.959V66.1391C113.631 65.3157 113.357 64.5039 112.813 63.8804C112.277 63.3639 111.317 63.1138 109.927 63.1138H104.708V59.4858H101.546V70.0006H109.91C111.317 70.0006 112.277 69.7383 112.796 69.2177C113.067 68.9121 113.274 68.5561 113.405 68.1705C113.536 67.7849 113.588 67.3773 113.56 66.9712" fill="#161616"/>
</svg>
