<svg width="26" height="26" viewBox="0 0 26 26" fill="none" xmlns="http://www.w3.org/2000/svg">
<path d="M15.2403 11.0385L15.5094 9.60161C15.8261 7.91065 14.6149 6.33301 12.9999 6.33301C11.385 6.33301 10.1738 7.91065 10.4905 9.60161L10.7596 11.0385C10.9732 12.1789 11.9109 12.9997 12.9999 12.9997C14.089 12.9997 15.0267 12.1789 15.2403 11.0385Z" stroke="url(#paint0_linear_1_595)" stroke-linecap="round"/>
<path d="M12.2 12.667C12.2 12.3909 11.9851 12.167 11.72 12.167C11.4549 12.167 11.24 12.3909 11.24 12.667H12.2ZM14.76 12.667C14.76 12.3909 14.5451 12.167 14.28 12.167C14.0149 12.167 13.8 12.3909 13.8 12.667H14.76ZM11.24 12.667V13.5215H12.2V12.667H11.24ZM13.8 12.667V13.5215H14.76V12.667H13.8ZM13.0392 15.1662C13.0262 15.1667 13.0131 15.167 13 15.167V16.167C13.0255 16.167 13.051 16.1665 13.0764 16.1655L13.0392 15.1662ZM12.9237 16.1655C12.949 16.1665 12.9745 16.167 13 16.167V15.167C12.9869 15.167 12.9738 15.1667 12.9608 15.1662L12.9237 16.1655ZM13.8 13.5215C13.8 13.8653 13.7962 14.032 13.7528 14.1845C13.715 14.3171 13.6344 14.4763 13.3978 14.7324L14.0896 15.4257C14.3894 15.1011 14.5768 14.8071 14.6732 14.4689C14.7638 14.1507 14.76 13.8289 14.76 13.5215H13.8ZM13.0764 16.1655C13.1011 16.1645 13.1879 16.1632 13.2895 16.1263C13.3843 16.0919 13.463 16.0384 13.5295 15.9852C13.6545 15.8851 13.8252 15.7121 14.0896 15.4257L13.3978 14.7324C13.126 15.0268 13.0035 15.1451 12.9447 15.1922C12.9191 15.2126 12.9331 15.1967 12.9737 15.1819C13.0212 15.1647 13.0643 15.1652 13.0392 15.1662L13.0764 16.1655ZM11.24 13.5215C11.24 13.8289 11.2362 14.1507 11.3269 14.4689C11.4232 14.8071 11.6106 15.1011 11.9104 15.4257L12.6023 14.7324C12.3656 14.4763 12.285 14.3171 12.2472 14.1845C12.2038 14.032 12.2 13.8653 12.2 13.5215H11.24ZM12.9608 15.1662C12.9357 15.1652 12.9788 15.1647 13.0263 15.1819C13.067 15.1967 13.0809 15.2126 13.0554 15.1922C12.9966 15.1451 12.8741 15.0268 12.6023 14.7324L11.9104 15.4257C12.1748 15.7121 12.3455 15.8851 12.4705 15.9852C12.537 16.0384 12.6157 16.0919 12.7105 16.1263C12.8122 16.1632 12.8989 16.1645 12.9237 16.1655L12.9608 15.1662Z" fill="url(#paint1_linear_1_595)"/>
<path d="M11.72 14.333C9.64407 14.9507 8.6061 15.2595 7.97348 16.0555C7.91218 16.1327 7.85426 16.2127 7.79987 16.2952C7.31458 17.032 7.24889 17.9721 7.23999 19.6663M14.28 14.333C16.3559 14.9507 17.3938 15.2595 18.0265 16.0555C18.0878 16.1327 18.1457 16.2127 18.2001 16.2952C18.6854 17.032 18.7511 17.9721 18.76 19.6663" stroke="url(#paint2_linear_1_595)" stroke-linecap="round"/>
<path d="M13 15.667V18.3337" stroke="url(#paint3_linear_1_595)" stroke-linecap="round"/>
<path d="M10.4399 9H15.5599" stroke="url(#paint4_linear_1_595)" stroke-linecap="round" stroke-linejoin="round"/>
<defs>
<linearGradient id="paint0_linear_1_595" x1="12.9999" y1="6.33301" x2="12.9999" y2="12.9997" gradientUnits="userSpaceOnUse">
<stop stop-color="#FF1D00"/>
<stop offset="1" stop-color="#FF6900"/>
</linearGradient>
<linearGradient id="paint1_linear_1_595" x1="13" y1="12.167" x2="13" y2="16.167" gradientUnits="userSpaceOnUse">
<stop stop-color="#FF1D00"/>
<stop offset="1" stop-color="#FF6900"/>
</linearGradient>
<linearGradient id="paint2_linear_1_595" x1="13" y1="14.333" x2="13" y2="19.6663" gradientUnits="userSpaceOnUse">
<stop stop-color="#FF1D00"/>
<stop offset="1" stop-color="#FF6900"/>
</linearGradient>
<linearGradient id="paint3_linear_1_595" x1="13.5" y1="15.667" x2="13.5" y2="18.3337" gradientUnits="userSpaceOnUse">
<stop stop-color="#FF1D00"/>
<stop offset="1" stop-color="#FF6900"/>
</linearGradient>
<linearGradient id="paint4_linear_1_595" x1="12.9999" y1="9" x2="12.9999" y2="10" gradientUnits="userSpaceOnUse">
<stop stop-color="#FF1D00"/>
<stop offset="1" stop-color="#FF6900"/>
</linearGradient>
</defs>
</svg>
