<svg width="26" height="27" viewBox="0 0 26 27" fill="none" xmlns="http://www.w3.org/2000/svg">
<path d="M13.2681 7.63281C14.2658 7.63281 15.0653 7.63171 15.6909 7.71582C16.3307 7.80191 16.864 7.98557 17.2866 8.4082C17.7092 8.83089 17.893 9.36408 17.979 10.0039C18.0631 10.6296 18.062 11.4289 18.062 12.4268V14.5732C18.062 15.5709 18.0631 16.3695 17.979 16.9951C17.893 17.6351 17.7093 18.1691 17.2866 18.5918C16.864 19.0144 16.3306 19.1981 15.6909 19.2842C15.0653 19.3683 14.2658 19.3672 13.2681 19.3672H12.7319C11.7342 19.3672 10.9347 19.3683 10.3091 19.2842C9.6693 19.1981 9.13605 19.0143 8.71338 18.5918C8.2906 18.169 8.10705 17.6351 8.021 16.9951C7.95796 16.526 7.94261 15.9597 7.93896 15.2852L7.93799 14.5732V11.8896C7.93802 11.6135 8.16187 11.3896 8.43799 11.3896C8.71396 11.3898 8.93795 11.6136 8.93799 11.8896V14.5732L8.93896 15.2871C8.94269 15.9479 8.95739 16.4546 9.01221 16.8623C9.08336 17.3914 9.21443 17.6788 9.42041 17.8848C9.62639 18.0906 9.91402 18.2219 10.4429 18.293C10.9863 18.366 11.7062 18.3672 12.7319 18.3672H13.2681C14.2939 18.3672 15.0137 18.366 15.5571 18.293C16.086 18.2218 16.3737 18.0907 16.5796 17.8848C16.7855 17.6788 16.9167 17.3913 16.9878 16.8623C17.0609 16.3188 17.062 15.5993 17.062 14.5732V12.4268C17.062 11.4008 17.0608 10.6812 16.9878 10.1377C16.9167 9.60874 16.7855 9.32123 16.5796 9.11523C16.3737 8.90928 16.0861 8.77819 15.5571 8.70703C15.0137 8.63398 14.2939 8.63281 13.2681 8.63281H12.9995C12.7236 8.63258 12.4995 8.40881 12.4995 8.13281C12.4995 7.85681 12.7236 7.63304 12.9995 7.63281H13.2681ZM12.2397 14.127C12.4867 14.0035 12.7871 14.1036 12.9106 14.3506C13.0339 14.5975 12.9339 14.898 12.687 15.0215C12.2849 15.2227 11.9434 15.6532 11.6899 16.0967C11.5681 16.3099 11.4758 16.5097 11.4146 16.6553C11.3842 16.7275 11.3617 16.7861 11.3472 16.8252C11.34 16.8446 11.3348 16.86 11.3315 16.8691C11.3301 16.8732 11.3282 16.8762 11.3276 16.8779V16.8789C11.262 17.0754 11.0815 17.2118 10.8745 17.2207C10.6676 17.2294 10.4763 17.109 10.394 16.9189C10.2918 16.6824 10.1537 16.5493 10.0522 16.4766C10.0008 16.4398 9.95702 16.4173 9.93018 16.4053L9.90967 16.3965H9.91162L9.91357 16.3975H9.91455C9.64911 16.3237 9.49303 16.0489 9.56592 15.7832C9.63939 15.5171 9.91509 15.3603 10.1812 15.4336L10.0786 15.8076L10.1821 15.4346H10.1831L10.186 15.4355C10.1875 15.4359 10.1893 15.436 10.1909 15.4365C10.1946 15.4376 10.1989 15.439 10.2036 15.4404C10.213 15.4434 10.2246 15.4475 10.2378 15.4521C10.2643 15.4615 10.2987 15.4744 10.3384 15.4922C10.4178 15.5277 10.5218 15.5828 10.6353 15.6641C10.6707 15.6895 10.705 15.7203 10.7417 15.751C10.7676 15.7024 10.793 15.651 10.8218 15.6006C11.1049 15.1051 11.5688 14.4625 12.2397 14.127ZM15.9517 15.6826C16.2276 15.6828 16.4516 15.9066 16.4517 16.1826C16.4517 16.4587 16.2277 16.6824 15.9517 16.6826H13.8052C13.529 16.6826 13.3052 16.4588 13.3052 16.1826C13.3052 15.9065 13.5291 15.6826 13.8052 15.6826H15.9517ZM15.9517 13C16.2277 13.0002 16.4517 13.224 16.4517 13.5C16.4517 13.776 16.2277 13.9998 15.9517 14H13.8052C13.529 14 13.3052 13.7761 13.3052 13.5C13.3052 13.2239 13.529 13 13.8052 13H15.9517ZM10.0073 7.7793C10.2025 7.58421 10.5191 7.58423 10.7144 7.7793C10.7704 7.83524 10.8832 7.92804 11.0532 8.06543C11.2123 8.19398 11.4069 8.35005 11.5913 8.51074C11.7735 8.66956 11.9639 8.84777 12.1118 9.02637C12.1859 9.11591 12.2593 9.21739 12.3159 9.32617C12.3706 9.43135 12.4263 9.57621 12.4263 9.74316C12.4262 9.90992 12.3706 10.0541 12.3159 10.1592C12.2593 10.268 12.1859 10.3694 12.1118 10.459C11.9638 10.6377 11.7736 10.8167 11.5913 10.9756C11.4069 11.1363 11.2123 11.2914 11.0532 11.4199C10.883 11.5574 10.7704 11.6511 10.7144 11.707C10.5191 11.9018 10.2025 11.901 10.0073 11.7061C9.81244 11.5107 9.81216 11.1941 10.0073 10.999C10.1097 10.8967 10.2726 10.766 10.4253 10.6426C10.5809 10.5169 10.7481 10.3811 10.9077 10.2432H8.43799C8.16193 10.2432 7.93813 10.0192 7.93799 9.74316C7.93799 9.46702 8.16185 9.24316 8.43799 9.24316H10.9077C10.7481 9.1052 10.5809 8.96944 10.4253 8.84375C10.2726 8.72037 10.1097 8.58863 10.0073 8.48633C9.81228 8.29111 9.81227 7.97452 10.0073 7.7793ZM15.9517 10.3154C16.2276 10.3156 16.4516 10.5395 16.4517 10.8154C16.4517 11.0915 16.2277 11.3153 15.9517 11.3154H13.8052C13.529 11.3154 13.3052 11.0916 13.3052 10.8154C13.3052 10.5393 13.5291 10.3154 13.8052 10.3154H15.9517Z" fill="url(#paint0_linear_1_658)"/>
<defs>
<linearGradient id="paint0_linear_1_658" x1="13" y1="7.63281" x2="13" y2="19.3672" gradientUnits="userSpaceOnUse">
<stop stop-color="#FF1D00"/>
<stop offset="1" stop-color="#FF6900"/>
</linearGradient>
</defs>
</svg>
